<svg xmlns="http://www.w3.org/2000/svg" xmlns:xlink="http://www.w3.org/1999/xlink" width="484" zoomAndPan="magnify" viewBox="0 0 363 179.999997" height="240" preserveAspectRatio="xMidYMid meet" version="1.0"><defs><g/></defs><path stroke-linecap="butt" transform="matrix(0, -0.75, 0.75, 0, -0.00391045, 179.06356)" fill="none" stroke-linejoin="miter" d="M 0.00141274 2.000006 L 237.636844 2.000006 " stroke="#ffffff" stroke-width="4" stroke-opacity="1" stroke-miterlimit="4"/><path stroke-linecap="butt" transform="matrix(0, -0.75, 0.75, 0, 359.443486, 179.06356)" fill="none" stroke-linejoin="miter" d="M 0.00141274 2.002435 L 237.636844 2.002435 " stroke="#ffffff" stroke-width="4" stroke-opacity="1" stroke-miterlimit="4"/><path stroke-linecap="butt" transform="matrix(0.75, 0.000000000000000671, -0.000000000000000671, 0.75, 0.376421, 176.908408)" fill="none" stroke-linejoin="miter" d="M -0.00189419 2.002332 L 127.018947 2.002332 " stroke="#ffffff" stroke-width="4" stroke-opacity="1" stroke-miterlimit="4"/><path stroke-linecap="butt" transform="matrix(0.75, 0.00000000000000059, -0.00000000000000059, 0.75, 0.376421, 0.659085)" fill="none" stroke-linejoin="miter" d="M -0.00189419 2.001428 L 127.018947 2.001428 " stroke="#ffffff" stroke-width="4" stroke-opacity="1" stroke-miterlimit="4"/><path stroke-linecap="butt" transform="matrix(0.75, 0.000000000000000671, -0.000000000000000671, 0.75, 266.070983, 176.249315)" fill="none" stroke-linejoin="miter" d="M -0.000894422 2.000914 L 127.019947 2.000914 " stroke="#ffffff" stroke-width="4" stroke-opacity="1" stroke-miterlimit="4"/><path stroke-linecap="butt" transform="matrix(0.75, 0.000000000000000589, -0.000000000000000589, 0.75, 266.070983, -0.000000000000015987)" fill="none" stroke-linejoin="miter" d="M -0.000894422 2 L 127.019947 2 " stroke="#ffffff" stroke-width="4" stroke-opacity="1" stroke-miterlimit="4"/><g fill="#002f6c" fill-opacity="1"><g transform="translate(41.246623, 46.495709)"><g><path d="M 13.171875 0.640625 C 10.847656 0.640625 8.742188 0.164062 6.859375 -0.78125 C 4.972656 -1.726562 3.476562 -3.132812 2.375 -5 C 1.269531 -6.875 0.71875 -9.164062 0.71875 -11.875 C 0.71875 -13.9375 1.050781 -15.75 1.71875 -17.3125 C 2.394531 -18.875 3.316406 -20.179688 4.484375 -21.234375 C 5.648438 -22.296875 6.992188 -23.085938 8.515625 -23.609375 C 10.035156 -24.140625 11.648438 -24.40625 13.359375 -24.40625 C 14.722656 -24.40625 15.976562 -24.25 17.125 -23.9375 C 18.28125 -23.625 19.363281 -23.191406 20.375 -22.640625 L 20.515625 -18.21875 L 20.15625 -18.21875 L 18.359375 -21.09375 C 18.117188 -21.550781 17.851562 -21.960938 17.5625 -22.328125 C 17.28125 -22.703125 16.921875 -22.988281 16.484375 -23.1875 C 16.128906 -23.351562 15.773438 -23.476562 15.421875 -23.5625 C 15.078125 -23.644531 14.640625 -23.6875 14.109375 -23.6875 C 12.722656 -23.6875 11.457031 -23.3125 10.3125 -22.5625 C 9.175781 -21.820312 8.265625 -20.59375 7.578125 -18.875 C 6.890625 -17.164062 6.546875 -14.820312 6.546875 -11.84375 C 6.546875 -8.894531 6.867188 -6.5625 7.515625 -4.84375 C 8.171875 -3.125 9.054688 -1.898438 10.171875 -1.171875 C 11.285156 -0.441406 12.539062 -0.078125 13.9375 -0.078125 C 14.695312 -0.078125 15.304688 -0.128906 15.765625 -0.234375 C 16.222656 -0.335938 16.679688 -0.5 17.140625 -0.71875 C 17.585938 -0.914062 17.929688 -1.195312 18.171875 -1.5625 C 18.421875 -1.9375 18.640625 -2.335938 18.828125 -2.765625 L 20.40625 -6.296875 L 20.765625 -6.296875 L 20.65625 -1.15625 C 19.65625 -0.625 18.53125 -0.191406 17.28125 0.140625 C 16.03125 0.472656 14.660156 0.640625 13.171875 0.640625 Z M 13.171875 0.640625 "/></g></g></g><g fill="#002f6c" fill-opacity="1"><g transform="translate(62.954667, 46.495709)"><g><path d="M 9.828125 0.546875 C 8.003906 0.546875 6.421875 0.164062 5.078125 -0.59375 C 3.734375 -1.351562 2.691406 -2.425781 1.953125 -3.8125 C 1.222656 -5.207031 0.859375 -6.84375 0.859375 -8.71875 C 0.859375 -10.582031 1.25 -12.195312 2.03125 -13.5625 C 2.8125 -14.9375 3.878906 -15.992188 5.234375 -16.734375 C 6.585938 -17.484375 8.117188 -17.859375 9.828125 -17.859375 C 11.535156 -17.859375 13.0625 -17.488281 14.40625 -16.75 C 15.75 -16.019531 16.804688 -14.972656 17.578125 -13.609375 C 18.359375 -12.242188 18.75 -10.613281 18.75 -8.71875 C 18.75 -6.820312 18.382812 -5.179688 17.65625 -3.796875 C 16.925781 -2.421875 15.894531 -1.351562 14.5625 -0.59375 C 13.226562 0.164062 11.648438 0.546875 9.828125 0.546875 Z M 9.828125 -0.1875 C 10.671875 -0.1875 11.34375 -0.425781 11.84375 -0.90625 C 12.34375 -1.382812 12.707031 -2.234375 12.9375 -3.453125 C 13.164062 -4.679688 13.28125 -6.410156 13.28125 -8.640625 C 13.28125 -10.898438 13.164062 -12.640625 12.9375 -13.859375 C 12.707031 -15.085938 12.34375 -15.941406 11.84375 -16.421875 C 11.34375 -16.898438 10.671875 -17.140625 9.828125 -17.140625 C 8.984375 -17.140625 8.300781 -16.898438 7.78125 -16.421875 C 7.269531 -15.941406 6.898438 -15.085938 6.671875 -13.859375 C 6.453125 -12.640625 6.34375 -10.898438 6.34375 -8.640625 C 6.34375 -6.410156 6.453125 -4.679688 6.671875 -3.453125 C 6.898438 -2.234375 7.269531 -1.382812 7.78125 -0.90625 C 8.300781 -0.425781 8.984375 -0.1875 9.828125 -0.1875 Z M 9.828125 -0.1875 "/></g></g></g><g fill="#002f6c" fill-opacity="1"><g transform="translate(82.574703, 46.495709)"><g><path d="M 5.96875 0.546875 C 4.582031 0.546875 3.414062 0.148438 2.46875 -0.640625 C 1.519531 -1.441406 1.046875 -2.582031 1.046875 -4.0625 C 1.046875 -5.195312 1.617188 -6.238281 2.765625 -7.1875 C 3.921875 -8.132812 5.734375 -8.847656 8.203125 -9.328125 C 8.585938 -9.398438 9.019531 -9.476562 9.5 -9.5625 C 9.976562 -9.644531 10.484375 -9.734375 11.015625 -9.828125 L 11.015625 -12.671875 C 11.015625 -14.304688 10.816406 -15.453125 10.421875 -16.109375 C 10.023438 -16.765625 9.40625 -17.09375 8.5625 -17.09375 C 7.988281 -17.09375 7.535156 -16.90625 7.203125 -16.53125 C 6.867188 -16.164062 6.648438 -15.523438 6.546875 -14.609375 L 6.484375 -14.21875 C 6.429688 -13.1875 6.175781 -12.429688 5.71875 -11.953125 C 5.269531 -11.472656 4.707031 -11.234375 4.03125 -11.234375 C 3.40625 -11.234375 2.890625 -11.425781 2.484375 -11.8125 C 2.078125 -12.195312 1.875 -12.710938 1.875 -13.359375 C 1.875 -14.335938 2.210938 -15.160156 2.890625 -15.828125 C 3.578125 -16.503906 4.484375 -17.007812 5.609375 -17.34375 C 6.742188 -17.6875 7.96875 -17.859375 9.28125 -17.859375 C 11.414062 -17.859375 13.066406 -17.332031 14.234375 -16.28125 C 15.398438 -15.238281 15.984375 -13.546875 15.984375 -11.203125 L 15.984375 -3.234375 C 15.984375 -2.160156 16.488281 -1.625 17.5 -1.625 L 18.28125 -1.625 L 18.609375 -1.328125 C 18.148438 -0.753906 17.648438 -0.3125 17.109375 0 C 16.578125 0.3125 15.816406 0.46875 14.828125 0.46875 C 13.773438 0.46875 12.941406 0.222656 12.328125 -0.265625 C 11.710938 -0.765625 11.3125 -1.421875 11.125 -2.234375 C 10.40625 -1.460938 9.664062 -0.804688 8.90625 -0.265625 C 8.15625 0.273438 7.175781 0.546875 5.96875 0.546875 Z M 8.171875 -1.65625 C 8.648438 -1.65625 9.097656 -1.769531 9.515625 -2 C 9.941406 -2.226562 10.441406 -2.582031 11.015625 -3.0625 L 11.015625 -9.109375 C 10.773438 -9.054688 10.535156 -9.003906 10.296875 -8.953125 C 10.054688 -8.910156 9.78125 -8.863281 9.46875 -8.8125 C 8.363281 -8.53125 7.476562 -8.046875 6.8125 -7.359375 C 6.15625 -6.679688 5.828125 -5.765625 5.828125 -4.609375 C 5.828125 -3.617188 6.054688 -2.878906 6.515625 -2.390625 C 6.972656 -1.898438 7.523438 -1.65625 8.171875 -1.65625 Z M 8.171875 -1.65625 "/></g></g></g><g fill="#002f6c" fill-opacity="1"><g transform="translate(101.222734, 46.495709)"><g><path d="M 9.640625 0.546875 C 8.015625 0.546875 6.535156 0.191406 5.203125 -0.515625 C 3.867188 -1.222656 2.8125 -2.253906 2.03125 -3.609375 C 1.25 -4.972656 0.859375 -6.640625 0.859375 -8.609375 C 0.859375 -10.546875 1.285156 -12.203125 2.140625 -13.578125 C 2.992188 -14.960938 4.132812 -16.019531 5.5625 -16.75 C 6.988281 -17.488281 8.554688 -17.859375 10.265625 -17.859375 C 11.648438 -17.859375 12.820312 -17.628906 13.78125 -17.171875 C 14.75 -16.710938 15.484375 -16.117188 15.984375 -15.390625 C 16.484375 -14.660156 16.734375 -13.898438 16.734375 -13.109375 C 16.734375 -12.429688 16.53125 -11.90625 16.125 -11.53125 C 15.71875 -11.164062 15.191406 -10.984375 14.546875 -10.984375 C 13.847656 -10.984375 13.28125 -11.234375 12.84375 -11.734375 C 12.414062 -12.234375 12.164062 -12.894531 12.09375 -13.71875 C 12.070312 -14.25 12.082031 -14.695312 12.125 -15.0625 C 12.175781 -15.4375 12.175781 -15.816406 12.125 -16.203125 C 12.03125 -16.609375 11.878906 -16.875 11.671875 -17 C 11.472656 -17.132812 11.195312 -17.203125 10.84375 -17.203125 C 9.375 -17.203125 8.238281 -16.566406 7.4375 -15.296875 C 6.632812 -14.023438 6.234375 -12 6.234375 -9.21875 C 6.234375 -6.789062 6.679688 -4.9375 7.578125 -3.65625 C 8.472656 -2.375 9.859375 -1.734375 11.734375 -1.734375 C 12.859375 -1.734375 13.769531 -1.9375 14.46875 -2.34375 C 15.164062 -2.75 15.835938 -3.359375 16.484375 -4.171875 L 16.84375 -3.890625 C 16.25 -2.472656 15.328125 -1.378906 14.078125 -0.609375 C 12.828125 0.160156 11.347656 0.546875 9.640625 0.546875 Z M 9.640625 0.546875 "/></g></g></g><g fill="#002f6c" fill-opacity="1"><g transform="translate(119.006772, 46.495709)"><g><path d="M 0.828125 0 L 0.828125 -0.359375 L 1.265625 -0.5 C 2.128906 -0.789062 2.5625 -1.390625 2.5625 -2.296875 L 2.5625 -21.53125 C 2.5625 -22.03125 2.472656 -22.398438 2.296875 -22.640625 C 2.128906 -22.878906 1.804688 -23.0625 1.328125 -23.1875 L 0.796875 -23.328125 L 0.796875 -23.6875 L 7.125 -25.234375 L 7.703125 -24.90625 L 7.5625 -19.84375 L 7.5625 -15.34375 C 8.394531 -16.03125 9.296875 -16.617188 10.265625 -17.109375 C 11.242188 -17.609375 12.320312 -17.859375 13.5 -17.859375 C 15.0625 -17.859375 16.300781 -17.410156 17.21875 -16.515625 C 18.144531 -15.628906 18.609375 -14.265625 18.609375 -12.421875 L 18.609375 -2.265625 C 18.609375 -1.785156 18.703125 -1.398438 18.890625 -1.109375 C 19.085938 -0.828125 19.425781 -0.613281 19.90625 -0.46875 L 20.203125 -0.359375 L 20.203125 0 L 11.765625 0 L 11.765625 -0.359375 L 12.203125 -0.46875 C 13.066406 -0.757812 13.5 -1.367188 13.5 -2.296875 L 13.5 -13.609375 C 13.5 -14.566406 13.335938 -15.222656 13.015625 -15.578125 C 12.691406 -15.941406 12.117188 -16.125 11.296875 -16.125 C 10.773438 -16.125 10.203125 -16.019531 9.578125 -15.8125 C 8.953125 -15.613281 8.316406 -15.265625 7.671875 -14.765625 L 7.671875 -2.234375 C 7.671875 -1.296875 8.101562 -0.695312 8.96875 -0.4375 L 9.25 -0.359375 L 9.25 0 Z M 0.828125 0 "/></g></g></g><g fill="#002f6c" fill-opacity="1"><g transform="translate(139.886813, 46.495709)"><g><path d="M 5.046875 -19.734375 C 4.222656 -19.734375 3.53125 -19.988281 2.96875 -20.5 C 2.40625 -21.019531 2.125 -21.675781 2.125 -22.46875 C 2.125 -23.28125 2.40625 -23.9375 2.96875 -24.4375 C 3.53125 -24.945312 4.222656 -25.203125 5.046875 -25.203125 C 5.859375 -25.203125 6.539062 -24.945312 7.09375 -24.4375 C 7.644531 -23.9375 7.921875 -23.28125 7.921875 -22.46875 C 7.921875 -21.675781 7.644531 -21.019531 7.09375 -20.5 C 6.539062 -19.988281 5.859375 -19.734375 5.046875 -19.734375 Z M 0.796875 0 L 0.796875 -0.359375 L 1.296875 -0.5 C 1.773438 -0.644531 2.101562 -0.859375 2.28125 -1.140625 C 2.46875 -1.429688 2.5625 -1.816406 2.5625 -2.296875 L 2.5625 -13.578125 C 2.5625 -14.078125 2.46875 -14.453125 2.28125 -14.703125 C 2.101562 -14.953125 1.773438 -15.128906 1.296875 -15.234375 L 0.796875 -15.34375 L 0.796875 -15.703125 L 7.375 -17.8125 L 7.734375 -17.453125 L 7.625 -12.34375 L 7.625 -2.265625 C 7.625 -1.785156 7.710938 -1.398438 7.890625 -1.109375 C 8.078125 -0.828125 8.398438 -0.613281 8.859375 -0.46875 L 9.21875 -0.359375 L 9.21875 0 Z M 0.796875 0 "/></g></g></g><g fill="#002f6c" fill-opacity="1"><g transform="translate(149.966837, 46.495709)"><g><path d="M 0.71875 0 L 0.71875 -0.359375 L 1.21875 -0.5 C 2.0625 -0.738281 2.484375 -1.328125 2.484375 -2.265625 L 2.484375 -13.53125 C 2.484375 -14.0625 2.398438 -14.453125 2.234375 -14.703125 C 2.066406 -14.953125 1.742188 -15.128906 1.265625 -15.234375 L 0.71875 -15.375 L 0.71875 -15.734375 L 6.875 -17.8125 L 7.234375 -17.453125 L 7.53125 -15.296875 C 8.363281 -16.046875 9.304688 -16.660156 10.359375 -17.140625 C 11.421875 -17.617188 12.46875 -17.859375 13.5 -17.859375 C 15.082031 -17.859375 16.300781 -17.425781 17.15625 -16.5625 C 18.007812 -15.695312 18.4375 -14.375 18.4375 -12.59375 L 18.4375 -2.234375 C 18.4375 -1.296875 18.890625 -0.707031 19.796875 -0.46875 L 20.125 -0.359375 L 20.125 0 L 11.625 0 L 11.625 -0.359375 L 12.09375 -0.5 C 12.9375 -0.769531 13.359375 -1.359375 13.359375 -2.265625 L 13.359375 -13.75 C 13.359375 -15.289062 12.585938 -16.0625 11.046875 -16.0625 C 9.992188 -16.0625 8.84375 -15.53125 7.59375 -14.46875 L 7.59375 -2.234375 C 7.59375 -1.296875 8.015625 -0.707031 8.859375 -0.46875 L 9.1875 -0.359375 L 9.1875 0 Z M 0.71875 0 "/></g></g></g><g fill="#002f6c" fill-opacity="1"><g transform="translate(170.774873, 46.495709)"><g><path d="M 8.5625 -6.234375 C 6.90625 -6.234375 5.503906 -6.507812 4.359375 -7.0625 L 4.359375 -5.828125 C 4.359375 -5.085938 4.726562 -4.644531 5.46875 -4.5 L 12.234375 -3.234375 C 13.367188 -3.023438 14.390625 -2.742188 15.296875 -2.390625 C 16.210938 -2.046875 16.945312 -1.554688 17.5 -0.921875 C 18.050781 -0.285156 18.328125 0.582031 18.328125 1.6875 C 18.328125 2.863281 17.941406 3.945312 17.171875 4.9375 C 16.398438 5.9375 15.265625 6.742188 13.765625 7.359375 C 12.265625 7.972656 10.398438 8.28125 8.171875 8.28125 C 6.253906 8.28125 4.726562 8.082031 3.59375 7.6875 C 2.46875 7.289062 1.671875 6.78125 1.203125 6.15625 C 0.734375 5.53125 0.5 4.867188 0.5 4.171875 C 0.5 3.304688 0.789062 2.4375 1.375 1.5625 C 1.96875 0.6875 2.695312 -0.015625 3.5625 -0.546875 C 2.820312 -0.828125 2.28125 -1.195312 1.9375 -1.65625 C 1.601562 -2.113281 1.4375 -2.601562 1.4375 -3.125 C 1.4375 -3.613281 1.5625 -4.066406 1.8125 -4.484375 C 2.070312 -4.898438 2.378906 -5.328125 2.734375 -5.765625 L 3.921875 -7.265625 C 2.171875 -8.273438 1.296875 -9.863281 1.296875 -12.03125 C 1.296875 -13.75 1.910156 -15.148438 3.140625 -16.234375 C 4.378906 -17.316406 6.203125 -17.859375 8.609375 -17.859375 C 9.828125 -17.859375 10.898438 -17.710938 11.828125 -17.421875 C 12.753906 -17.128906 13.515625 -16.722656 14.109375 -16.203125 C 14.878906 -16.316406 15.601562 -16.507812 16.28125 -16.78125 C 16.96875 -17.0625 17.585938 -17.441406 18.140625 -17.921875 L 18.640625 -17.5625 L 18.640625 -15.734375 L 14.578125 -15.734375 C 15.441406 -14.773438 15.875 -13.539062 15.875 -12.03125 C 15.875 -10.34375 15.253906 -8.953125 14.015625 -7.859375 C 12.785156 -6.773438 10.96875 -6.234375 8.5625 -6.234375 Z M 8.53125 -6.953125 C 9.488281 -6.953125 10.1875 -7.347656 10.625 -8.140625 C 11.070312 -8.929688 11.296875 -10.25 11.296875 -12.09375 C 11.296875 -13.945312 11.070312 -15.25 10.625 -16 C 10.1875 -16.757812 9.515625 -17.140625 8.609375 -17.140625 C 7.710938 -17.140625 7.035156 -16.75 6.578125 -15.96875 C 6.128906 -15.1875 5.90625 -13.875 5.90625 -12.03125 C 5.90625 -10.175781 6.113281 -8.863281 6.53125 -8.09375 C 6.945312 -7.332031 7.613281 -6.953125 8.53125 -6.953125 Z M 3.171875 3.03125 C 3.171875 4.4375 3.609375 5.5 4.484375 6.21875 C 5.359375 6.945312 6.742188 7.3125 8.640625 7.3125 C 10.628906 7.3125 12.128906 6.984375 13.140625 6.328125 C 14.148438 5.679688 14.65625 4.769531 14.65625 3.59375 C 14.65625 2.925781 14.40625 2.390625 13.90625 1.984375 C 13.414062 1.578125 12.582031 1.265625 11.40625 1.046875 L 4.890625 -0.1875 C 4.703125 -0.226562 4.507812 -0.273438 4.3125 -0.328125 C 3.976562 0.148438 3.703125 0.695312 3.484375 1.3125 C 3.273438 1.925781 3.171875 2.5 3.171875 3.03125 Z M 3.171875 3.03125 "/></g></g></g><g fill="#002f6c" fill-opacity="1"><g transform="translate(189.890911, 46.495709)"><g><path d="M 1.4375 -8.640625 L 1.4375 -9.609375 L 10.515625 -9.609375 L 10.515625 -8.640625 Z M 1.4375 -8.640625 "/></g></g></g><g fill="#002f6c" fill-opacity="1"><g transform="translate(201.842936, 46.495709)"><g><path d="M 13.171875 0.640625 C 10.847656 0.640625 8.742188 0.164062 6.859375 -0.78125 C 4.972656 -1.726562 3.476562 -3.132812 2.375 -5 C 1.269531 -6.875 0.71875 -9.164062 0.71875 -11.875 C 0.71875 -13.9375 1.050781 -15.75 1.71875 -17.3125 C 2.394531 -18.875 3.316406 -20.179688 4.484375 -21.234375 C 5.648438 -22.296875 6.992188 -23.085938 8.515625 -23.609375 C 10.035156 -24.140625 11.648438 -24.40625 13.359375 -24.40625 C 14.722656 -24.40625 15.976562 -24.25 17.125 -23.9375 C 18.28125 -23.625 19.363281 -23.191406 20.375 -22.640625 L 20.515625 -18.21875 L 20.15625 -18.21875 L 18.359375 -21.09375 C 18.117188 -21.550781 17.851562 -21.960938 17.5625 -22.328125 C 17.28125 -22.703125 16.921875 -22.988281 16.484375 -23.1875 C 16.128906 -23.351562 15.773438 -23.476562 15.421875 -23.5625 C 15.078125 -23.644531 14.640625 -23.6875 14.109375 -23.6875 C 12.722656 -23.6875 11.457031 -23.3125 10.3125 -22.5625 C 9.175781 -21.820312 8.265625 -20.59375 7.578125 -18.875 C 6.890625 -17.164062 6.546875 -14.820312 6.546875 -11.84375 C 6.546875 -8.894531 6.867188 -6.5625 7.515625 -4.84375 C 8.171875 -3.125 9.054688 -1.898438 10.171875 -1.171875 C 11.285156 -0.441406 12.539062 -0.078125 13.9375 -0.078125 C 14.695312 -0.078125 15.304688 -0.128906 15.765625 -0.234375 C 16.222656 -0.335938 16.679688 -0.5 17.140625 -0.71875 C 17.585938 -0.914062 17.929688 -1.195312 18.171875 -1.5625 C 18.421875 -1.9375 18.640625 -2.335938 18.828125 -2.765625 L 20.40625 -6.296875 L 20.765625 -6.296875 L 20.65625 -1.15625 C 19.65625 -0.625 18.53125 -0.191406 17.28125 0.140625 C 16.03125 0.472656 14.660156 0.640625 13.171875 0.640625 Z M 13.171875 0.640625 "/></g></g></g><g fill="#002f6c" fill-opacity="1"><g transform="translate(223.550981, 46.495709)"><g><path d="M 0.828125 0 L 0.828125 -0.359375 L 1.265625 -0.5 C 2.128906 -0.789062 2.5625 -1.390625 2.5625 -2.296875 L 2.5625 -21.5625 C 2.5625 -22.039062 2.460938 -22.40625 2.265625 -22.65625 C 2.078125 -22.914062 1.742188 -23.101562 1.265625 -23.21875 L 0.796875 -23.328125 L 0.796875 -23.6875 L 7.375 -25.234375 L 7.8125 -24.90625 L 7.671875 -19.875 L 7.671875 -7.5625 C 7.671875 -6.675781 7.675781 -5.789062 7.6875 -4.90625 C 7.695312 -4.03125 7.703125 -3.160156 7.703125 -2.296875 C 7.703125 -1.816406 7.796875 -1.425781 7.984375 -1.125 C 8.179688 -0.832031 8.507812 -0.613281 8.96875 -0.46875 L 9.4375 -0.359375 L 9.4375 0 Z M 0.828125 0 "/></g></g></g><g fill="#002f6c" fill-opacity="1"><g transform="translate(233.847012, 46.495709)"><g><path d="M 5.96875 0.546875 C 4.582031 0.546875 3.414062 0.148438 2.46875 -0.640625 C 1.519531 -1.441406 1.046875 -2.582031 1.046875 -4.0625 C 1.046875 -5.195312 1.617188 -6.238281 2.765625 -7.1875 C 3.921875 -8.132812 5.734375 -8.847656 8.203125 -9.328125 C 8.585938 -9.398438 9.019531 -9.476562 9.5 -9.5625 C 9.976562 -9.644531 10.484375 -9.734375 11.015625 -9.828125 L 11.015625 -12.671875 C 11.015625 -14.304688 10.816406 -15.453125 10.421875 -16.109375 C 10.023438 -16.765625 9.40625 -17.09375 8.5625 -17.09375 C 7.988281 -17.09375 7.535156 -16.90625 7.203125 -16.53125 C 6.867188 -16.164062 6.648438 -15.523438 6.546875 -14.609375 L 6.484375 -14.21875 C 6.429688 -13.1875 6.175781 -12.429688 5.71875 -11.953125 C 5.269531 -11.472656 4.707031 -11.234375 4.03125 -11.234375 C 3.40625 -11.234375 2.890625 -11.425781 2.484375 -11.8125 C 2.078125 -12.195312 1.875 -12.710938 1.875 -13.359375 C 1.875 -14.335938 2.210938 -15.160156 2.890625 -15.828125 C 3.578125 -16.503906 4.484375 -17.007812 5.609375 -17.34375 C 6.742188 -17.6875 7.96875 -17.859375 9.28125 -17.859375 C 11.414062 -17.859375 13.066406 -17.332031 14.234375 -16.28125 C 15.398438 -15.238281 15.984375 -13.546875 15.984375 -11.203125 L 15.984375 -3.234375 C 15.984375 -2.160156 16.488281 -1.625 17.5 -1.625 L 18.28125 -1.625 L 18.609375 -1.328125 C 18.148438 -0.753906 17.648438 -0.3125 17.109375 0 C 16.578125 0.3125 15.816406 0.46875 14.828125 0.46875 C 13.773438 0.46875 12.941406 0.222656 12.328125 -0.265625 C 11.710938 -0.765625 11.3125 -1.421875 11.125 -2.234375 C 10.40625 -1.460938 9.664062 -0.804688 8.90625 -0.265625 C 8.15625 0.273438 7.175781 0.546875 5.96875 0.546875 Z M 8.171875 -1.65625 C 8.648438 -1.65625 9.097656 -1.769531 9.515625 -2 C 9.941406 -2.226562 10.441406 -2.582031 11.015625 -3.0625 L 11.015625 -9.109375 C 10.773438 -9.054688 10.535156 -9.003906 10.296875 -8.953125 C 10.054688 -8.910156 9.78125 -8.863281 9.46875 -8.8125 C 8.363281 -8.53125 7.476562 -8.046875 6.8125 -7.359375 C 6.15625 -6.679688 5.828125 -5.765625 5.828125 -4.609375 C 5.828125 -3.617188 6.054688 -2.878906 6.515625 -2.390625 C 6.972656 -1.898438 7.523438 -1.65625 8.171875 -1.65625 Z M 8.171875 -1.65625 "/></g></g></g><g fill="#002f6c" fill-opacity="1"><g transform="translate(252.495021, 46.495709)"><g><path d="M 6.953125 0.546875 C 5.773438 0.546875 4.71875 0.40625 3.78125 0.125 C 2.84375 -0.144531 1.976562 -0.488281 1.1875 -0.90625 L 1.21875 -5.1875 L 1.578125 -5.1875 L 2.8125 -3.03125 C 3.332031 -2.0625 3.910156 -1.34375 4.546875 -0.875 C 5.191406 -0.414062 6.003906 -0.1875 6.984375 -0.1875 C 8.140625 -0.1875 9.070312 -0.441406 9.78125 -0.953125 C 10.488281 -1.472656 10.84375 -2.164062 10.84375 -3.03125 C 10.84375 -3.820312 10.585938 -4.46875 10.078125 -4.96875 C 9.578125 -5.46875 8.640625 -5.925781 7.265625 -6.34375 L 5.765625 -6.796875 C 4.296875 -7.234375 3.140625 -7.90625 2.296875 -8.8125 C 1.460938 -9.726562 1.046875 -10.847656 1.046875 -12.171875 C 1.046875 -13.753906 1.664062 -15.097656 2.90625 -16.203125 C 4.15625 -17.304688 5.945312 -17.859375 8.28125 -17.859375 C 9.21875 -17.859375 10.097656 -17.753906 10.921875 -17.546875 C 11.753906 -17.347656 12.550781 -17.039062 13.3125 -16.625 L 13.109375 -12.75 L 12.75 -12.75 L 11.484375 -14.96875 C 11.023438 -15.757812 10.570312 -16.316406 10.125 -16.640625 C 9.6875 -16.972656 9.023438 -17.140625 8.140625 -17.140625 C 7.316406 -17.140625 6.546875 -16.910156 5.828125 -16.453125 C 5.109375 -15.992188 4.75 -15.347656 4.75 -14.515625 C 4.75 -13.691406 5.054688 -13.039062 5.671875 -12.5625 C 6.285156 -12.082031 7.191406 -11.640625 8.390625 -11.234375 L 10.015625 -10.765625 C 11.734375 -10.234375 12.960938 -9.503906 13.703125 -8.578125 C 14.453125 -7.660156 14.828125 -6.550781 14.828125 -5.25 C 14.828125 -3.5 14.132812 -2.09375 12.75 -1.03125 C 11.375 0.0195312 9.441406 0.546875 6.953125 0.546875 Z M 6.953125 0.546875 "/></g></g></g><g fill="#002f6c" fill-opacity="1"><g transform="translate(268.19105, 46.495709)"><g><path d="M 6.953125 0.546875 C 5.773438 0.546875 4.71875 0.40625 3.78125 0.125 C 2.84375 -0.144531 1.976562 -0.488281 1.1875 -0.90625 L 1.21875 -5.1875 L 1.578125 -5.1875 L 2.8125 -3.03125 C 3.332031 -2.0625 3.910156 -1.34375 4.546875 -0.875 C 5.191406 -0.414062 6.003906 -0.1875 6.984375 -0.1875 C 8.140625 -0.1875 9.070312 -0.441406 9.78125 -0.953125 C 10.488281 -1.472656 10.84375 -2.164062 10.84375 -3.03125 C 10.84375 -3.820312 10.585938 -4.46875 10.078125 -4.96875 C 9.578125 -5.46875 8.640625 -5.925781 7.265625 -6.34375 L 5.765625 -6.796875 C 4.296875 -7.234375 3.140625 -7.90625 2.296875 -8.8125 C 1.460938 -9.726562 1.046875 -10.847656 1.046875 -12.171875 C 1.046875 -13.753906 1.664062 -15.097656 2.90625 -16.203125 C 4.15625 -17.304688 5.945312 -17.859375 8.28125 -17.859375 C 9.21875 -17.859375 10.097656 -17.753906 10.921875 -17.546875 C 11.753906 -17.347656 12.550781 -17.039062 13.3125 -16.625 L 13.109375 -12.75 L 12.75 -12.75 L 11.484375 -14.96875 C 11.023438 -15.757812 10.570312 -16.316406 10.125 -16.640625 C 9.6875 -16.972656 9.023438 -17.140625 8.140625 -17.140625 C 7.316406 -17.140625 6.546875 -16.910156 5.828125 -16.453125 C 5.109375 -15.992188 4.75 -15.347656 4.75 -14.515625 C 4.75 -13.691406 5.054688 -13.039062 5.671875 -12.5625 C 6.285156 -12.082031 7.191406 -11.640625 8.390625 -11.234375 L 10.015625 -10.765625 C 11.734375 -10.234375 12.960938 -9.503906 13.703125 -8.578125 C 14.453125 -7.660156 14.828125 -6.550781 14.828125 -5.25 C 14.828125 -3.5 14.132812 -2.09375 12.75 -1.03125 C 11.375 0.0195312 9.441406 0.546875 6.953125 0.546875 Z M 6.953125 0.546875 "/></g></g></g><g fill="#002f6c" fill-opacity="1"><g transform="translate(283.88708, 46.495709)"><g><path d="M 9.75 -17.859375 C 11.3125 -17.859375 12.644531 -17.539062 13.75 -16.90625 C 14.851562 -16.269531 15.695312 -15.40625 16.28125 -14.3125 C 16.875 -13.21875 17.171875 -11.972656 17.171875 -10.578125 C 17.171875 -10.316406 17.15625 -10.046875 17.125 -9.765625 C 17.101562 -9.492188 17.054688 -9.25 16.984375 -9.03125 L 6.265625 -9.03125 C 6.285156 -6.4375 6.742188 -4.570312 7.640625 -3.4375 C 8.546875 -2.300781 9.882812 -1.734375 11.65625 -1.734375 C 12.863281 -1.734375 13.835938 -1.921875 14.578125 -2.296875 C 15.328125 -2.679688 16.023438 -3.25 16.671875 -4 L 17.03125 -3.671875 C 16.28125 -2.347656 15.285156 -1.3125 14.046875 -0.5625 C 12.816406 0.175781 11.335938 0.546875 9.609375 0.546875 C 7.910156 0.546875 6.398438 0.179688 5.078125 -0.546875 C 3.753906 -1.285156 2.71875 -2.335938 1.96875 -3.703125 C 1.226562 -5.078125 0.859375 -6.710938 0.859375 -8.609375 C 0.859375 -10.578125 1.289062 -12.25 2.15625 -13.625 C 3.019531 -15.007812 4.128906 -16.0625 5.484375 -16.78125 C 6.847656 -17.5 8.269531 -17.859375 9.75 -17.859375 Z M 9.640625 -17.140625 C 8.953125 -17.140625 8.359375 -16.925781 7.859375 -16.5 C 7.367188 -16.082031 6.984375 -15.335938 6.703125 -14.265625 C 6.429688 -13.203125 6.285156 -11.695312 6.265625 -9.75 L 12.421875 -9.75 C 12.660156 -12.375 12.5625 -14.257812 12.125 -15.40625 C 11.695312 -16.5625 10.867188 -17.140625 9.640625 -17.140625 Z M 9.640625 -17.140625 "/></g></g></g><g fill="#002f6c" fill-opacity="1"><g transform="translate(302.139123, 46.495709)"><g><path d="M 6.953125 0.546875 C 5.773438 0.546875 4.71875 0.40625 3.78125 0.125 C 2.84375 -0.144531 1.976562 -0.488281 1.1875 -0.90625 L 1.21875 -5.1875 L 1.578125 -5.1875 L 2.8125 -3.03125 C 3.332031 -2.0625 3.910156 -1.34375 4.546875 -0.875 C 5.191406 -0.414062 6.003906 -0.1875 6.984375 -0.1875 C 8.140625 -0.1875 9.070312 -0.441406 9.78125 -0.953125 C 10.488281 -1.472656 10.84375 -2.164062 10.84375 -3.03125 C 10.84375 -3.820312 10.585938 -4.46875 10.078125 -4.96875 C 9.578125 -5.46875 8.640625 -5.925781 7.265625 -6.34375 L 5.765625 -6.796875 C 4.296875 -7.234375 3.140625 -7.90625 2.296875 -8.8125 C 1.460938 -9.726562 1.046875 -10.847656 1.046875 -12.171875 C 1.046875 -13.753906 1.664062 -15.097656 2.90625 -16.203125 C 4.15625 -17.304688 5.945312 -17.859375 8.28125 -17.859375 C 9.21875 -17.859375 10.097656 -17.753906 10.921875 -17.546875 C 11.753906 -17.347656 12.550781 -17.039062 13.3125 -16.625 L 13.109375 -12.75 L 12.75 -12.75 L 11.484375 -14.96875 C 11.023438 -15.757812 10.570312 -16.316406 10.125 -16.640625 C 9.6875 -16.972656 9.023438 -17.140625 8.140625 -17.140625 C 7.316406 -17.140625 6.546875 -16.910156 5.828125 -16.453125 C 5.109375 -15.992188 4.75 -15.347656 4.75 -14.515625 C 4.75 -13.691406 5.054688 -13.039062 5.671875 -12.5625 C 6.285156 -12.082031 7.191406 -11.640625 8.390625 -11.234375 L 10.015625 -10.765625 C 11.734375 -10.234375 12.960938 -9.503906 13.703125 -8.578125 C 14.453125 -7.660156 14.828125 -6.550781 14.828125 -5.25 C 14.828125 -3.5 14.132812 -2.09375 12.75 -1.03125 C 11.375 0.0195312 9.441406 0.546875 6.953125 0.546875 Z M 6.953125 0.546875 "/></g></g></g><g fill="#002f6c" fill-opacity="1"><g transform="translate(317.844266, 46.495709)"><g/></g></g><g fill="#002f6c" fill-opacity="1"><g transform="translate(155.621616, 102.745706)"><g><path d="M 0.796875 0 L 0.796875 -0.359375 L 1.265625 -0.46875 C 1.710938 -0.582031 2.066406 -0.789062 2.328125 -1.09375 C 2.597656 -1.394531 2.734375 -1.785156 2.734375 -2.265625 C 2.734375 -3.148438 2.738281 -4.03125 2.75 -4.90625 C 2.757812 -5.789062 2.765625 -6.675781 2.765625 -7.5625 L 2.765625 -16.59375 L 0.75 -16.59375 L 0.75 -16.984375 L 1.546875 -17.140625 C 2.023438 -17.179688 2.375 -17.347656 2.59375 -17.640625 C 2.8125 -17.929688 2.96875 -18.328125 3.0625 -18.828125 C 3.300781 -19.765625 3.65625 -20.585938 4.125 -21.296875 C 4.59375 -22.003906 5.125 -22.65625 5.71875 -23.25 C 6.632812 -24.113281 7.601562 -24.71875 8.625 -25.0625 C 9.644531 -25.414062 10.644531 -25.59375 11.625 -25.59375 C 12.582031 -25.59375 13.457031 -25.394531 14.25 -25 C 15.039062 -24.601562 15.4375 -23.953125 15.4375 -23.046875 C 15.4375 -22.390625 15.242188 -21.875 14.859375 -21.5 C 14.484375 -21.132812 13.945312 -20.953125 13.25 -20.953125 C 12.675781 -20.953125 12.144531 -21.109375 11.65625 -21.421875 C 11.175781 -21.734375 10.710938 -22.285156 10.265625 -23.078125 L 9.75 -23.6875 C 9.488281 -24.019531 9.222656 -24.179688 8.953125 -24.171875 C 8.691406 -24.160156 8.503906 -23.960938 8.390625 -23.578125 C 8.222656 -22.734375 8.097656 -21.75 8.015625 -20.625 C 7.929688 -19.5 7.890625 -18.394531 7.890625 -17.3125 L 11.921875 -17.3125 L 11.921875 -16.59375 L 7.890625 -16.59375 L 7.890625 -2.34375 C 7.890625 -1.425781 8.367188 -0.835938 9.328125 -0.578125 L 10.21875 -0.359375 L 10.21875 0 Z M 0.796875 0 "/></g></g></g><g fill="#002f6c" fill-opacity="1"><g transform="translate(167.969641, 102.745706)"><g><path d="M 9.828125 0.546875 C 8.003906 0.546875 6.421875 0.164062 5.078125 -0.59375 C 3.734375 -1.351562 2.691406 -2.425781 1.953125 -3.8125 C 1.222656 -5.207031 0.859375 -6.84375 0.859375 -8.71875 C 0.859375 -10.582031 1.25 -12.195312 2.03125 -13.5625 C 2.8125 -14.9375 3.878906 -15.992188 5.234375 -16.734375 C 6.585938 -17.484375 8.117188 -17.859375 9.828125 -17.859375 C 11.535156 -17.859375 13.0625 -17.488281 14.40625 -16.75 C 15.75 -16.019531 16.804688 -14.972656 17.578125 -13.609375 C 18.359375 -12.242188 18.75 -10.613281 18.75 -8.71875 C 18.75 -6.820312 18.382812 -5.179688 17.65625 -3.796875 C 16.925781 -2.421875 15.894531 -1.351562 14.5625 -0.59375 C 13.226562 0.164062 11.648438 0.546875 9.828125 0.546875 Z M 9.828125 -0.1875 C 10.671875 -0.1875 11.34375 -0.425781 11.84375 -0.90625 C 12.34375 -1.382812 12.707031 -2.234375 12.9375 -3.453125 C 13.164062 -4.679688 13.28125 -6.410156 13.28125 -8.640625 C 13.28125 -10.898438 13.164062 -12.640625 12.9375 -13.859375 C 12.707031 -15.085938 12.34375 -15.941406 11.84375 -16.421875 C 11.34375 -16.898438 10.671875 -17.140625 9.828125 -17.140625 C 8.984375 -17.140625 8.300781 -16.898438 7.78125 -16.421875 C 7.269531 -15.941406 6.898438 -15.085938 6.671875 -13.859375 C 6.453125 -12.640625 6.34375 -10.898438 6.34375 -8.640625 C 6.34375 -6.410156 6.453125 -4.679688 6.671875 -3.453125 C 6.898438 -2.234375 7.269531 -1.382812 7.78125 -0.90625 C 8.300781 -0.425781 8.984375 -0.1875 9.828125 -0.1875 Z M 9.828125 -0.1875 "/></g></g></g><g fill="#002f6c" fill-opacity="1"><g transform="translate(187.589677, 102.745706)"><g><path d="M 0.71875 0 L 0.71875 -0.359375 L 1.265625 -0.5 C 1.742188 -0.644531 2.070312 -0.859375 2.25 -1.140625 C 2.425781 -1.429688 2.515625 -1.804688 2.515625 -2.265625 L 2.515625 -13.53125 C 2.515625 -14.0625 2.425781 -14.453125 2.25 -14.703125 C 2.070312 -14.953125 1.742188 -15.128906 1.265625 -15.234375 L 0.71875 -15.375 L 0.71875 -15.734375 L 6.90625 -17.8125 L 7.265625 -17.453125 L 7.59375 -14.359375 L 7.59375 -14.078125 C 7.925781 -14.742188 8.363281 -15.359375 8.90625 -15.921875 C 9.445312 -16.492188 10.046875 -16.957031 10.703125 -17.3125 C 11.367188 -17.675781 12.023438 -17.859375 12.671875 -17.859375 C 13.585938 -17.859375 14.285156 -17.601562 14.765625 -17.09375 C 15.242188 -16.59375 15.484375 -15.957031 15.484375 -15.1875 C 15.484375 -14.375 15.25 -13.742188 14.78125 -13.296875 C 14.3125 -12.859375 13.753906 -12.640625 13.109375 -12.640625 C 12.097656 -12.640625 11.207031 -13.140625 10.4375 -14.140625 L 10.375 -14.21875 C 10.132812 -14.550781 9.859375 -14.734375 9.546875 -14.765625 C 9.234375 -14.804688 8.941406 -14.660156 8.671875 -14.328125 C 8.429688 -14.109375 8.234375 -13.847656 8.078125 -13.546875 C 7.921875 -13.253906 7.769531 -12.914062 7.625 -12.53125 L 7.625 -2.484375 C 7.625 -1.523438 8.046875 -0.925781 8.890625 -0.6875 L 10.046875 -0.359375 L 10.046875 0 Z M 0.71875 0 "/></g></g></g><g fill="#002f6c" fill-opacity="1"><g transform="translate(203.469273, 102.745706)"><g/></g></g><g fill="#002f6c" fill-opacity="1"><g transform="translate(87.46537, 158.995703)"><g><path d="M 8.53125 0.640625 C 7.207031 0.640625 5.863281 0.476562 4.5 0.15625 C 3.132812 -0.164062 1.992188 -0.585938 1.078125 -1.109375 L 1.265625 -6.015625 L 1.625 -6.015625 L 2.734375 -3.671875 C 3.066406 -2.992188 3.425781 -2.394531 3.8125 -1.875 C 4.195312 -1.363281 4.726562 -0.96875 5.40625 -0.6875 C 5.882812 -0.445312 6.34375 -0.285156 6.78125 -0.203125 C 7.226562 -0.117188 7.726562 -0.078125 8.28125 -0.078125 C 9.738281 -0.078125 10.894531 -0.472656 11.75 -1.265625 C 12.601562 -2.054688 13.03125 -3.070312 13.03125 -4.3125 C 13.03125 -5.488281 12.738281 -6.40625 12.15625 -7.0625 C 11.582031 -7.726562 10.660156 -8.375 9.390625 -9 L 7.921875 -9.640625 C 5.859375 -10.554688 4.242188 -11.609375 3.078125 -12.796875 C 1.910156 -13.984375 1.328125 -15.5625 1.328125 -17.53125 C 1.328125 -18.945312 1.691406 -20.171875 2.421875 -21.203125 C 3.160156 -22.234375 4.179688 -23.023438 5.484375 -23.578125 C 6.796875 -24.128906 8.328125 -24.40625 10.078125 -24.40625 C 11.347656 -24.40625 12.550781 -24.238281 13.6875 -23.90625 C 14.832031 -23.570312 15.828125 -23.113281 16.671875 -22.53125 L 16.453125 -18.21875 L 16.09375 -18.21875 L 14.609375 -20.921875 C 14.203125 -21.753906 13.796875 -22.34375 13.390625 -22.6875 C 12.984375 -23.039062 12.515625 -23.289062 11.984375 -23.4375 C 11.671875 -23.53125 11.382812 -23.59375 11.125 -23.625 C 10.863281 -23.664062 10.523438 -23.6875 10.109375 -23.6875 C 8.890625 -23.6875 7.859375 -23.332031 7.015625 -22.625 C 6.179688 -21.914062 5.765625 -20.960938 5.765625 -19.765625 C 5.765625 -18.535156 6.085938 -17.554688 6.734375 -16.828125 C 7.378906 -16.097656 8.328125 -15.445312 9.578125 -14.875 L 11.234375 -14.140625 C 13.535156 -13.140625 15.191406 -12.066406 16.203125 -10.921875 C 17.210938 -9.785156 17.71875 -8.316406 17.71875 -6.515625 C 17.71875 -4.398438 16.914062 -2.675781 15.3125 -1.34375 C 13.71875 -0.0195312 11.457031 0.640625 8.53125 0.640625 Z M 8.53125 0.640625 "/></g></g></g><g fill="#002f6c" fill-opacity="1"><g transform="translate(106.221411, 158.995703)"><g><path d="M 5.609375 0 L 5.609375 -0.359375 L 7.09375 -0.71875 C 8.070312 -0.9375 8.5625 -1.535156 8.5625 -2.515625 L 8.5625 -23.046875 L 5.515625 -23.046875 C 4.617188 -23.046875 3.976562 -22.8125 3.59375 -22.34375 C 3.21875 -21.875 2.8125 -21.226562 2.375 -20.40625 L 1.078125 -17.890625 L 0.71875 -17.890625 L 0.90625 -23.765625 L 21.671875 -23.765625 L 21.8125 -17.890625 L 21.453125 -17.890625 L 20.15625 -20.40625 C 19.75 -21.226562 19.351562 -21.875 18.96875 -22.34375 C 18.582031 -22.8125 17.945312 -23.046875 17.0625 -23.046875 L 14 -23.046875 L 14 -2.515625 C 14 -1.535156 14.492188 -0.9375 15.484375 -0.71875 L 16.953125 -0.359375 L 16.953125 0 Z M 5.609375 0 "/></g></g></g><g fill="#002f6c" fill-opacity="1"><g transform="translate(128.793451, 158.995703)"><g><path d="M 0.796875 0 L 0.796875 -0.359375 L 1.546875 -0.640625 C 2.316406 -0.953125 2.703125 -1.566406 2.703125 -2.484375 L 2.703125 -21.28125 C 2.703125 -22.238281 2.316406 -22.847656 1.546875 -23.109375 L 0.796875 -23.40625 L 0.796875 -23.765625 L 10.296875 -23.765625 C 12.835938 -23.765625 15.023438 -23.289062 16.859375 -22.34375 C 18.703125 -21.394531 20.117188 -20.035156 21.109375 -18.265625 C 22.109375 -16.503906 22.609375 -14.390625 22.609375 -11.921875 C 22.609375 -9.398438 22.066406 -7.25 20.984375 -5.46875 C 19.910156 -3.695312 18.40625 -2.34375 16.46875 -1.40625 C 14.539062 -0.46875 12.265625 0 9.640625 0 Z M 8.09375 -0.71875 L 9.640625 -0.71875 C 11.367188 -0.71875 12.757812 -1.054688 13.8125 -1.734375 C 14.875 -2.421875 15.648438 -3.570312 16.140625 -5.1875 C 16.640625 -6.8125 16.890625 -9.039062 16.890625 -11.875 C 16.890625 -14.707031 16.640625 -16.929688 16.140625 -18.546875 C 15.648438 -20.171875 14.890625 -21.328125 13.859375 -22.015625 C 12.828125 -22.703125 11.472656 -23.046875 9.796875 -23.046875 L 8.09375 -23.046875 Z M 8.09375 -0.71875 "/></g></g></g><g fill="#002f6c" fill-opacity="1"><g transform="translate(152.121498, 158.995703)"><g/></g></g><g fill="#002f6c" fill-opacity="1"><g transform="translate(159.969512, 158.995703)"><g><path d="M 9.71875 0.546875 C 7.15625 0.546875 5.085938 -0.304688 3.515625 -2.015625 C 1.941406 -3.722656 1.15625 -6.125 1.15625 -9.21875 C 1.15625 -11.0625 1.515625 -12.785156 2.234375 -14.390625 C 2.953125 -16.003906 3.976562 -17.445312 5.3125 -18.71875 C 6.644531 -19.988281 8.238281 -21.023438 10.09375 -21.828125 C 11.957031 -22.640625 14.03125 -23.148438 16.3125 -23.359375 L 16.421875 -22.828125 C 13.492188 -22.222656 11.265625 -21.113281 9.734375 -19.5 C 8.210938 -17.894531 7.210938 -15.710938 6.734375 -12.953125 C 8.117188 -13.773438 9.675781 -14.1875 11.40625 -14.1875 C 12.875 -14.1875 14.085938 -13.882812 15.046875 -13.28125 C 16.003906 -12.6875 16.726562 -11.878906 17.21875 -10.859375 C 17.71875 -9.835938 17.96875 -8.691406 17.96875 -7.421875 C 17.96875 -5.710938 17.5625 -4.265625 16.75 -3.078125 C 15.945312 -1.890625 14.914062 -0.988281 13.65625 -0.375 C 12.394531 0.238281 11.082031 0.546875 9.71875 0.546875 Z M 6.40625 -8.453125 C 6.40625 -5.484375 6.660156 -3.363281 7.171875 -2.09375 C 7.691406 -0.820312 8.503906 -0.1875 9.609375 -0.1875 C 10.710938 -0.1875 11.519531 -0.707031 12.03125 -1.75 C 12.550781 -2.789062 12.8125 -4.535156 12.8125 -6.984375 C 12.8125 -9.242188 12.546875 -10.816406 12.015625 -11.703125 C 11.492188 -12.585938 10.632812 -13.03125 9.4375 -13.03125 C 8.425781 -13.03125 7.488281 -12.78125 6.625 -12.28125 C 6.476562 -11.125 6.40625 -9.847656 6.40625 -8.453125 Z M 6.40625 -8.453125 "/></g></g></g><g fill="#002f6c" fill-opacity="1"><g transform="translate(199.391148, 158.995703)"><g/></g></g><g fill="#002f6c" fill-opacity="1"><g transform="translate(207.239162, 158.995703)"><g><path d="M 7.5625 0.546875 C 6.019531 0.546875 4.820312 0.160156 3.96875 -0.609375 C 3.125 -1.378906 2.703125 -2.601562 2.703125 -4.28125 L 2.703125 -16.59375 L 0.21875 -16.59375 L 0.21875 -16.953125 L 1.078125 -17.09375 C 1.828125 -17.269531 2.46875 -17.507812 3 -17.8125 C 3.539062 -18.125 4.078125 -18.546875 4.609375 -19.078125 L 7.5625 -22.359375 L 7.921875 -22.359375 L 7.8125 -17.3125 L 11.84375 -17.3125 L 11.84375 -16.59375 L 7.78125 -16.59375 L 7.78125 -3.640625 C 7.78125 -2.796875 7.960938 -2.15625 8.328125 -1.71875 C 8.703125 -1.289062 9.175781 -1.078125 9.75 -1.078125 C 10.257812 -1.078125 10.703125 -1.203125 11.078125 -1.453125 C 11.460938 -1.710938 11.847656 -2.054688 12.234375 -2.484375 L 12.59375 -2.125 C 12.113281 -1.3125 11.453125 -0.660156 10.609375 -0.171875 C 9.773438 0.304688 8.757812 0.546875 7.5625 0.546875 Z M 7.5625 0.546875 "/></g></g></g><g fill="#002f6c" fill-opacity="1"><g transform="translate(220.235186, 158.995703)"><g><path d="M 9.828125 0.546875 C 8.003906 0.546875 6.421875 0.164062 5.078125 -0.59375 C 3.734375 -1.351562 2.691406 -2.425781 1.953125 -3.8125 C 1.222656 -5.207031 0.859375 -6.84375 0.859375 -8.71875 C 0.859375 -10.582031 1.25 -12.195312 2.03125 -13.5625 C 2.8125 -14.9375 3.878906 -15.992188 5.234375 -16.734375 C 6.585938 -17.484375 8.117188 -17.859375 9.828125 -17.859375 C 11.535156 -17.859375 13.0625 -17.488281 14.40625 -16.75 C 15.75 -16.019531 16.804688 -14.972656 17.578125 -13.609375 C 18.359375 -12.242188 18.75 -10.613281 18.75 -8.71875 C 18.75 -6.820312 18.382812 -5.179688 17.65625 -3.796875 C 16.925781 -2.421875 15.894531 -1.351562 14.5625 -0.59375 C 13.226562 0.164062 11.648438 0.546875 9.828125 0.546875 Z M 9.828125 -0.1875 C 10.671875 -0.1875 11.34375 -0.425781 11.84375 -0.90625 C 12.34375 -1.382812 12.707031 -2.234375 12.9375 -3.453125 C 13.164062 -4.679688 13.28125 -6.410156 13.28125 -8.640625 C 13.28125 -10.898438 13.164062 -12.640625 12.9375 -13.859375 C 12.707031 -15.085938 12.34375 -15.941406 11.84375 -16.421875 C 11.34375 -16.898438 10.671875 -17.140625 9.828125 -17.140625 C 8.984375 -17.140625 8.300781 -16.898438 7.78125 -16.421875 C 7.269531 -15.941406 6.898438 -15.085938 6.671875 -13.859375 C 6.453125 -12.640625 6.34375 -10.898438 6.34375 -8.640625 C 6.34375 -6.410156 6.453125 -4.679688 6.671875 -3.453125 C 6.898438 -2.234375 7.269531 -1.382812 7.78125 -0.90625 C 8.300781 -0.425781 8.984375 -0.1875 9.828125 -0.1875 Z M 9.828125 -0.1875 "/></g></g></g><g fill="#002f6c" fill-opacity="1"><g transform="translate(239.855222, 158.995703)"><g/></g></g><g fill="#002f6c" fill-opacity="1"><g transform="translate(247.703236, 158.995703)"><g><path d="M 1.015625 0 L 1.015625 -0.359375 L 2.40625 -0.796875 C 3.320312 -1.109375 3.78125 -1.71875 3.78125 -2.625 L 3.78125 -20.046875 L 0.859375 -19.65625 L 0.859375 -20.125 C 2.273438 -20.414062 3.632812 -20.820312 4.9375 -21.34375 C 6.25 -21.875 7.484375 -22.488281 8.640625 -23.1875 L 9.109375 -22.859375 L 8.96875 -17.71875 L 8.96875 -2.625 C 8.96875 -1.6875 9.421875 -1.085938 10.328125 -0.828125 L 11.8125 -0.359375 L 11.8125 0 Z M 1.015625 0 "/></g></g></g><g fill="#002f6c" fill-opacity="1"><g transform="translate(260.303261, 158.995703)"><g><path d="M 2.484375 -16.78125 L 2.734375 -21.890625 C 3.453125 -22.296875 4.34375 -22.640625 5.40625 -22.921875 C 6.476562 -23.210938 7.6875 -23.359375 9.03125 -23.359375 C 10.957031 -23.359375 12.503906 -23.085938 13.671875 -22.546875 C 14.847656 -22.015625 15.710938 -21.28125 16.265625 -20.34375 C 16.816406 -19.40625 17.09375 -18.347656 17.09375 -17.171875 C 17.09375 -15.515625 16.289062 -13.898438 14.6875 -12.328125 C 13.082031 -10.753906 10.882812 -9.019531 8.09375 -7.125 C 7.570312 -6.738281 6.945312 -6.269531 6.21875 -5.71875 C 5.5 -5.164062 4.832031 -4.628906 4.21875 -4.109375 L 17.71875 -4.109375 L 17.71875 0 L 1.875 0 L 1.875 -3.03125 C 2.738281 -3.863281 3.582031 -4.691406 4.40625 -5.515625 C 5.238281 -6.347656 6.023438 -7.140625 6.765625 -7.890625 C 8.492188 -9.660156 9.785156 -11.234375 10.640625 -12.609375 C 11.492188 -13.992188 11.921875 -15.476562 11.921875 -17.0625 C 11.921875 -18.71875 11.617188 -20.054688 11.015625 -21.078125 C 10.410156 -22.097656 9.507812 -22.609375 8.3125 -22.609375 C 7.570312 -22.609375 6.882812 -22.421875 6.25 -22.046875 C 5.613281 -21.671875 5.054688 -21.03125 4.578125 -20.125 L 2.84375 -16.78125 Z M 2.484375 -16.78125 "/></g></g></g><g fill="#002f6c" fill-opacity="1"><g transform="translate(179.059114, 143.245703)"><g><path d="M 4.53125 0.328125 C 3.613281 0.328125 2.898438 0.0976562 2.390625 -0.359375 C 1.878906 -0.828125 1.625 -1.5625 1.625 -2.5625 L 1.625 -9.953125 L 0.125 -9.953125 L 0.125 -10.171875 L 0.640625 -10.25 C 1.085938 -10.351562 1.472656 -10.5 1.796875 -10.6875 C 2.117188 -10.875 2.441406 -11.125 2.765625 -11.4375 L 4.53125 -13.40625 L 4.75 -13.40625 L 4.6875 -10.390625 L 7.109375 -10.390625 L 7.109375 -9.953125 L 4.671875 -9.953125 L 4.671875 -2.1875 C 4.671875 -1.675781 4.78125 -1.289062 5 -1.03125 C 5.21875 -0.769531 5.503906 -0.640625 5.859375 -0.640625 C 6.160156 -0.640625 6.425781 -0.710938 6.65625 -0.859375 C 6.882812 -1.015625 7.113281 -1.222656 7.34375 -1.484375 L 7.5625 -1.28125 C 7.269531 -0.789062 6.867188 -0.398438 6.359375 -0.109375 C 5.859375 0.179688 5.25 0.328125 4.53125 0.328125 Z M 4.53125 0.328125 "/></g></g></g><g fill="#002f6c" fill-opacity="1"><g transform="translate(186.855882, 143.245703)"><g><path d="M 0.5 0 L 0.5 -0.21875 L 0.75 -0.296875 C 1.269531 -0.472656 1.53125 -0.832031 1.53125 -1.375 L 1.53125 -12.90625 C 1.53125 -13.207031 1.476562 -13.429688 1.375 -13.578125 C 1.28125 -13.722656 1.085938 -13.832031 0.796875 -13.90625 L 0.46875 -14 L 0.46875 -14.203125 L 4.28125 -15.140625 L 4.625 -14.9375 L 4.53125 -11.890625 L 4.53125 -9.203125 C 5.039062 -9.617188 5.585938 -9.972656 6.171875 -10.265625 C 6.753906 -10.554688 7.394531 -10.703125 8.09375 -10.703125 C 9.03125 -10.703125 9.773438 -10.4375 10.328125 -9.90625 C 10.878906 -9.375 11.15625 -8.554688 11.15625 -7.453125 L 11.15625 -1.359375 C 11.15625 -1.066406 11.210938 -0.832031 11.328125 -0.65625 C 11.453125 -0.488281 11.65625 -0.363281 11.9375 -0.28125 L 12.109375 -0.21875 L 12.109375 0 L 7.0625 0 L 7.0625 -0.21875 L 7.3125 -0.28125 C 7.832031 -0.457031 8.09375 -0.820312 8.09375 -1.375 L 8.09375 -8.15625 C 8.09375 -8.738281 7.992188 -9.132812 7.796875 -9.34375 C 7.609375 -9.5625 7.269531 -9.671875 6.78125 -9.671875 C 6.46875 -9.671875 6.125 -9.609375 5.75 -9.484375 C 5.375 -9.367188 4.988281 -9.160156 4.59375 -8.859375 L 4.59375 -1.34375 C 4.59375 -0.78125 4.851562 -0.421875 5.375 -0.265625 L 5.546875 -0.21875 L 5.546875 0 Z M 0.5 0 "/></g></g></g></svg>