<svg xmlns="http://www.w3.org/2000/svg" width="484" height="240" viewBox="0 0 363 180"><path fill="none" stroke="#fff" stroke-width="3" d="M1.496 179.063V.836m359.449 178.227V.836M.375 178.41h95.266M.375 2.16h95.266M266.07 177.75h95.266M266.07 1.5h95.266"/><path fill="#002f6c" d="M54.418 47.136q-3.487-.002-6.312-1.422-2.831-1.417-4.484-4.218-1.658-2.81-1.657-6.875-.001-3.094 1-5.438 1.014-2.341 2.766-3.922a11.4 11.4 0 0 1 4.031-2.375q2.279-.796 4.844-.797 2.044 0 3.766.47 1.733.469 3.25 1.296l.14 4.422h-.36l-1.796-2.875a8 8 0 0 0-.797-1.234 2.74 2.74 0 0 0-1.078-.86 6 6 0 0 0-1.063-.375q-.514-.124-1.312-.125a6.8 6.8 0 0 0-3.797 1.125q-1.704 1.111-2.734 3.688-1.032 2.565-1.032 7.031c0 2.95.32 5.281.97 7q.981 2.58 2.655 3.672 1.67 1.094 3.766 1.094 1.137.001 1.828-.157a6.5 6.5 0 0 0 1.375-.484 2.3 2.3 0 0 0 1.031-.844c.25-.375.47-.773.657-1.203l1.578-3.531h.36l-.11 5.14q-1.5.798-3.375 1.297t-4.11.5m18.365-.093q-2.735-.002-4.75-1.141a7.85 7.85 0 0 1-3.125-3.219q-1.095-2.092-1.094-4.906 0-2.794 1.172-4.844 1.171-2.06 3.203-3.172 2.028-1.125 4.594-1.125 2.561 0 4.578 1.11c1.344.73 2.398 1.777 3.172 3.14q1.172 2.05 1.172 4.891c0 1.898-.368 3.539-1.094 4.922q-1.096 2.064-3.094 3.203-2.004 1.139-4.734 1.14m0-.735q1.265.001 2.015-.719c.5-.476.864-1.328 1.094-2.546q.342-1.841.344-5.188-.002-3.389-.344-5.219-.345-1.84-1.094-2.562-.75-.717-2.015-.719-1.267.002-2.047.719-.769.722-1.11 2.562-.328 1.83-.328 5.22 0 3.346.329 5.187c.226 1.218.597 2.07 1.109 2.546q.78.72 2.047.72m15.76.735c-1.386 0-2.554-.399-3.5-1.188q-1.422-1.2-1.421-3.422c0-1.133.57-2.176 1.718-3.125q1.736-1.419 5.438-2.14l1.297-.235c.476-.082.984-.172 1.515-.265v-2.844q-.001-2.451-.593-3.438c-.399-.656-1.016-.984-1.86-.984q-.86 0-1.36.562-.503.551-.655 1.922l-.063.391q-.082 1.549-.766 2.266-.673.719-1.687.718-.937.001-1.547-.578-.61-.574-.61-1.547-.001-1.465 1.016-2.468 1.031-1.013 2.72-1.516 1.7-.516 3.671-.516 3.2.002 4.953 1.578 1.748 1.564 1.75 5.079v7.968q-.001 1.611 1.516 1.61h.781l.328.297q-.69.86-1.5 1.328-.798.468-2.281.468-1.582-.001-2.5-.734-.924-.75-1.203-1.969-1.08 1.16-2.219 1.97c-.75.538-1.73.812-2.938.812m2.204-2.204q.715.001 1.343-.343.639-.341 1.5-1.063v-6.047q-.362.082-.718.157c-.243.043-.516.09-.829.14q-1.659.422-2.656 1.453c-.656.68-.984 1.594-.984 2.75 0 .993.226 1.73.687 2.22q.684.735 1.657.733m20.116 2.204q-2.438-.001-4.437-1.063c-1.336-.707-2.39-1.738-3.172-3.094q-1.172-2.045-1.172-5 0-2.905 1.281-4.968a8.5 8.5 0 0 1 3.422-3.172q2.138-1.11 4.703-1.11 2.075 0 3.516.688 1.453.691 2.203 1.781.75 1.096.75 2.281c0 .68-.203 1.203-.61 1.578-.406.368-.933.547-1.577.547q-1.049 0-1.704-.75-.645-.749-.75-1.984a8.5 8.5 0 0 1 .032-1.344q.075-.562 0-1.14-.142-.61-.453-.797-.3-.201-.829-.203-2.203 0-3.406 1.906-1.204 1.908-1.203 6.078c0 2.43.445 4.281 1.344 5.562q1.342 1.922 4.156 1.922 1.686 0 2.734-.609 1.044-.61 2.016-1.828l.36.281q-.891 2.127-2.766 3.281-1.876 1.156-4.438 1.157m8.972-.547v-.36l.437-.14q1.297-.436 1.297-1.797V24.964c0-.5-.09-.867-.265-1.109q-.253-.358-.97-.547l-.53-.14v-.36l6.328-1.547.578.328-.14 5.063v4.5a14.6 14.6 0 0 1 2.702-1.766q1.465-.75 3.235-.75 2.342.002 3.719 1.344 1.389 1.33 1.39 4.094V44.23q0 .721.281 1.156.295.423 1.016.641l.297.11v.359h-8.438v-.36l.438-.109q1.296-.434 1.297-1.828V32.886q-.002-1.436-.485-1.968-.487-.547-1.718-.547c-.524 0-1.094.105-1.72.312q-.937.298-1.905 1.047v12.531c0 .938.43 1.54 1.297 1.797l.28.078v.36Zm25.099-19.735q-1.236 0-2.078-.765-.844-.78-.844-1.969 0-1.22.844-1.969.842-.764 2.078-.765 1.216.002 2.047.765.827.75.828 1.969-.001 1.19-.828 1.969-.83.766-2.047.765m-4.25 19.735v-.36l.5-.14q.714-.219.984-.64.281-.436.281-1.157V32.918q0-.75-.28-1.125-.27-.374-.985-.532l-.5-.109v-.36l6.578-2.109.36.36-.11 5.109V44.23q-.002.721.265 1.156c.188.282.508.496.97.641l.359.11v.359Zm10.002 0v-.36l.5-.14q1.265-.359 1.265-1.766V32.964c0-.53-.086-.921-.25-1.171q-.253-.374-.969-.532l-.546-.14v-.36l6.156-2.078.36.36.296 2.156a11 11 0 0 1 2.828-1.844c1.063-.476 2.11-.719 3.14-.719q2.375.001 3.657 1.297 1.28 1.299 1.281 3.969v10.36q0 1.407 1.36 1.765l.328.11v.359h-8.5v-.36l.469-.14q1.265-.406 1.265-1.766V32.746q-.002-2.312-2.312-2.313c-1.055 0-2.203.531-3.453 1.594v12.234q0 1.408 1.265 1.766l.328.11v.359Zm28.651-6.235c-1.656 0-3.058-.273-4.203-.828v1.235c0 .742.367 1.183 1.11 1.328l6.765 1.265q1.701.317 3.063.844 1.37.518 2.203 1.469c.55.637.828 1.504.828 2.61q-.001 1.761-1.156 3.25c-.774 1-1.907 1.804-3.407 2.421q-2.252.92-5.593.922-2.878-.002-4.578-.594-1.687-.595-2.391-1.531c-.469-.625-.703-1.29-.703-1.984 0-.868.289-1.735.875-2.61a7.1 7.1 0 0 1 2.187-2.11c-.742-.28-1.28-.648-1.625-1.109a2.43 2.43 0 0 1-.5-1.468q0-.733.375-1.36.388-.623.922-1.28l1.188-1.5q-2.625-1.514-2.625-4.767-.001-2.575 1.843-4.203 1.859-1.624 5.47-1.625c1.218 0 2.288.149 3.218.438q1.39.44 2.281 1.219a9.5 9.5 0 0 0 2.172-.579 6.7 6.7 0 0 0 1.86-1.14l.5.36v1.827h-4.063q1.296 1.442 1.297 3.703 0 2.532-1.86 4.172-1.844 1.627-5.453 1.625m-.03-.718q1.435 0 2.093-1.188c.445-.789.672-2.11.672-3.953 0-1.852-.227-3.156-.672-3.906q-.657-1.138-2.016-1.14-1.346 0-2.031 1.171-.673 1.172-.672 3.937-.001 2.783.625 3.938.622 1.142 2 1.14m-5.36 9.984q0 2.11 1.312 3.187 1.31 1.092 4.156 1.094 2.984 0 4.5-.984 1.514-.972 1.516-2.735 0-1.001-.75-1.609-.737-.61-2.5-.937l-6.516-1.235a9 9 0 0 1-.578-.14 6.7 6.7 0 0 0-.828 1.64 5.3 5.3 0 0 0-.312 1.719m17.382-11.671v-.969h9.079v.97Zm23.687 9.281q-3.487-.002-6.313-1.422-2.83-1.417-4.484-4.218-1.657-2.81-1.656-6.875-.001-3.094 1-5.438 1.013-2.341 2.765-3.922a11.4 11.4 0 0 1 4.032-2.375q2.278-.796 4.843-.797 2.044 0 3.766.47 1.733.469 3.25 1.296l.14 4.422H222l-1.797-2.875a8 8 0 0 0-.797-1.234 2.74 2.74 0 0 0-1.078-.86 6 6 0 0 0-1.062-.375q-.516-.124-1.313-.125a6.8 6.8 0 0 0-3.797 1.125q-1.703 1.111-2.734 3.688-1.03 2.565-1.031 7.031c0 2.95.32 5.281.969 7q.982 2.58 2.656 3.672 1.669 1.094 3.765 1.094 1.137.001 1.829-.157a6.5 6.5 0 0 0 1.375-.484 2.3 2.3 0 0 0 1.03-.844c.25-.375.47-.773.657-1.203l1.578-3.531h.36l-.11 5.14q-1.5.798-3.375 1.297t-4.11.5m9.365-.64v-.36l.437-.14q1.295-.436 1.296-1.797V24.933c0-.476-.101-.844-.296-1.094-.188-.257-.524-.445-1-.562l-.47-.11v-.359l6.579-1.547.437.328-.14 5.032v12.312q0 1.332.015 2.656.014 1.314.016 2.61 0 .72.281 1.172.294.439.985.656l.468.11v.359Zm15.436.547c-1.387 0-2.555-.399-3.5-1.188q-1.423-1.2-1.422-3.422c0-1.133.57-2.176 1.719-3.125q1.734-1.419 5.437-2.14l1.297-.235q.717-.124 1.516-.265v-2.844q-.001-2.451-.594-3.438c-.399-.656-1.016-.984-1.86-.984q-.861 0-1.359.562-.504.551-.656 1.922l-.063.391q-.08 1.549-.765 2.266-.674.719-1.688.718-.937.001-1.547-.578-.609-.574-.609-1.547-.002-1.465 1.016-2.468 1.03-1.013 2.718-1.516c1.133-.344 2.36-.516 3.672-.516q3.2.002 4.953 1.578c1.164 1.043 1.75 2.735 1.75 5.079v7.968q-.001 1.611 1.516 1.61h.781l.328.297q-.69.86-1.5 1.328c-.53.312-1.293.468-2.28.468q-1.583-.001-2.5-.734c-.618-.5-1.016-1.156-1.204-1.969q-1.08 1.16-2.219 1.97c-.75.538-1.73.812-2.937.812m2.203-2.204q.715.001 1.344-.343.638-.341 1.5-1.063v-6.047c-.243.055-.48.106-.72.157q-.36.065-.827.14-1.66.422-2.656 1.453c-.657.68-.985 1.594-.985 2.75 0 .993.227 1.73.688 2.22q.684.735 1.656.733m17.429 2.204c-1.18 0-2.234-.141-3.172-.422a13.5 13.5 0 0 1-2.593-1.032l.03-4.28h.36l1.235 2.155q.78 1.454 1.734 2.157.966.688 2.437.687c1.157 0 2.086-.254 2.797-.765q1.062-.779 1.063-2.079-.002-1.185-.766-1.937-.75-.749-2.812-1.375l-1.5-.453q-2.204-.657-3.47-2.016-1.251-1.372-1.25-3.36-.001-2.372 1.86-4.03 1.874-1.655 5.375-1.657a10.8 10.8 0 0 1 2.64.313q1.25.3 2.392.922l-.204 3.875h-.359l-1.266-2.219q-.69-1.185-1.359-1.672c-.437-.332-1.102-.5-1.984-.5q-1.236 0-2.313.688-1.078.69-1.078 1.937-.002 1.237.922 1.953.92.72 2.719 1.328l1.625.47q2.576.796 3.687 2.187 1.125 1.377 1.125 3.328-.002 2.625-2.078 4.218-2.064 1.578-5.797 1.579m15.696 0c-1.18 0-2.234-.141-3.172-.422a13.5 13.5 0 0 1-2.593-1.032l.03-4.28h.36l1.235 2.155q.78 1.454 1.734 2.157.966.688 2.437.687c1.157 0 2.086-.254 2.797-.765q1.062-.779 1.063-2.079-.002-1.185-.766-1.937-.75-.749-2.812-1.375l-1.5-.453q-2.204-.657-3.47-2.016-1.251-1.372-1.25-3.36-.002-2.372 1.86-4.03 1.874-1.655 5.375-1.657a10.8 10.8 0 0 1 2.64.313q1.25.3 2.392.922l-.204 3.875h-.359l-1.266-2.219q-.69-1.185-1.359-1.672c-.437-.332-1.102-.5-1.984-.5q-1.236 0-2.313.688-1.078.69-1.078 1.937-.002 1.237.922 1.953.92.72 2.719 1.328l1.625.47q2.576.796 3.687 2.187 1.125 1.377 1.125 3.328-.002 2.625-2.078 4.218-2.064 1.578-5.797 1.579m18.493-18.407q2.344.002 4 .953a6.5 6.5 0 0 1 2.531 2.594q.891 1.642.891 3.735 0 .39-.047.812-.035.409-.14.734h-10.72q.029 3.893 1.376 5.594 1.357 1.704 4.015 1.703 1.81 0 2.922-.562 1.124-.576 2.094-1.703l.36.328q-1.126 1.986-2.985 3.11-1.846 1.107-4.438 1.109c-1.699 0-3.21-.368-4.53-1.094q-1.986-1.107-3.11-3.156-1.112-2.06-1.11-4.907-.002-2.952 1.297-5.015 1.296-2.076 3.328-3.157 2.046-1.078 4.266-1.078m-.11.72q-1.03 0-1.78.64-.738.628-1.157 2.234-.409 1.596-.437 4.516h6.156q.358-3.936-.297-5.657-.645-1.734-2.484-1.734m15.564 17.688c-1.18 0-2.234-.141-3.172-.422a13.5 13.5 0 0 1-2.593-1.032l.03-4.28h.36l1.235 2.155q.78 1.454 1.734 2.157.967.688 2.437.687c1.157 0 2.086-.254 2.797-.765q1.062-.779 1.063-2.079-.002-1.185-.766-1.937-.75-.749-2.812-1.375l-1.5-.453q-2.203-.657-3.469-2.016c-.836-.914-1.25-2.035-1.25-3.36 0-1.581.617-2.925 1.86-4.03 1.25-1.102 3.038-1.657 5.374-1.657a10.8 10.8 0 0 1 2.641.313q1.248.3 2.39.922l-.203 3.875h-.359l-1.266-2.219q-.69-1.185-1.359-1.672-.658-.499-1.984-.5-1.235 0-2.313.688-1.078.69-1.078 1.937-.002 1.237.922 1.953.92.72 2.719 1.328l1.625.47q2.576.796 3.687 2.187 1.125 1.377 1.125 3.328-.002 2.625-2.078 4.218-2.063 1.578-5.797 1.579m-152.674 55.703v-.36l.47-.109q.668-.168 1.062-.625.406-.45.406-1.172c0-.883.004-1.766.016-2.64.007-.883.015-1.77.015-2.657v-9.031h-2.015v-.39l.796-.157c.477-.039.829-.207 1.047-.5q.329-.435.47-1.187a8 8 0 0 1 1.062-2.47q.703-1.06 1.593-1.952 1.371-1.296 2.907-1.813c1.02-.351 2.02-.531 3-.531q1.435.002 2.625.594 1.185.595 1.187 1.953-.002.984-.578 1.547-.564.549-1.61.547a2.9 2.9 0 0 1-1.593-.47q-.721-.467-1.39-1.655l-.516-.61q-.393-.497-.797-.484-.393.018-.563.594a24 24 0 0 0-.375 2.953 44 44 0 0 0-.125 3.312h4.031v.719h-4.03v14.25c0 .918.476 1.508 1.437 1.766l.89.218v.36Zm21.38.547q-2.735-.002-4.75-1.141a7.85 7.85 0 0 1-3.125-3.219q-1.094-2.092-1.094-4.906 0-2.794 1.172-4.844 1.171-2.06 3.203-3.172 2.028-1.125 4.594-1.125 2.561 0 4.578 1.11c1.344.73 2.398 1.777 3.172 3.14q1.172 2.05 1.172 4.891c0 1.898-.368 3.539-1.094 4.922q-1.095 2.064-3.094 3.203-2.004 1.139-4.734 1.14m0-.735q1.265.001 2.015-.719c.5-.476.864-1.328 1.094-2.546q.342-1.841.344-5.188-.002-3.389-.344-5.219-.344-1.84-1.094-2.562-.75-.717-2.015-.719-1.267.002-2.047.719-.769.722-1.11 2.562-.328 1.83-.328 5.22 0 3.346.329 5.187c.226 1.218.597 2.07 1.109 2.546q.78.72 2.047.72m10.51.188v-.36l.547-.14q.715-.219.985-.64.264-.435.265-1.126V89.214q-.001-.796-.265-1.171-.27-.374-.985-.532l-.547-.14v-.36l6.188-2.078.36.36.327 3.093v.282a7.4 7.4 0 0 1 1.313-1.844 7.2 7.2 0 0 1 1.797-1.39q.996-.547 1.969-.548 1.372.002 2.093.766c.477.5.72 1.137.72 1.906 0 .813-.235 1.446-.704 1.89a2.37 2.37 0 0 1-1.672.657q-1.517 0-2.672-1.5l-.062-.078c-.243-.332-.516-.516-.828-.547q-.47-.06-.875.438a2.7 2.7 0 0 0-.594.78 9 9 0 0 0-.453 1.016v10.047q0 1.44 1.265 1.797l1.157.328v.36Zm-92.311 56.89q-1.987-.002-4.032-.484-2.05-.48-3.422-1.266l.188-4.906h.36l1.109 2.344q.498 1.019 1.078 1.797.574.766 1.594 1.187.716.362 1.375.485a8 8 0 0 0 1.5.125q2.185 0 3.468-1.188 1.28-1.184 1.282-3.047-.001-1.765-.875-2.75-.862-.998-2.766-1.937l-1.469-.64c-2.062-.915-3.68-1.97-4.844-3.157q-1.75-1.782-1.75-4.735 0-2.123 1.094-3.671c.739-1.032 1.758-1.82 3.063-2.375q1.968-.828 4.593-.829 1.905.001 3.61.5 1.717.503 2.984 1.375l-.219 4.313h-.359l-1.484-2.703q-.61-1.249-1.219-1.766a3.6 3.6 0 0 0-1.406-.75 5 5 0 0 0-.86-.187 7 7 0 0 0-1.015-.063q-1.828.001-3.094 1.063-1.252 1.065-1.25 2.86c0 1.23.32 2.21.969 2.937q.967 1.096 2.843 1.953l1.657.734q3.45 1.5 4.968 3.219c1.008 1.137 1.516 2.605 1.516 4.406 0 2.117-.805 3.84-2.406 5.172q-2.392 1.985-6.781 1.984m15.833-.64v-.36l1.485-.359q1.467-.327 1.469-1.797v-20.53h-3.047q-1.347 0-1.922.703-.562.705-1.219 1.937l-1.296 2.516h-.36l.188-5.875h20.765l.14 5.875h-.358l-1.297-2.516q-.612-1.232-1.188-1.937-.581-.703-1.906-.703h-3.063v20.531q-.001 1.47 1.485 1.797l1.469.36v.359Zm17.76 0v-.36l.75-.28q1.156-.469 1.157-1.845v-18.797q-.001-1.435-1.157-1.828l-.75-.297v-.359h9.5c2.54 0 4.727.477 6.563 1.422q2.764 1.425 4.25 4.078 1.5 2.642 1.5 6.344-.001 3.783-1.625 6.453-1.61 2.658-4.516 4.062c-1.93.938-4.203 1.407-6.828 1.407Zm7.297-.719h1.547q2.59.002 4.172-1.016 1.592-1.029 2.328-3.453c.5-1.625.75-3.851.75-6.687q0-4.247-.75-6.672-.736-2.437-2.281-3.469-1.548-1.03-4.063-1.031h-1.703Zm32.801 1.266c-2.562 0-4.633-.852-6.203-2.563q-2.36-2.562-2.36-7.203 0-2.764 1.079-5.172a13.6 13.6 0 0 1 3.078-4.328q1.998-1.904 4.781-3.11 2.797-1.216 6.219-1.53l.11.53q-4.393.909-6.688 3.329-2.286 2.409-3 6.547c1.383-.82 2.941-1.235 4.672-1.235 1.469 0 2.68.305 3.64.906a5.7 5.7 0 0 1 2.172 2.422q.75 1.535.75 3.438 0 2.564-1.218 4.344a7.84 7.84 0 0 1-3.094 2.703 8.9 8.9 0 0 1-3.938.922m-3.312-9q0 4.454.765 6.359.78 1.908 2.438 1.906 1.653 0 2.422-1.562.78-1.56.781-5.235 0-3.387-.797-4.718c-.523-.883-1.383-1.329-2.578-1.329q-1.518 0-2.812.75a30 30 0 0 0-.22 3.829m48.427 9q-2.316-.001-3.594-1.157-1.266-1.154-1.266-3.672v-12.312h-2.484v-.36l.86-.14q1.125-.263 1.921-.719a8 8 0 0 0 1.61-1.265l2.953-3.282h.359l-.11 5.047h4.032v.719h-4.063v12.953q-.002 1.266.547 1.922a1.8 1.8 0 0 0 1.422.64q.764 0 1.328-.374a6.4 6.4 0 0 0 1.157-1.032l.359.36a5.4 5.4 0 0 1-1.984 1.953c-.836.476-1.852.719-3.047.719m15.261 0c-1.824 0-3.406-.383-4.75-1.141a7.85 7.85 0 0 1-3.125-3.219q-1.094-2.092-1.093-4.906 0-2.794 1.171-4.844 1.171-2.06 3.204-3.172 2.027-1.125 4.593-1.125 2.562 0 4.578 1.11 2.014 1.095 3.172 3.14 1.172 2.05 1.172 4.891-.002 2.847-1.094 4.922-1.095 2.064-3.093 3.203-2.004 1.139-4.735 1.14m0-.735q1.266.001 2.016-.719c.5-.476.863-1.328 1.094-2.546.226-1.227.343-2.957.343-5.188 0-2.258-.117-4-.343-5.219q-.344-1.84-1.094-2.562-.75-.717-2.016-.719-1.266.002-2.047.719-.768.721-1.109 2.562-.328 1.83-.328 5.22 0 3.346.328 5.187c.227 1.218.598 2.07 1.11 2.546q.78.72 2.046.72m18.656.188v-.36l1.39-.437q1.374-.47 1.375-1.828v-17.422l-2.921.39v-.468a23.7 23.7 0 0 0 4.078-1.219 26 26 0 0 0 3.703-1.844l.469.328-.141 5.141v15.094c0 .937.453 1.539 1.36 1.797l1.484.468v.36Zm14.069-16.782.25-5.109q1.077-.61 2.672-1.031 1.606-.436 3.625-.438c1.925 0 3.472.274 4.64.813q1.764.796 2.594 2.203.827 1.407.828 3.172c0 1.656-.805 3.273-2.406 4.844q-2.41 2.36-6.594 5.203-.785.58-1.875 1.406a57 57 0 0 0-2 1.61h13.5v4.109h-15.844v-3.032a193 193 0 0 0 2.532-2.484q1.247-1.249 2.359-2.375 2.59-2.656 3.875-4.719c.851-1.382 1.281-2.867 1.281-4.453 0-1.656-.305-2.992-.906-4.015q-.91-1.531-2.703-1.532-1.113 0-2.063.563-.955.562-1.672 1.922l-1.734 3.343Zm-79.198 1.36q-1.378 0-2.14-.688-.767-.702-.766-2.203v-7.39h-1.5v-.22l.516-.077q.669-.154 1.156-.438.482-.28.969-.75l1.765-1.969h.22l-.063 3.016h2.421v.438h-2.437v7.765q0 .77.328 1.156.327.392.86.391c.3 0 .566-.07.796-.219q.341-.233.688-.625l.219.203a3.24 3.24 0 0 1-1.204 1.172q-.75.436-1.828.438m3.766-.328v-.219l.25-.078q.78-.264.781-1.078v-11.532c0-.3-.055-.523-.156-.671-.094-.145-.29-.254-.578-.329l-.328-.093v-.203l3.812-.938.344.203-.094 3.047v2.688a9 9 0 0 1 1.64-1.063 4.26 4.26 0 0 1 1.923-.437q1.404 0 2.234.796.827.8.828 2.454v6.093q-.002.44.172.703.187.252.61.375l.171.063v.219h-5.047v-.219l.25-.063q.781-.262.782-1.093v-6.782c0-.582-.102-.976-.297-1.187q-.283-.328-1.016-.328-.468 0-1.031.187a3.8 3.8 0 0 0-1.156.625v7.516c0 .562.257.922.78 1.078l.173.047v.219Zm0 0"/></svg>