<svg xmlns="http://www.w3.org/2000/svg" width="800" height="260" viewBox="0 40 600 200"><defs><clipPath id="b"><path d="M72 .648h68.086v107.153H72Zm0 0"/></clipPath><clipPath id="c"><path d="M1.18.648H70v107.153H1.18Zm0 0"/></clipPath><clipPath id="d"><path d="M48 42h46v38.367H48Zm0 0"/></clipPath><clipPath id="e"><path d="M44 14.773h53.883V38H44Zm0 0"/></clipPath><clipPath id="a"><path d="M0 0h142v108H0z"/></clipPath><clipPath id="f"><path d="M0 0h360v51H0z"/></clipPath></defs><g clip-path="url(#a)" transform="translate(27 65)"><g clip-path="url(#b)"><path fill="#eb8c29" d="m140.785 53.703-.02-4.988-.042-4.988c-.036-3.325-.047-6.653-.102-9.977l-.152-9.977-.203-9.976-.258-9.977-.063-2.46-2.254-.239-1.812-.187c-.602-.063-1.207-.086-1.813-.133-.601-.047-1.207-.051-1.812-.074l-.906-.024-.91.004c-.602.004-1.208.008-1.81.04-.6.03-1.206.034-1.808.097a62 62 0 0 0-3.59.367l-1.777.266-1.77.32c-.59.117-1.171.246-1.757.371-.582.133-1.16.285-1.739.426a65 65 0 0 0-6.792 2.172 71 71 0 0 0-6.48 2.847 77 77 0 0 0-3.118 1.653 73 73 0 0 0-3.027 1.785 82 82 0 0 0-2.938 1.91 92 92 0 0 0-2.848 2.031 91 91 0 0 0-2.75 2.153 73 73 0 0 0-2.656 2.25 183 183 0 0 1 2.965-1.813 92 92 0 0 1 3.004-1.719l1.516-.824 1.53-.797a93 93 0 0 1 6.223-2.898 74 74 0 0 1 3.176-1.266c.531-.195 1.063-.394 1.602-.578.535-.187 1.07-.379 1.61-.547a63 63 0 0 1 3.25-.976q1.629-.452 3.276-.82a63 63 0 0 1 3.301-.657c.555-.086 1.102-.187 1.656-.262l1.66-.215 1.665-.175 1.664-.121a56 56 0 0 1 3.324-.09c.555-.012 1.11.011 1.66.023.55 0 1.106.035 1.656.07l.825.047.824.075c.547.054 1.097.093 1.64.171.297.043.59.079.887.118l-.199 7.656-.203 9.976-.153 9.977c-.058 3.324-.066 6.652-.101 9.977l-.047 4.988-.016 4.988-.023 9.977.027 9.976c.004 2.114.024 4.227.043 6.34q-.367-.013-.734-.02a74 74 0 0 0-4.48.06c-.743.026-1.485.077-2.227.116-.742.059-1.48.106-2.223.176a93 93 0 0 0-4.422.504q-2.196.319-4.382.73l-2.176.442-2.164.496c-1.438.355-2.875.719-4.29 1.156l-1.062.313-1.058.344c-.7.238-1.407.453-2.102.707l-2.086.757c-.687.262-1.375.547-2.059.825l-1.023.421-1.012.454c-.672.308-1.351.593-2.015.918l-1.989.98c-.664.316-1.304.688-1.957 1.031-1.304.684-2.558 1.465-3.828 2.215-.629.383-1.238.797-1.855 1.195-.617.403-1.239.793-1.832 1.23l-1.793 1.286c-.598.426-1.164.898-1.742 1.344-1.172.886-2.282 1.847-3.387 2.804q-.45.382-.879.782l-.14-2.637-.348-5.965-.192-2.98a255 255 0 0 0-.203-2.985c-.148-1.988-.281-3.976-.453-5.965-.168 1.989-.3 3.977-.45 5.965q-.11 1.493-.202 2.985l-.192 2.98-.347 5.965-.317 5.965-.172 3.195 2.688-2.07 1.672-1.29c.554-.425 1.101-.866 1.687-1.26l1.715-1.22.426-.304.441-.286.88-.574c.589-.375 1.163-.777 1.765-1.133l1.804-1.07c.59-.371 1.207-.695 1.82-1.035.614-.328 1.216-.68 1.84-.996 1.25-.613 2.481-1.262 3.762-1.817.637-.28 1.254-.593 1.903-.851l1.925-.8c.641-.266 1.301-.493 1.95-.743l.972-.363.989-.332c.66-.215 1.308-.457 1.972-.664l1.989-.61c.664-.203 1.34-.367 2.003-.555l1.004-.269 1.012-.242c1.348-.336 2.703-.614 4.059-.895l2.043-.383 2.05-.324a98 98 0 0 1 4.118-.515 98 98 0 0 1 4.132-.344c.688-.043 1.38-.07 2.067-.102.691-.015 1.379-.047 2.066-.047 1.38-.023 2.75.012 4.117.055a69 69 0 0 1 3.032.188l.484.05.43.047 3.832.442.027-3.836c.024-3.328.074-6.653.074-9.98l.032-9.977z"/></g><g clip-path="url(#c)"><path fill="#002f6c" d="m1.203 53.703.016-4.988.047-4.988c.03-3.325.043-6.653.101-9.977l.149-9.977.207-9.976.257-9.977.063-2.46 2.254-.239L6.105.934C6.711.87 7.316.848 7.922.8 8.523.754 9.129.75 9.734.727l.907-.024.906.004c.605.004 1.207.008 1.812.04.602.03 1.204.034 1.805.097 1.203.082 2.399.215 3.59.367l1.781.266 1.77.32c.586.117 1.172.246 1.754.371.582.133 1.16.285 1.738.426a64 64 0 0 1 6.793 2.172 70 70 0 0 1 3.281 1.343q1.625.709 3.203 1.504 1.577.791 3.114 1.653a82 82 0 0 1 5.969 3.695c.96.664 1.913 1.332 2.847 2.031a91 91 0 0 1 2.746 2.153c.91.722 1.79 1.484 2.656 2.25a167 167 0 0 0-2.96-1.813 96 96 0 0 0-3.005-1.719l-1.515-.824-1.531-.797a107 107 0 0 0-3.09-1.508 97 97 0 0 0-3.137-1.39 72 72 0 0 0-3.172-1.266c-.535-.195-1.066-.394-1.601-.578-.536-.187-1.07-.379-1.614-.547a63 63 0 0 0-3.246-.976q-1.636-.452-3.277-.82c-1.098-.25-2.2-.466-3.301-.657-.555-.086-1.105-.187-1.66-.262l-1.66-.215-1.66-.175-1.665-.121a56 56 0 0 0-3.328-.09c-.55-.012-1.105.011-1.656.023-.555 0-1.105.035-1.656.07l-.824.047-.825.075c-.55.054-1.097.093-1.644.171-.293.043-.59.079-.883.118l.2 7.656.202 9.976.149 9.977c.058 3.324.07 6.652.105 9.977l.043 4.988.02 4.988.023 9.977-.031 9.976c0 2.114-.02 4.227-.043 6.34q.369-.013.738-.02a74 74 0 0 1 4.477.06c.746.026 1.488.077 2.23.116.739.059 1.48.106 2.22.176a93 93 0 0 1 4.421.504q2.204.319 4.383.73l2.18.442 2.164.496c1.437.355 2.87.719 4.285 1.156l1.066.313 1.055.344c.703.238 1.41.453 2.101.707l2.086.757c.692.262 1.375.547 2.059.825l1.027.421 1.012.454c.672.308 1.352.593 2.016.918l1.984.98c.668.316 1.305.688 1.96 1.031 1.306.684 2.56 1.465 3.825 2.215.629.383 1.238.797 1.86 1.195.617.403 1.238.793 1.832 1.23l1.789 1.286c.597.426 1.164.898 1.746 1.344 1.168.886 2.277 1.847 3.386 2.804.301.254.59.516.88.782l.136-2.637.352-5.965.191-2.98a255 255 0 0 1 .203-2.985c.149-1.988.277-3.976.45-5.965.171 1.989.304 3.977.452 5.965q.111 1.493.204 2.985l.191 2.98.348 5.965.316 5.965.168 3.195-2.684-2.07-1.671-1.29c-.559-.425-1.106-.866-1.688-1.26l-1.715-1.22-.426-.304-.441-.286-.883-.574c-.59-.375-1.16-.777-1.765-1.133l-1.801-1.07c-.59-.371-1.211-.695-1.82-1.035-.618-.328-1.22-.68-1.84-.996-1.25-.613-2.485-1.262-3.762-1.817-.637-.28-1.258-.593-1.902-.851l-1.926-.8c-.64-.266-1.301-.493-1.95-.743l-.976-.363-.984-.332c-.66-.215-1.313-.457-1.973-.664l-1.992-.61c-.66-.203-1.336-.367-2.004-.555l-1.004-.269-1.012-.242c-1.343-.336-2.703-.614-4.058-.895l-2.04-.383-2.05-.324a98 98 0 0 0-4.121-.515 98 98 0 0 0-4.13-.344c-.69-.043-1.378-.07-2.07-.102-.687-.015-1.378-.047-2.066-.047a85 85 0 0 0-4.113.055 69 69 0 0 0-3.031.188l-.489.05-.43.047-3.831.442-.028-3.836c-.023-3.328-.074-6.653-.074-9.98L1.18 63.68z"/></g><g clip-path="url(#d)"><path fill="#002f6c" d="M84.07 56.066a22.4 22.4 0 0 0-2.773-9.308l.082-.035-.05-.078.234-.118a1 1 0 0 0 .085-.05c.204-.106.399-.22.598-.329l.125-.074q.3-.178.598-.36c.008-.003.011-.01.02-.015q.284-.18.566-.367c.039-.027.074-.05.117-.082a18 18 0 0 0 .656-.46c.168-.126.332-.255.496-.376q.03-.029.063-.05a19.34 19.34 0 0 1 5.293 11.702Zm.817 14.977-.051-.031a10 10 0 0 0-.516-.39c-.03-.024-.058-.052-.09-.071q-.275-.204-.558-.395c-.043-.027-.078-.047-.113-.074a24 24 0 0 0-.57-.375c-.009-.004-.012-.008-.02-.012l-.598-.36c-.039-.022-.082-.05-.125-.07-.2-.117-.394-.226-.594-.331q-.046-.03-.093-.051a3 3 0 0 0-.227-.117l-.074-.043.039-.075a22.4 22.4 0 0 0 2.773-9.3h6.11a19.3 19.3 0 0 1-5.293 11.695m-9.559 5.43q-.862.198-1.742.316l.008-.008a2 2 0 0 1 .36-.223q.086-.064.179-.124l.066-.043.07-.047c.055-.04.106-.074.157-.11.015-.011.035-.027.058-.039.082-.062.172-.12.254-.18l.059-.042c.031-.028.066-.047.094-.07l.148-.11c.086-.066.18-.133.266-.203.03-.024.062-.043.093-.067.036-.03.075-.058.114-.093a20 20 0 0 0 .414-.332l.031-.028q.22-.177.441-.37.02-.018.04-.04.044-.034.09-.082c.1-.082.199-.176.296-.262.035-.035.078-.07.117-.109l.086-.082q.117-.104.227-.215l.133-.129a1 1 0 0 0 .117-.117c.02-.016.031-.031.047-.047.062-.058.117-.117.176-.176.02-.023.046-.043.066-.066.047-.055.094-.102.144-.152h.004v-.004l.11-.117.133-.145.109-.121q.093-.1.191-.211l.086-.098q.064-.076.13-.148c.066-.082.132-.156.198-.238q.043-.053.09-.106c.032-.031.059-.07.086-.105q.141-.17.281-.352.022-.03.043-.055l.012-.011q.01-.017.02-.028c.23.11.465.23.691.356l.211.113q.24.133.48.277.112.064.223.133.251.155.496.32c.059.036.114.067.164.102q.324.216.64.45.013.006.024.019a19.2 19.2 0 0 1-7.03 3.219m-2.289-3.285c-.137.097-.266.195-.402.289v-3.864c1.21.102 2.402.313 3.558.64l-.011.017c-.164.187-.325.37-.496.554-.043.043-.083.082-.126.13a14 14 0 0 1-.48.487c-.02.016-.035.04-.05.055-.18.176-.36.344-.548.512l-.136.117a15 15 0 0 1-.578.492 16 16 0 0 1-.73.57m-.402-13.84h8.14a19.2 19.2 0 0 1-2.57 8.09 22.7 22.7 0 0 0-5.57-1.122Zm0-10.254a22.3 22.3 0 0 0 5.57-1.121 19.2 19.2 0 0 1 2.57 8.093h-8.14Zm-3.282 6.972h-8.144a19.1 19.1 0 0 1 2.57-8.093c1.801.609 3.664.984 5.574 1.12Zm0 10.25c-1.91.141-3.773.516-5.574 1.121a19.1 19.1 0 0 1-2.57-8.09h8.144Zm0 7.16a8 8 0 0 1-.402-.288c-.055-.036-.101-.075-.152-.11-.024-.02-.047-.035-.074-.055q-.258-.2-.516-.406l-.04-.035-.128-.11-.406-.347c-.035-.031-.07-.066-.114-.098l-.02-.02H67.5q-.2-.192-.406-.386c-.043-.043-.094-.082-.137-.125-.016-.016-.031-.039-.05-.055a14 14 0 0 1-.481-.488l-.125-.133c-.172-.18-.332-.363-.496-.55q-.005-.008-.016-.016a18.6 18.6 0 0 1 3.566-.64Zm-2.69 2.997a19.2 19.2 0 0 1-7.036-3.22q.011-.012.027-.019c.106-.082.215-.156.324-.234q.157-.104.313-.215c.055-.035.105-.07.164-.105.094-.063.191-.121.285-.184l.211-.133q.111-.07.223-.133c.05-.027.097-.058.152-.085l.328-.192.012-.004q.093-.057.2-.11c.07-.042.148-.081.218-.12.156-.078.312-.16.473-.235a.1.1 0 0 0 .02.024l.058.074q.138.182.277.348.041.053.082.101c.035.04.066.074.098.114.062.078.129.152.195.234q.013.012.02.023c.035.043.074.082.109.125l.074.086.012.016c.066.07.125.137.187.207h.004c.04.043.07.082.11.121.043.047.086.098.129.14q.058.06.117.13a2 2 0 0 1 .14.148q.043.036.079.074c.05.051.105.11.16.16l.074.075a1 1 0 0 0 .098.093v.004l.074.074.058.06h.004c.075.07.145.136.219.21l.09.082c.039.04.082.074.121.113.094.082.191.172.289.258.031.027.063.059.09.082l.047.043q.217.186.433.367l.035.028a.5.5 0 0 0 .086.066c.106.09.22.18.325.266.043.035.082.062.12.093.028.024.06.043.09.067q.132.105.262.2h.004q.072.058.149.112c.03.024.062.043.093.07.02.016.04.028.059.044.082.058.168.113.25.175q.002-.001.004.004s.004 0 .004.004c.023.012.039.024.058.035l.153.11c.047.031.09.058.136.09.063.039.122.082.18.12l.02.012.117.075q.005.002.004.004c.066.043.129.082.191.125l.024.011q.01.004.011.008a18 18 0 0 1-1.738-.316m-7.048-7.137q-.298.176-.597.36-.006 0-.012.007-.001.002-.008.004-.211.141-.43.281c-.043.032-.093.059-.136.094q-.048.03-.094.063c-.012.003-.016.007-.024.011q-.28.194-.554.39l-.035.024c-.02.016-.04.04-.063.051-.168.125-.34.254-.504.383-.02.012-.035.027-.058.039a19.32 19.32 0 0 1-5.293-11.695h6.109a22.3 22.3 0 0 0 2.777 9.3q.018.044.035.075l-.074.039q-.116.056-.226.125a15 15 0 0 0-.687.379q-.049.021-.09.05zm-2.515-24.973.062.047c.164.125.328.254.496.375q.052.043.106.078.27.2.547.383.067.051.124.09c.184.121.368.238.555.36l.031.019q.293.18.59.355l.133.078a17 17 0 0 0 .688.38c.074.042.148.077.226.117l-.05.078.085.035a22.4 22.4 0 0 0-2.777 9.308h-6.11a19.36 19.36 0 0 1 5.294-11.703m28.613-1.265c-.024.007-.05.02-.078.027a39 39 0 0 1-4.489 1.434 40 40 0 0 1-3.332.714 41 41 0 0 1-13.645 0 41 41 0 0 1-7.82-2.145c-.027-.007-.054-.019-.078-.026l-1.816-.707a22.58 22.58 0 0 0-6 15.312 22.58 22.58 0 0 0 8.606 17.719 22.6 22.6 0 0 0 8.863 4.25 22.8 22.8 0 0 0 10.14 0 22.6 22.6 0 0 0 9.989-5.2l.004-.003q.678-.612 1.304-1.27a22.6 22.6 0 0 0 6.168-15.496 22.6 22.6 0 0 0-6-15.316z"/></g><path fill="#eb8c29" d="M64.82 41.414a37 37 0 0 0 15.356-.637 36 36 0 0 0 4.07-1.304.3.3 0 0 0 .059-.02v-7.742l-10.57 3.621-2.403.824-.34.117-.336-.117-2.402-.824-10.567-3.621v7.746c.016.008.036.012.051.02a36.3 36.3 0 0 0 7.082 1.937"/><g clip-path="url(#e)"><path fill="#eb8c29" d="M94.2 30.898v-4.722l3.695-1.266-26.903-10.137L44.094 24.91l9.683 3.317.157.058 17.058 5.844 17.063-5.844.156-.058 4.598-1.575v4.246c-.875.223-1.504 1.016-1.504 3.305 0 2.86.984 3.102 2.199 3.102s2.203-.242 2.203-3.102c0-2.289-.633-3.082-1.508-3.305"/></g></g><path d="M246.687 135.147q.248 0 .641-.297.388-.31.828-.75.45-.45.844-.906.405-.451.656-.75l.266-.313-1.031 5.469h-13.782s.094-.07.282-.219a2.9 2.9 0 0 0 .562-.672q.281-.451.281-1.156V123.88q0-.62-.281-1.078-.281-.451-.562-.688-.282-.248-.282-.25h13.016l1.25 5.032q-.001.001-.266-.25-.253-.265-.64-.641a14 14 0 0 0-.844-.766 12 12 0 0 0-.844-.656q-.394-.265-.64-.265h-5.782q-.673 0-1.14.468a1.55 1.55 0 0 0-.453 1.125v2.453h4.843c.258 0 .555-.054.89-.171q.5-.17.829-.329c.227-.101.344-.156.344-.156v3.844l-.328-.188a4.5 4.5 0 0 0-.828-.375 2.6 2.6 0 0 0-.938-.187h-4.812v2.766c0 .437.148.812.453 1.125a1.55 1.55 0 0 0 1.125.453Zm26.292 2.437.265-.219q.281-.216.563-.656.28-.45.28-1.14v-4.282c0-.531-.042-1.054-.124-1.578q-.128-.78-.625-1.297c-.324-.351-.871-.531-1.64-.531q-1.348.001-2.313.547c-.649.355-1.14.809-1.485 1.36a3.2 3.2 0 0 0-.5 1.718v4.063c0 .46.086.84.266 1.14q.281.439.563.672l.28.219-4.765-.016s.094-.07.281-.219q.28-.216.547-.656.265-.45.266-1.14v-4.282c0-.363-.024-.742-.063-1.14a3.2 3.2 0 0 0-.28-1.094 1.94 1.94 0 0 0-.704-.844c-.312-.219-.758-.328-1.328-.328-.906 0-1.684.18-2.328.531q-.954.517-1.469 1.344c-.336.543-.5 1.11-.5 1.703v4.11q0 .69.281 1.14c.188.293.367.516.547.672q.265.22.266.219l-4.766-.016s.094-.07.281-.219q.281-.216.563-.656.28-.45.281-1.14v-7.891q0-.668-.281-1.11-.282-.45-.563-.671l-.28-.235 3.687.016-.016 3.016q.717-1.454 1.703-2.344.998-.905 2.594-.906 1.388.001 2.297.5a3.6 3.6 0 0 1 1.437 1.343q.515.844.766 1.969c.414-1.125 1.016-2.039 1.797-2.75q1.185-1.061 2.937-1.062 1.796 0 2.875.828 1.092.814 1.563 2.203.48 1.376.515 3.047l-.03 4.047q0 .69.28 1.14.281.439.563.672.28.22.281.219Zm17.063-12.124c1.226 0 2.312.277 3.25.827a5.9 5.9 0 0 1 2.187 2.235q.781 1.406.782 3.125a6 6 0 0 1-.828 3.109 6.1 6.1 0 0 1-2.22 2.234q-1.406.83-3.171.829-1.628 0-2.64-.891-1.004-.903-1.72-2.39v6.28q0 .668.282 1.126.281.45.562.671l.282.22h-4.766l.281-.22c.188-.148.367-.37.547-.671q.281-.458.281-1.125v-13.141q0-.668-.281-1.11-.268-.433-.547-.656l-.281-.234h4.766l-.282.234a2.7 2.7 0 0 0-.562.657q-.281.44-.281 1.109v1.047q.715-1.467 1.718-2.36c.676-.601 1.555-.906 2.64-.906m0 9.921c.719 0 1.351-.156 1.906-.469q.828-.482 1.297-1.328.482-.843.484-1.937-.001-1.11-.5-1.953-.503-.844-1.328-1.313a3.7 3.7 0 0 0-1.86-.469q-1.594 0-2.562.516c-.636.336-1.093.781-1.375 1.344q-.42.832-.421 1.875 0 1.753.984 2.75.984.984 3.375.984m17.845-9.936q1.935 0 3.47.843c1.03.555 1.843 1.297 2.437 2.235q.89 1.406.89 3.125c0 .855-.18 1.656-.531 2.406a6 6 0 0 1-1.453 1.969 6.9 6.9 0 0 1-2.156 1.328 7.4 7.4 0 0 1-2.657.469q-2.05.002-3.578-.829-1.535-.826-2.39-2.234a5.93 5.93 0 0 1-.844-3.11q-.001-1.717.86-3.124c.581-.938 1.378-1.68 2.39-2.235q1.53-.843 3.562-.843m0 9.937q1.326.002 2.282-.547.949-.545 1.453-1.406.515-.855.515-1.781c0-.664-.172-1.282-.515-1.844q-.504-.856-1.453-1.39-.957-.53-2.282-.532c-.898 0-1.668.18-2.312.531q-.955.516-1.453 1.36c-.336.554-.5 1.18-.5 1.875 0 .617.164 1.21.5 1.78q.498.844 1.453 1.407.966.549 2.312.547m29.964-9.703h6.407q-1.782.798-2.375 2.656l-2.922 9.266h-4.25l-3-9.469h-.469l-2.969 9.469h-4.265l-2.922-9.266q-.598-1.858-2.39-2.656h6.406l-.735.297a1.42 1.42 0 0 0-.75.719 1.4 1.4 0 0 0-.062 1.015l2.328 7.438h.5l2.969-9.47h4.25l2.968 9.47h.5l2.328-7.438q.154-.514-.062-1.015a1.36 1.36 0 0 0-.734-.72Zm17.791 9.703q1.531.001 2.516-.344c.656-.226 1.16-.484 1.516-.765q.545-.423.75-.75.217-.329.218-.328l1.078.671s-.062.133-.187.391a7.4 7.4 0 0 1-.578 1 6 6 0 0 1-1.11 1.188q-.688.579-1.718.984-1.02.388-2.438.39-1.798 0-3.062-.453c-.844-.312-1.555-.71-2.125-1.203q-.862-.75-1.36-1.593-.487-.843-.687-1.61-.204-.78-.203-1.312 0-.95.375-2.016a6.4 6.4 0 0 1 1.187-2.016q.828-.966 2.14-1.562c.876-.395 1.946-.594 3.22-.594q1.92 0 3.203.469 1.294.47 2.062 1.156.764.692 1.094 1.406.328.704.328 1.172-.002.627-.484 1.36-.488.738-1.485 1.265-.985.516-2.562.516-1.347.001-2.688-.156a38 38 0 0 1-2.375-.344 22 22 0 0 1-1.453-.297q-.001.94.453 1.703.452.768 1.5 1.219c.707.305 1.664.453 2.875.453m-.468-7.5q-1.922.001-2.954.813a3.5 3.5 0 0 0-1.296 2.046q.293.065 1.03.188.735.128 1.688.25a19 19 0 0 0 1.938.125q.984.002 1.828-.172.843-.169 1.375-.578.53-.42.531-1.156-.001-.716-.906-1.11-.891-.406-3.234-.406m19.317-2.437q1.358.002 2.312.765c.644.5 1.14 1.18 1.484 2.031q.515 1.285.563 2.844l-2.547-.187c0-.696-.04-1.266-.11-1.703q-.112-.669-.5-.985-.376-.328-1.203-.328c-.824 0-1.562.18-2.218.531q-.986.517-1.532 1.344-.549.814-.547 1.703l-.03 4.11q0 .69.28 1.14.281.439.563.672.28.22.281.219h-4.765s.093-.07.28-.219a2.9 2.9 0 0 0 .563-.672q.282-.45.282-1.14v-7.86q0-.667-.282-1.125-.281-.45-.562-.672l-.281-.234h3.671v3.016q.717-1.454 1.704-2.344.997-.905 2.593-.906m8.731 12.156s.095-.07.282-.219a2.9 2.9 0 0 0 .563-.672q.28-.45.28-1.14v-7.86q0-.667-.28-1.125-.281-.45-.563-.672l-.281-.234h3.687l-.015 9.89q0 .69.281 1.141c.188.293.367.516.547.672q.265.22.266.219Zm2.345-13.063q-.628 0-.922-.422-.299-.435-.297-1.046 0-.593.297-1.016.294-.437.922-.438c.445 0 .78.149 1 .438q.327.422.328 1.016 0 .61-.328 1.046-.331.422-1 .422M401.7 137.6s.094-.07.281-.219q.28-.233.547-.672.282-.45.282-1.14v-4.266q-.002-.809-.157-1.594a2.4 2.4 0 0 0-.687-1.281q-.517-.516-1.563-.516-1.488.001-2.437.5-.938.487-1.406 1.313a3.5 3.5 0 0 0-.454 1.734v4.11q-.002.69.266 1.14c.188.293.367.516.547.672q.28.22.281.219h-4.734s.094-.07.281-.219a2.9 2.9 0 0 0 .563-.672q.28-.45.28-1.14v-7.891q0-.668-.28-1.11-.281-.45-.563-.671l-.281-.22h3.656l-.016 3.017q.717-1.454 1.704-2.344.997-.905 2.593-.906 1.64 0 2.72.828 1.09.814 1.64 2.203.561 1.376.578 3.047l-.016 4.047q0 .69.281 1.14.281.439.563.672.28.22.281.219Zm18.756-11.688 3.75-.234v3.61-.016q0-.013-.03-.032a9 9 0 0 0-.157-.375 4 4 0 0 0-.328-.625 2.3 2.3 0 0 0-.532-.625 1.5 1.5 0 0 0-.796-.312q.78 1.065.78 2.5-.001 1.19-.718 2.187-.72.987-2.078 1.563c-.906.387-1.992.578-3.25.578q-.563 0-1.031-.047a7 7 0 0 1-.907-.172l-1.14 1.172s.015.04.047.11q.058.11.703.109h7.562q.48.002.891.344.405.329.64.828c.165.336.258.656.282.969a4.5 4.5 0 0 1-.5 2.109 5.6 5.6 0 0 1-1.469 1.812c-.625.532-1.367.946-2.219 1.25a7.9 7.9 0 0 1-2.75.47 8 8 0 0 1-2.672-.438 7.5 7.5 0 0 1-2.156-1.188 5.8 5.8 0 0 1-1.453-1.719 4.3 4.3 0 0 1-.547-2.046l1.235.093a1 1 0 0 0-.016.172v.156q0 .546.61 1.125.62.575 1.874.97 1.249.404 3.125.405 1.606 0 2.61-.406 1.014-.392 1.5-.953.482-.55.484-1.047 0-.27-.219-.375-.204-.094-.797-.094h-7.28q-.58 0-1.048-.375a2.44 2.44 0 0 1-.703-.953 3.1 3.1 0 0 1-.25-1.234v-.844l2.094-1a3.4 3.4 0 0 1-1.297-.812 4.2 4.2 0 0 1-.906-1.282 3.64 3.64 0 0 1 .39-3.625c.47-.656 1.149-1.18 2.047-1.578.907-.394 1.993-.593 3.266-.593q.81.001 1.797.125.998.11 1.562.343m-3.359 5.782q.92.001 1.734-.157.81-.168 1.297-.578c.32-.281.485-.664.485-1.156q-.002-.844-.485-1.234-.487-.404-1.297-.532a11.6 11.6 0 0 0-1.734-.125q-.937.001-1.734.125-.8.128-1.282.532-.485.39-.484 1.234-.001.844.484 1.25c.32.273.75.45 1.282.531q.796.11 1.734.11m41.181 5.906.281-.203q.281-.2.563-.641.28-.451.281-1.156v-11.281h-.656l-5.297 13.28h-4.875l-5.312-13.28h-.657v11.25q0 .69.282 1.14.281.439.562.672l.281.219h-4.765l.28-.25q.282-.247.563-.688.282-.452.282-1.062v-13.735h4.812l5.313 13.282h1.593l5.297-13.282h4.813v13.704q0 .75.281 1.203t.563.64l.28.188Zm9.344 0s.093-.07.28-.219a2.9 2.9 0 0 0 .563-.672q.282-.45.282-1.14v-7.86q0-.667-.282-1.125-.281-.45-.562-.672l-.281-.234h3.687l-.016 9.89q0 .69.282 1.141.279.439.547.672.264.22.265.219Zm2.343-13.063q-.627 0-.922-.422-.297-.435-.296-1.046-.001-.593.296-1.016.295-.437.922-.438c.446 0 .782.149 1 .438q.329.422.328 1.016 0 .61-.328 1.046-.329.422-1 .422M486.1 137.6s.095-.07.282-.219c.188-.156.367-.379.547-.672q.281-.45.281-1.14v-4.266q-.002-.809-.156-1.594a2.4 2.4 0 0 0-.687-1.281c-.344-.344-.868-.516-1.563-.516q-1.488.001-2.437.5-.938.487-1.407 1.313a3.5 3.5 0 0 0-.453 1.734v4.11q-.002.69.266 1.14.279.439.547.672l.28.219h-4.733s.093-.07.28-.219a2.9 2.9 0 0 0 .563-.672q.282-.45.282-1.14v-7.891q0-.668-.282-1.11-.281-.45-.562-.671l-.281-.22h3.656l-.016 3.017q.717-1.454 1.703-2.344c.664-.602 1.532-.906 2.594-.906q1.64 0 2.719.828 1.09.814 1.64 2.203.562 1.376.579 3.047l-.016 4.047q0 .69.281 1.14.281.439.563.672l.28.219Zm18.726 0s.094-.07.281-.219c.188-.156.367-.379.547-.672q.28-.45.281-1.14v-1.032q-.704 1.472-1.719 2.375-1.002.908-2.625.907-1.844.002-3.25-.829a5.96 5.96 0 0 1-2.203-2.234c-.523-.937-.78-1.973-.78-3.11q-.001-1.717.812-3.124a6.1 6.1 0 0 1 2.218-2.235q1.42-.843 3.203-.843 1.623.002 2.625.906 1.015.908 1.72 2.375v-6.281q0-.668-.282-1.125-.268-.45-.547-.672l-.281-.22h3.64v15.142q0 .69.282 1.14.281.439.562.672l.281.219Zm-3.235-2.219c1.063 0 1.91-.164 2.547-.5.633-.344 1.094-.797 1.375-1.36a4.1 4.1 0 0 0 .422-1.874q0-1.764-.984-2.766c-.649-.664-1.766-1-3.36-1q-1.078.002-1.921.484a3.44 3.44 0 0 0-1.297 1.329q-.47.844-.469 1.953-.001 1.094.484 1.937c.32.563.766 1.008 1.328 1.328a3.8 3.8 0 0 0 1.875.469m15.437-6.281q0 .504.515.797.515.282 1.375.484.872.188 1.89.36 1.032.157 2.063.39 1.046.235 1.891.61.856.375 1.39.984c.352.406.532.906.532 1.5q0 .454-.281 1.062-.27.612-.938 1.188-.656.58-1.86.969-1.205.375-3.062.375-1.797 0-3.25-.704-1.44-.7-2.265-1.859-.814-1.155-.813-2.484l2.547.172q-.001.972.484 1.5.498.533 1.36.734a8.4 8.4 0 0 0 1.937.203q1.812.002 2.703-.266.891-.28.891-.89 0-.375-.516-.61-.516-.246-1.39-.421a43 43 0 0 0-1.89-.36q-1.018-.187-2.048-.437a10 10 0 0 1-1.89-.672q-.864-.421-1.39-1.047-.517-.64-.517-1.578-.001-.468.36-1.094.357-.639 1.078-1.219.734-.591 1.86-.984 1.125-.389 2.671-.39 2.044 0 3.39.702 1.36.692 2.016 1.735.67 1.031.672 2.062l-2.547-.203q0-.654-.312-1.062-.3-.404-1.078-.578-.77-.188-2.14-.188-1.36 0-2.11.14-.738.142-1.031.407a.83.83 0 0 0-.297.672m16.274 4.969q.794 0 1.343.562.547.55.547 1.328v.719c0 .574-.187 1.039-.562 1.406a3.4 3.4 0 0 1-1.344.797q-.768.265-1.39.266v-.282q.42-.002.843-.203a2.7 2.7 0 0 0 .703-.422c.176-.156.266-.289.266-.39q-.019-.002-.031-.016-.019-.017-.032-.015a.1.1 0 0 0-.062.015.2.2 0 0 1-.078.016q-.016-.002-.063-.016a.1.1 0 0 0-.047-.015q-.035-.002-.046.015a.1.1 0 0 1-.047.016 1.83 1.83 0 0 1-1.344-.563 1.83 1.83 0 0 1-.547-1.328q-.002-.778.547-1.328a1.83 1.83 0 0 1 1.344-.562m-275.505 31.828q.247 0 .64-.297.388-.31.829-.75.45-.45.843-.906.405-.451.657-.75l.265-.313L260 168.35h-13.781s.093-.07.28-.219a2.9 2.9 0 0 0 .563-.672q.282-.451.282-1.156V154.63q0-.62-.282-1.078-.281-.451-.562-.688c-.188-.164-.281-.25-.281-.25h13.015l1.25 5.032q-.001.001-.265-.25-.253-.265-.641-.641a14 14 0 0 0-.844-.766 12 12 0 0 0-.843-.656q-.394-.264-.641-.265h-5.781q-.673 0-1.141.468a1.55 1.55 0 0 0-.453 1.125v2.453h4.844c.257 0 .554-.054.89-.171q.5-.17.828-.329c.227-.101.344-.156.344-.156v3.844l-.328-.188a4.5 4.5 0 0 0-.828-.375 2.6 2.6 0 0 0-.938-.187h-4.812v2.766c0 .437.148.812.453 1.125a1.55 1.55 0 0 0 1.125.453Zm7.807 2.453s.093-.07.28-.219a2.9 2.9 0 0 0 .563-.672q.282-.45.282-1.14v-13.125q0-.668-.282-1.125-.281-.452-.562-.657l-.281-.218h3.671l-.015 15.125q0 .69.281 1.14c.188.293.367.516.547.672q.28.22.281.219Zm16.724-2.219q1.531.001 2.516-.344c.656-.226 1.16-.484 1.515-.765q.546-.423.75-.75.218-.329.219-.328l1.078.671s-.062.133-.187.391a7.4 7.4 0 0 1-.579 1 6 6 0 0 1-1.109 1.188q-.689.579-1.719.984-1.02.388-2.437.39-1.798 0-3.063-.453c-.843-.312-1.554-.71-2.125-1.203q-.861-.75-1.359-1.593-.487-.843-.688-1.61-.203-.78-.203-1.312 0-.95.375-2.016a6.4 6.4 0 0 1 1.188-2.016q.826-.965 2.14-1.562 1.31-.593 3.22-.594 1.92 0 3.202.469 1.296.47 2.063 1.156.764.692 1.094 1.406.328.704.328 1.172-.002.627-.485 1.36-.487.738-1.484 1.265-.985.516-2.563.516-1.346.001-2.687-.156a38 38 0 0 1-2.375-.344 22 22 0 0 1-1.453-.297c0 .625.148 1.195.453 1.703q.45.768 1.5 1.219c.707.305 1.664.453 2.875.453m-.469-7.5q-1.921.001-2.953.813a3.5 3.5 0 0 0-1.297 2.046q.294.065 1.031.188.733.128 1.688.25a19 19 0 0 0 1.937.125q.985.002 1.829-.172.843-.169 1.375-.578.528-.42.53-1.156-.002-.716-.905-1.11-.89-.406-3.235-.406m21.129-2.203h6.485q-1.801.816-2.516 2.656l-3.687 9.266h-4.485l-3.687-9.266q-.721-1.84-2.516-2.656h6.469l-.953.406a1.04 1.04 0 0 0-.594.578 1.06 1.06 0 0 0 0 .844l3.031 7.64h.97l3.062-7.64a1.15 1.15 0 0 0-.016-.844 1 1 0 0 0-.594-.578Zm23.802 9.891q-.002.532.22.906.234.362.53.625a3.8 3.8 0 0 0 .766.5h-3.875l-.171-2.188q-.863 1.111-1.86 1.766-1.002.64-2.531.64-1.032-.001-2.156-.218a8 8 0 0 1-2.11-.719 4.6 4.6 0 0 1-1.578-1.281q-.61-.78-.61-1.906 0-1.013.61-1.75.61-.748 1.594-1.157a5.3 5.3 0 0 1 2.094-.422q1.373.001 2.687.204 1.312.206 2.344.453 1.044.233 1.516.375v-.188q0-1.278-.516-2-.516-.733-1.5-1.015-.986-.282-2.375-.282c-.867 0-1.578.102-2.14.297-.563.188-1.009.414-1.329.672-.312.25-.531.477-.656.672l-.188.297-1.078-.688.125-.375q.122-.387.438-.937.328-.545.937-1.094.609-.562 1.563-.937.95-.375 2.328-.375c.976 0 1.828.125 2.547.375a5.6 5.6 0 0 1 1.937 1.125q.546.516 1.125 1.203.575.69.938 1.562.375.862.375 1.906Zm-6.921-.188q1.793.002 2.906-.734c.75-.5 1.207-1.164 1.375-2q-.457-.077-1.234-.22a27 27 0 0 0-1.735-.25 18 18 0 0 0-1.906-.14 9 9 0 0 0-1.75.14q-.798.16-1.297.563c-.336.274-.5.657-.5 1.157q0 .58.375.89c.258.211.594.356 1 .438a7 7 0 0 0 1.344.14q.731.017 1.422.016m19.284-7.25h-2.875l-.016 7.438q0 .69.282 1.14.281.439.562.672l.281.219h-3.672l.016-9.469h-1.125v-2.453h1.125v-3.75h2.547v3.75h4Zm5.212 9.469s.093-.07.28-.219a2.9 2.9 0 0 0 .563-.672q.282-.45.282-1.14v-7.86q0-.667-.282-1.125-.281-.45-.562-.672l-.281-.234h3.687l-.016 9.89q0 .69.282 1.141.279.439.547.672.264.22.265.219Zm2.343-13.063q-.627 0-.922-.422-.297-.435-.296-1.046-.001-.594.296-1.016.295-.436.922-.438c.446 0 .782.149 1 .438q.329.423.328 1.016 0 .61-.328 1.046-.329.422-1 .422m16.136 13.063s.094-.07.281-.219c.188-.156.367-.379.547-.672q.281-.45.281-1.14v-4.266q-.002-.809-.156-1.594a2.4 2.4 0 0 0-.687-1.281c-.344-.344-.868-.516-1.563-.516q-1.488.001-2.437.5-.938.486-1.407 1.313a3.5 3.5 0 0 0-.453 1.734v4.11q-.002.69.266 1.14.279.439.547.672l.28.219h-4.733s.093-.07.28-.219a2.9 2.9 0 0 0 .563-.672q.282-.45.282-1.14v-7.891q0-.669-.282-1.11-.281-.45-.562-.671l-.281-.22h3.656l-.016 3.017q.717-1.454 1.703-2.344c.664-.602 1.532-.906 2.594-.906q1.64 0 2.719.828 1.09.814 1.64 2.203.562 1.376.579 3.047l-.016 4.047q0 .69.281 1.14.281.439.563.672l.28.219Zm18.756-11.688 3.75-.234v3.61-.016q-.001-.013-.031-.032a9 9 0 0 0-.156-.375 4 4 0 0 0-.329-.625 2.3 2.3 0 0 0-.53-.625 1.5 1.5 0 0 0-.798-.312q.781 1.065.782 2.5c0 .793-.243 1.523-.72 2.187q-.719.987-2.077 1.563-1.362.58-3.25.578-.562 0-1.032-.047a7 7 0 0 1-.906-.172l-1.14 1.172s.015.04.046.11q.06.11.704.109h7.562q.48.002.89.344.406.329.641.828c.164.336.258.656.282.969a4.5 4.5 0 0 1-.5 2.109 5.6 5.6 0 0 1-1.47 1.812c-.624.532-1.366.946-2.218 1.25a7.9 7.9 0 0 1-2.75.47 8 8 0 0 1-2.672-.438 7.5 7.5 0 0 1-2.156-1.188 5.8 5.8 0 0 1-1.453-1.719 4.3 4.3 0 0 1-.547-2.046l1.234.093a1 1 0 0 0-.015.172v.156q0 .546.61 1.125.62.575 1.874.97 1.249.404 3.125.405 1.606 0 2.61-.406 1.012-.392 1.5-.953.482-.55.484-1.047 0-.27-.219-.375-.205-.094-.797-.094h-7.281q-.579 0-1.047-.375a2.44 2.44 0 0 1-.703-.953 3.1 3.1 0 0 1-.25-1.234v-.844l2.094-1a3.4 3.4 0 0 1-1.297-.812 4.2 4.2 0 0 1-.906-1.282 3.64 3.64 0 0 1 .39-3.625q.702-.983 2.047-1.578 1.357-.592 3.266-.593.81 0 1.797.125.998.11 1.562.343m-3.36 5.782q.92.001 1.735-.157.81-.168 1.297-.578.482-.42.484-1.156c0-.563-.164-.973-.484-1.234q-.487-.404-1.297-.532a11.6 11.6 0 0 0-1.734-.125q-.937.001-1.735.125c-.53.086-.96.262-1.28.532q-.486.39-.485 1.234-.001.844.484 1.25c.32.273.75.45 1.281.531q.798.11 1.735.11m35.072-9.829 1.03 5.032q-.001.001-.25-.25-.252-.265-.64-.641a14 14 0 0 0-.844-.766 10 10 0 0 0-.859-.656q-.394-.264-.64-.265h-5.782q-.656 0-1.125.468a1.53 1.53 0 0 0-.469 1.125v2.453h4.86c.32 0 .64-.054.953-.171a7 7 0 0 0 .797-.329c.207-.101.312-.156.312-.156v3.813q-.002.002-.297-.172a3.7 3.7 0 0 0-.765-.36 2.7 2.7 0 0 0-1-.187h-4.86v4.766q0 .69.282 1.14.281.439.562.672l.281.219h-4.765l.281-.235a2.8 2.8 0 0 0 .563-.687q.28-.452.28-1.11v-11.687q0-.575-.28-1.031a3.1 3.1 0 0 0-.563-.719l-.281-.266Zm17.889 13.704q0 .69.28 1.14.282.439.563.672l.282.219h-3.672l.031-3.016q-.722 1.441-1.719 2.344-.984.89-2.578.89-1.643.001-2.734-.812-1.096-.827-1.64-2.187-.551-1.374-.579-3.063l.031-4.078q0-.669-.281-1.11-.281-.45-.563-.671l-.28-.22h4.75l-.282.235a2.7 2.7 0 0 0-.563.657c-.18.292-.265.664-.265 1.109v4.297q-.002.814.156 1.594.154.768.672 1.296c.344.344.867.516 1.578.516.988 0 1.797-.164 2.422-.5q.95-.515 1.406-1.328.47-.811.469-1.75v-4.125q0-.669-.281-1.11-.268-.45-.547-.671l-.281-.22h4.75l-.282.235a2.7 2.7 0 0 0-.562.657q-.281.44-.281 1.109Zm12.288-7.438h-2.874l-.016 7.438q0 .69.282 1.14.281.439.562.672l.281.219h-3.672l.016-9.469h-1.125v-2.453h1.125v-3.75h2.547v3.75h4Zm17.853 7.438q0 .69.281 1.14.281.439.563.672.28.22.281.219h-3.672l.032-3.016q-.721 1.441-1.72 2.344-.983.89-2.577.89-1.643.001-2.735-.812-1.095-.827-1.64-2.187-.55-1.374-.578-3.063l.03-4.078q0-.669-.28-1.11-.281-.45-.563-.671l-.281-.22h4.75l-.281.235a2.7 2.7 0 0 0-.563.657q-.268.44-.266 1.109v4.297q-.001.814.157 1.594c.101.511.328.945.672 1.296q.513.516 1.578.516c.988 0 1.797-.164 2.422-.5q.948-.515 1.406-1.328.469-.811.469-1.75v-4.125q0-.669-.282-1.11-.268-.45-.547-.671l-.28-.22h4.75l-.282.235a2.7 2.7 0 0 0-.563.657q-.28.44-.28 1.109Zm13.602-10.125q1.358.002 2.313.765c.644.5 1.14 1.18 1.484 2.031q.516 1.285.562 2.844l-2.546-.187c0-.696-.04-1.266-.11-1.703q-.112-.669-.5-.985-.376-.328-1.203-.328c-.824 0-1.562.18-2.219.531q-.985.517-1.531 1.344-.549.814-.547 1.703l-.031 4.11q0 .69.281 1.14.281.439.563.672l.28.219h-4.765s.094-.07.282-.219a2.9 2.9 0 0 0 .562-.672q.281-.45.281-1.14v-7.86q0-.667-.281-1.125-.281-.45-.562-.672l-.282-.234h3.672v3.016q.717-1.454 1.703-2.344c.664-.602 1.532-.906 2.594-.906m16.216 9.937q1.531.001 2.516-.344c.656-.226 1.16-.484 1.515-.765q.546-.423.75-.75.218-.329.219-.328l1.078.671s-.062.133-.187.391a7.4 7.4 0 0 1-.579 1 6 6 0 0 1-1.109 1.188q-.688.579-1.719.984-1.02.388-2.437.39-1.798 0-3.063-.453c-.843-.312-1.554-.71-2.125-1.203q-.861-.75-1.359-1.593-.487-.843-.688-1.61-.204-.78-.203-1.312 0-.95.375-2.016a6.4 6.4 0 0 1 1.188-2.016q.826-.965 2.14-1.562 1.31-.593 3.22-.594 1.92 0 3.202.469 1.295.47 2.063 1.156.764.692 1.094 1.406.327.704.328 1.172-.002.627-.485 1.36-.487.738-1.484 1.265-.985.516-2.563.516-1.346.001-2.687-.156a38 38 0 0 1-2.375-.344 22 22 0 0 1-1.453-.297c0 .625.148 1.195.453 1.703q.45.768 1.5 1.219c.707.305 1.664.453 2.875.453m-.469-7.5q-1.921.001-2.953.813a3.5 3.5 0 0 0-1.297 2.046q.294.065 1.031.188.733.128 1.688.25a19 19 0 0 0 1.937.125q.985.002 1.829-.172.843-.169 1.375-.578.528-.42.53-1.156-.002-.716-.905-1.11-.89-.406-3.235-.406m14.317 1.219q0 .504.516.797.514.282 1.375.484.871.188 1.89.36 1.031.157 2.063.39a10 10 0 0 1 1.89.61q.856.375 1.39.984.53.609.532 1.5 0 .454-.281 1.062-.27.612-.938 1.188-.657.58-1.859.969-1.206.375-3.062.375-1.799 0-3.25-.704-1.44-.7-2.266-1.859-.814-1.155-.813-2.484l2.547.172q-.001.972.485 1.5.498.533 1.36.734a8.4 8.4 0 0 0 1.937.203q1.811.002 2.703-.266.89-.28.89-.89 0-.375-.515-.61-.517-.246-1.39-.421a43 43 0 0 0-1.892-.36 37 37 0 0 1-2.046-.437 10 10 0 0 1-1.891-.672q-.863-.422-1.39-1.047-.516-.64-.516-1.578c0-.313.117-.676.36-1.094q.356-.639 1.077-1.219.733-.591 1.86-.984 1.125-.388 2.671-.39 2.045 0 3.391.702 1.359.692 2.016 1.735c.445.687.672 1.375.672 2.062l-2.547-.203q-.001-.654-.313-1.062-.298-.404-1.078-.578-.769-.188-2.14-.188-1.36 0-2.11.14-.738.142-1.031.407a.83.83 0 0 0-.297.672m17.696 2.969h-1.906l-.329-10.454h2.563Zm-.953 5.78q-.785 0-1.328-.562a1.83 1.83 0 0 1-.547-1.328q-.002-.778.547-1.328a1.78 1.78 0 0 1 1.328-.562q.794 0 1.343.562.546.55.547 1.328 0 .767-.547 1.328a1.8 1.8 0 0 1-1.343.563m0 0"/><g clip-path="url(#f)" transform="translate(206 66)"><path fill="#eb8c29" d="M2.775 9.703h7.36v23.046h12.671v7.11H2.775Zm24.815-.25h19.86v7.093H34.997v4.235h12.187v7.14H34.997v4.828h12.5v7.11H27.59Zm35.368-.094h5.25l12.547 30.5h-8.313l-1.687-4.438H60.458l-1.672 4.438h-7.89Zm2.672 12.156-2.234 6.375-.266.688h5l-.172-.516ZM95.662 9.453c2.29 0 4.203.492 5.735 1.468q2.308 1.456 3.468 3.766a10.4 10.4 0 0 1 1.172 4.797q-.002 2.754-1.469 5.39c-.968 1.75-2.449 3.102-4.437 4.047l6.469 9.563v1.375h-7.844l-6.281-10.203h-1.203v10.203h-7.329V9.453Zm-.172 13.515q1.623.001 2.485-1 .874-1.015.875-2.187 0-1.202-.844-2.235-.845-1.03-2.516-1.03h-4.218v6.452Zm31.834-13.265h7.282v30.156h-5.782l-10.28-14.688V39.86h-7.329V9.703h5.688l10.421 15.078Zm29.862 30.156h-17.359v-6.594h4.984V16.25h-4.984V9.531h17.36v6.718h-5v17.016h5Zm20.977-30.156h7.28v30.156h-5.78L169.38 25.17v14.69h-7.328V9.703h5.688l10.422 15.078Zm27.44 6.765q-2.191 0-3.953 1.078-1.77 1.079-2.813 2.953c-.687 1.25-1.031 2.696-1.031 4.329q0 2.53 1.031 4.453 1.043 1.922 2.813 2.984 1.762 1.049 3.953 1.047c1.008 0 2.05-.195 3.125-.594q1.622-.609 2.828-2.203h-9.219v-6.594h18.438q0 2.627-.375 4.282-.364 1.658-.704 2.53c-.687 1.919-1.789 3.595-3.296 5.032a16.9 16.9 0 0 1-5.11 3.36q-2.847 1.201-5.687 1.203c-2.18 0-4.196-.383-6.047-1.141a14.6 14.6 0 0 1-4.86-3.219q-2.064-2.09-3.203-4.937-1.14-2.841-1.14-6.203-.002-3.404 1.156-6.25c.781-1.895 1.867-3.536 3.266-4.922a14.8 14.8 0 0 1 4.859-3.235c1.852-.757 3.844-1.14 5.969-1.14q2.2.002 4.625.672a15.7 15.7 0 0 1 4.64 2.125q2.203 1.452 3.766 3.89c1.05 1.625 1.734 3.633 2.047 6.016h-7.75c-.344-1.438-.93-2.555-1.75-3.36q-1.22-1.202-2.719-1.671c-.992-.32-1.945-.485-2.86-.485m0 0"/><path fill="#002f6c" d="M223.825 21.374h13.266v6.641h-13.266Zm26.36 3.454c0 1.898.398 3.476 1.203 4.734q1.218 1.893 3.11 2.844a8.7 8.7 0 0 0 3.968.953 8.6 8.6 0 0 0 3.39-.688 8.1 8.1 0 0 0 2.86-2.047q1.231-1.358 1.719-3.437h7.453q-.563 3.924-2.75 6.875a15 15 0 0 1-5.469 4.594q-3.3 1.64-7.203 1.64c-2.156 0-4.18-.386-6.062-1.156a15.7 15.7 0 0 1-4.97-3.266 15.2 15.2 0 0 1-3.374-4.906c-.805-1.883-1.203-3.93-1.203-6.14 0-2.207.398-4.258 1.203-6.157a15.3 15.3 0 0 1 3.375-4.953 15.6 15.6 0 0 1 4.969-3.297c1.882-.789 3.906-1.187 6.062-1.187q3.872 0 7.188 1.64a15.06 15.06 0 0 1 5.5 4.563q2.202 2.924 2.687 6.797h-7.453q-.487-2.016-1.719-3.328a8 8 0 0 0-2.86-1.985 8.7 8.7 0 0 0-3.343-.672q-2.08.002-3.969.954-1.891.939-3.109 2.843c-.805 1.262-1.203 2.856-1.203 4.782m40.03 15.468q-2.203-.001-4.297-.625a12 12 0 0 1-3.765-1.875 9.2 9.2 0 0 1-2.672-3.14q-.984-1.906-.984-4.485V9.703h7.359v20.421c0 1.118.437 1.954 1.312 2.516a5.26 5.26 0 0 0 2.907.844q1.64 0 2.968-.844 1.343-.841 1.344-2.516V9.703h7.375V30.17q0 2.532-.969 4.438a9.3 9.3 0 0 1-2.64 3.172 11.6 11.6 0 0 1-3.719 1.89 14.6 14.6 0 0 1-4.219.625m30.932-30.592c1.601 0 3 .398 4.187 1.187a8.25 8.25 0 0 1 2.782 3.047c.664 1.23 1 2.508 1 3.828q0 1.548-.688 3.031c-.46.993-1.195 1.828-2.203 2.516q2.421 1.22 3.453 3.078 1.031 1.847 1.031 3.734 0 2.408-1.109 4.657-1.096 2.237-3.234 3.656-2.126 1.424-5.313 1.422h-13.86V9.703Zm-1.125 10.906q.996 0 1.453-.672.452-.668.453-1.484c0-.52-.164-.993-.484-1.422q-.471-.657-1.328-.657h-5.641v4.235Zm1.031 12.265c.781 0 1.363-.273 1.75-.828a3.26 3.26 0 0 0 .578-1.875q-.002-1.03-.578-1.89-.58-.874-1.75-.875h-6.578v5.468Zm14.572-23.421h19.86v7.093H343.03v4.235h12.188v7.14H343.03v4.828h12.5v7.11h-19.906Zm0 0"/></g></svg>