<svg xmlns="http://www.w3.org/2000/svg" xmlns:xlink="http://www.w3.org/1999/xlink" width="800" zoomAndPan="magnify" viewBox="0 40 600 200" height="260" preserveAspectRatio="xMidYMid meet" version="1.0"><defs><g/><clipPath id="af3b966b57"><path d="M 72 0.648438 L 140.085938 0.648438 L 140.085938 107.800781 L 72 107.800781 Z M 72 0.648438 " clip-rule="nonzero"/></clipPath><clipPath id="156918ca21"><path d="M 1.179688 0.648438 L 70 0.648438 L 70 107.800781 L 1.179688 107.800781 Z M 1.179688 0.648438 " clip-rule="nonzero"/></clipPath><clipPath id="a0c793e284"><path d="M 48 42 L 94 42 L 94 80.367188 L 48 80.367188 Z M 48 42 " clip-rule="nonzero"/></clipPath><clipPath id="ca9030f537"><path d="M 44 14.773438 L 97.882812 14.773438 L 97.882812 38 L 44 38 Z M 44 14.773438 " clip-rule="nonzero"/></clipPath><clipPath id="e39a7e085f"><rect x="0" width="142" y="0" height="108"/></clipPath><clipPath id="f42a4c8e46"><rect x="0" width="360" y="0" height="51"/></clipPath></defs><g transform="matrix(1, 0, 0, 1, 27, 65)"><g clip-path="url(#e39a7e085f)"><g clip-path="url(#af3b966b57)"><path fill="#eb8c29" d="M 140.785156 53.703125 L 140.765625 48.714844 L 140.722656 43.726562 C 140.6875 40.402344 140.675781 37.074219 140.621094 33.75 L 140.46875 23.773438 L 140.265625 13.796875 L 140.007812 3.820312 L 139.945312 1.359375 L 137.691406 1.121094 L 135.878906 0.933594 C 135.277344 0.871094 134.671875 0.847656 134.066406 0.800781 C 133.464844 0.753906 132.859375 0.75 132.253906 0.726562 L 131.347656 0.703125 L 130.4375 0.707031 C 129.835938 0.710938 129.230469 0.714844 128.628906 0.746094 C 128.027344 0.777344 127.421875 0.78125 126.820312 0.84375 C 125.621094 0.925781 124.425781 1.058594 123.230469 1.210938 L 121.453125 1.476562 L 119.683594 1.796875 C 119.09375 1.914062 118.511719 2.042969 117.925781 2.167969 C 117.34375 2.300781 116.765625 2.453125 116.1875 2.59375 C 113.878906 3.199219 111.609375 3.914062 109.394531 4.765625 C 108.289062 5.1875 107.195312 5.632812 106.113281 6.109375 C 105.03125 6.582031 103.964844 7.082031 102.914062 7.613281 C 101.859375 8.140625 100.824219 8.691406 99.796875 9.265625 C 98.769531 9.832031 97.765625 10.4375 96.769531 11.050781 C 95.777344 11.667969 94.792969 12.304688 93.832031 12.960938 C 92.871094 13.625 91.917969 14.292969 90.984375 14.992188 C 90.054688 15.695312 89.136719 16.40625 88.234375 17.144531 C 87.328125 17.867188 86.449219 18.628906 85.578125 19.394531 C 86.566406 18.78125 87.550781 18.171875 88.542969 17.582031 C 89.53125 16.988281 90.539062 16.417969 91.546875 15.863281 L 93.0625 15.039062 L 94.59375 14.242188 C 95.617188 13.726562 96.644531 13.214844 97.683594 12.734375 C 98.71875 12.25 99.765625 11.789062 100.816406 11.34375 C 101.867188 10.898438 102.925781 10.472656 103.992188 10.078125 C 104.523438 9.882812 105.054688 9.683594 105.59375 9.5 C 106.128906 9.3125 106.664062 9.121094 107.203125 8.953125 C 108.277344 8.597656 109.363281 8.273438 110.453125 7.976562 C 111.539062 7.675781 112.632812 7.402344 113.730469 7.15625 C 114.824219 6.90625 115.925781 6.691406 117.03125 6.5 C 117.585938 6.414062 118.132812 6.3125 118.6875 6.238281 L 120.347656 6.023438 L 122.011719 5.847656 L 123.675781 5.726562 C 124.785156 5.667969 125.894531 5.628906 127 5.636719 C 127.554688 5.625 128.109375 5.648438 128.660156 5.660156 C 129.210938 5.660156 129.765625 5.695312 130.316406 5.730469 L 131.140625 5.777344 L 131.964844 5.851562 C 132.511719 5.90625 133.0625 5.945312 133.605469 6.023438 C 133.902344 6.066406 134.195312 6.101562 134.492188 6.140625 L 134.292969 13.796875 L 134.089844 23.773438 L 133.9375 33.75 C 133.878906 37.074219 133.871094 40.402344 133.835938 43.726562 L 133.789062 48.714844 L 133.773438 53.703125 L 133.75 63.679688 L 133.777344 73.65625 C 133.78125 75.769531 133.800781 77.882812 133.820312 79.996094 C 133.574219 79.988281 133.332031 79.980469 133.085938 79.976562 C 131.585938 79.949219 130.09375 79.972656 128.605469 80.035156 C 127.863281 80.0625 127.121094 80.113281 126.378906 80.152344 C 125.636719 80.210938 124.898438 80.257812 124.15625 80.328125 C 122.679688 80.464844 121.203125 80.625 119.734375 80.832031 C 118.269531 81.042969 116.808594 81.289062 115.351562 81.5625 L 113.175781 82.003906 L 111.011719 82.5 C 109.574219 82.855469 108.136719 83.21875 106.722656 83.65625 L 105.660156 83.96875 L 104.601562 84.3125 C 103.902344 84.550781 103.195312 84.765625 102.5 85.019531 L 100.414062 85.777344 C 99.726562 86.039062 99.039062 86.324219 98.355469 86.601562 L 97.332031 87.023438 L 96.320312 87.476562 C 95.648438 87.785156 94.96875 88.070312 94.304688 88.394531 L 92.316406 89.375 C 91.652344 89.691406 91.011719 90.0625 90.359375 90.40625 C 89.054688 91.089844 87.800781 91.871094 86.53125 92.621094 C 85.902344 93.003906 85.292969 93.417969 84.675781 93.816406 C 84.058594 94.21875 83.4375 94.609375 82.84375 95.046875 L 81.050781 96.332031 C 80.453125 96.757812 79.886719 97.230469 79.308594 97.675781 C 78.136719 98.5625 77.027344 99.523438 75.921875 100.480469 C 75.621094 100.734375 75.328125 100.996094 75.042969 101.261719 L 74.902344 98.625 L 74.554688 92.660156 L 74.363281 89.679688 C 74.300781 88.683594 74.234375 87.691406 74.160156 86.695312 C 74.011719 84.707031 73.878906 82.71875 73.707031 80.730469 C 73.539062 82.71875 73.40625 84.707031 73.257812 86.695312 C 73.183594 87.691406 73.117188 88.683594 73.054688 89.679688 L 72.863281 92.660156 L 72.515625 98.625 L 72.199219 104.589844 L 72.027344 107.785156 L 74.714844 105.714844 L 76.386719 104.425781 C 76.941406 104 77.488281 103.558594 78.074219 103.164062 L 79.789062 101.945312 L 80.214844 101.640625 L 80.65625 101.355469 L 81.535156 100.78125 C 82.125 100.40625 82.699219 100.003906 83.300781 99.648438 L 85.105469 98.578125 C 85.695312 98.207031 86.3125 97.882812 86.925781 97.542969 C 87.539062 97.214844 88.140625 96.863281 88.765625 96.546875 C 90.015625 95.933594 91.246094 95.285156 92.527344 94.730469 C 93.164062 94.449219 93.78125 94.136719 94.429688 93.878906 L 96.355469 93.078125 C 96.996094 92.8125 97.65625 92.585938 98.304688 92.335938 L 99.277344 91.972656 L 100.265625 91.640625 C 100.925781 91.425781 101.574219 91.183594 102.238281 90.976562 L 104.226562 90.367188 C 104.890625 90.164062 105.566406 90 106.230469 89.8125 L 107.234375 89.542969 L 108.246094 89.300781 C 109.59375 88.964844 110.949219 88.6875 112.304688 88.40625 L 114.347656 88.023438 L 116.398438 87.699219 C 117.769531 87.5 119.140625 87.324219 120.515625 87.183594 C 121.890625 87.039062 123.269531 86.925781 124.648438 86.839844 C 125.335938 86.796875 126.027344 86.769531 126.714844 86.738281 C 127.40625 86.722656 128.09375 86.691406 128.78125 86.691406 C 130.160156 86.667969 131.53125 86.703125 132.898438 86.746094 C 133.578125 86.773438 134.257812 86.808594 134.929688 86.855469 C 135.265625 86.878906 135.601562 86.90625 135.929688 86.933594 L 136.414062 86.984375 L 136.84375 87.03125 L 140.675781 87.472656 L 140.703125 83.636719 C 140.726562 80.308594 140.777344 76.984375 140.777344 73.65625 L 140.808594 63.679688 L 140.785156 53.703125 " fill-opacity="1" fill-rule="nonzero"/></g><g clip-path="url(#156918ca21)"><path fill="#002f6c" d="M 1.203125 53.703125 L 1.21875 48.714844 L 1.265625 43.726562 C 1.296875 40.402344 1.308594 37.074219 1.367188 33.75 L 1.515625 23.773438 L 1.722656 13.796875 L 1.980469 3.820312 L 2.042969 1.359375 L 4.296875 1.121094 L 6.105469 0.933594 C 6.710938 0.871094 7.316406 0.847656 7.921875 0.800781 C 8.523438 0.753906 9.128906 0.75 9.734375 0.726562 L 10.640625 0.703125 L 11.546875 0.707031 C 12.152344 0.710938 12.753906 0.714844 13.359375 0.746094 C 13.960938 0.777344 14.5625 0.78125 15.164062 0.84375 C 16.367188 0.925781 17.5625 1.058594 18.753906 1.210938 L 20.535156 1.476562 L 22.304688 1.796875 C 22.890625 1.914062 23.476562 2.042969 24.058594 2.167969 C 24.640625 2.300781 25.21875 2.453125 25.796875 2.59375 C 28.105469 3.199219 30.378906 3.914062 32.589844 4.765625 C 33.695312 5.1875 34.792969 5.632812 35.871094 6.109375 C 36.953125 6.582031 38.023438 7.082031 39.074219 7.613281 C 40.125 8.140625 41.164062 8.691406 42.1875 9.265625 C 43.214844 9.832031 44.21875 10.4375 45.214844 11.050781 C 46.210938 11.667969 47.191406 12.304688 48.15625 12.960938 C 49.117188 13.625 50.070312 14.292969 51.003906 14.992188 C 51.929688 15.695312 52.851562 16.40625 53.75 17.144531 C 54.660156 17.867188 55.539062 18.628906 56.40625 19.394531 C 55.421875 18.78125 54.4375 18.171875 53.445312 17.582031 C 52.453125 16.988281 51.449219 16.417969 50.441406 15.863281 L 48.925781 15.039062 L 47.394531 14.242188 C 46.367188 13.726562 45.34375 13.214844 44.304688 12.734375 C 43.265625 12.25 42.21875 11.789062 41.167969 11.34375 C 40.121094 10.898438 39.0625 10.472656 37.996094 10.078125 C 37.460938 9.882812 36.929688 9.683594 36.394531 9.5 C 35.859375 9.3125 35.324219 9.121094 34.78125 8.953125 C 33.707031 8.597656 32.625 8.273438 31.535156 7.976562 C 30.445312 7.675781 29.351562 7.402344 28.257812 7.15625 C 27.160156 6.90625 26.058594 6.691406 24.957031 6.5 C 24.402344 6.414062 23.851562 6.3125 23.296875 6.238281 L 21.636719 6.023438 L 19.976562 5.847656 L 18.3125 5.726562 C 17.203125 5.667969 16.09375 5.628906 14.984375 5.636719 C 14.433594 5.625 13.878906 5.648438 13.328125 5.660156 C 12.773438 5.660156 12.222656 5.695312 11.671875 5.730469 L 10.847656 5.777344 L 10.023438 5.851562 C 9.472656 5.90625 8.925781 5.945312 8.378906 6.023438 C 8.085938 6.066406 7.789062 6.101562 7.496094 6.140625 L 7.695312 13.796875 L 7.898438 23.773438 L 8.046875 33.75 C 8.105469 37.074219 8.117188 40.402344 8.152344 43.726562 L 8.195312 48.714844 L 8.214844 53.703125 L 8.238281 63.679688 L 8.207031 73.65625 C 8.207031 75.769531 8.1875 77.882812 8.164062 79.996094 C 8.410156 79.988281 8.65625 79.980469 8.902344 79.976562 C 10.398438 79.949219 11.894531 79.972656 13.378906 80.035156 C 14.125 80.0625 14.867188 80.113281 15.609375 80.152344 C 16.347656 80.210938 17.089844 80.257812 17.828125 80.328125 C 19.308594 80.464844 20.78125 80.625 22.25 80.832031 C 23.71875 81.042969 25.179688 81.289062 26.632812 81.5625 L 28.8125 82.003906 L 30.976562 82.5 C 32.414062 82.855469 33.847656 83.21875 35.261719 83.65625 L 36.328125 83.96875 L 37.382812 84.3125 C 38.085938 84.550781 38.792969 84.765625 39.484375 85.019531 L 41.570312 85.777344 C 42.261719 86.039062 42.945312 86.324219 43.628906 86.601562 L 44.65625 87.023438 L 45.667969 87.476562 C 46.339844 87.785156 47.019531 88.070312 47.683594 88.394531 L 49.667969 89.375 C 50.335938 89.691406 50.972656 90.0625 51.628906 90.40625 C 52.933594 91.089844 54.1875 91.871094 55.453125 92.621094 C 56.082031 93.003906 56.691406 93.417969 57.3125 93.816406 C 57.929688 94.21875 58.550781 94.609375 59.144531 95.046875 L 60.933594 96.332031 C 61.53125 96.757812 62.097656 97.230469 62.679688 97.675781 C 63.847656 98.5625 64.957031 99.523438 66.066406 100.480469 C 66.367188 100.734375 66.65625 100.996094 66.945312 101.261719 L 67.082031 98.625 L 67.433594 92.660156 L 67.625 89.679688 C 67.6875 88.683594 67.753906 87.691406 67.828125 86.695312 C 67.976562 84.707031 68.105469 82.71875 68.277344 80.730469 C 68.449219 82.71875 68.582031 84.707031 68.730469 86.695312 C 68.804688 87.691406 68.871094 88.683594 68.933594 89.679688 L 69.125 92.660156 L 69.472656 98.625 L 69.789062 104.589844 L 69.957031 107.785156 L 67.273438 105.714844 L 65.601562 104.425781 C 65.042969 104 64.496094 103.558594 63.914062 103.164062 L 62.199219 101.945312 L 61.773438 101.640625 L 61.332031 101.355469 L 60.449219 100.78125 C 59.859375 100.40625 59.289062 100.003906 58.683594 99.648438 L 56.882812 98.578125 C 56.292969 98.207031 55.671875 97.882812 55.0625 97.542969 C 54.445312 97.214844 53.84375 96.863281 53.222656 96.546875 C 51.972656 95.933594 50.738281 95.285156 49.460938 94.730469 C 48.824219 94.449219 48.203125 94.136719 47.558594 93.878906 L 45.632812 93.078125 C 44.992188 92.8125 44.332031 92.585938 43.683594 92.335938 L 42.707031 91.972656 L 41.722656 91.640625 C 41.0625 91.425781 40.410156 91.183594 39.75 90.976562 L 37.757812 90.367188 C 37.097656 90.164062 36.421875 90 35.753906 89.8125 L 34.75 89.542969 L 33.738281 89.300781 C 32.394531 88.964844 31.035156 88.6875 29.679688 88.40625 L 27.640625 88.023438 L 25.589844 87.699219 C 24.21875 87.5 22.84375 87.324219 21.46875 87.183594 C 20.09375 87.039062 18.71875 86.925781 17.339844 86.839844 C 16.648438 86.796875 15.960938 86.769531 15.269531 86.738281 C 14.582031 86.722656 13.890625 86.691406 13.203125 86.691406 C 11.828125 86.667969 10.453125 86.703125 9.089844 86.746094 C 8.40625 86.773438 7.726562 86.808594 7.054688 86.855469 C 6.71875 86.878906 6.386719 86.90625 6.058594 86.933594 L 5.570312 86.984375 L 5.140625 87.03125 L 1.308594 87.472656 L 1.28125 83.636719 C 1.257812 80.308594 1.207031 76.984375 1.207031 73.65625 L 1.179688 63.679688 L 1.203125 53.703125 " fill-opacity="1" fill-rule="nonzero"/></g><g clip-path="url(#a0c793e284)"><path fill="#002f6c" d="M 84.070312 56.066406 C 83.835938 52.785156 82.886719 49.621094 81.296875 46.757812 L 81.378906 46.722656 L 81.328125 46.644531 C 81.410156 46.605469 81.484375 46.566406 81.5625 46.527344 C 81.59375 46.511719 81.621094 46.496094 81.648438 46.476562 C 81.851562 46.371094 82.046875 46.257812 82.246094 46.148438 C 82.289062 46.121094 82.332031 46.097656 82.371094 46.074219 C 82.570312 45.953125 82.769531 45.835938 82.96875 45.714844 C 82.976562 45.710938 82.980469 45.703125 82.988281 45.699219 C 83.179688 45.578125 83.367188 45.457031 83.554688 45.332031 C 83.59375 45.304688 83.628906 45.28125 83.671875 45.25 C 83.859375 45.125 84.042969 44.996094 84.226562 44.863281 C 84.261719 44.835938 84.292969 44.8125 84.328125 44.789062 C 84.496094 44.664062 84.660156 44.535156 84.824219 44.414062 C 84.84375 44.394531 84.863281 44.378906 84.886719 44.363281 C 87.933594 47.546875 89.804688 51.6875 90.179688 56.066406 Z M 84.886719 71.042969 C 84.867188 71.03125 84.851562 71.019531 84.835938 71.011719 C 84.667969 70.875 84.496094 70.746094 84.320312 70.621094 C 84.289062 70.597656 84.261719 70.570312 84.230469 70.550781 C 84.046875 70.414062 83.859375 70.285156 83.671875 70.15625 C 83.628906 70.128906 83.59375 70.109375 83.558594 70.082031 C 83.367188 69.953125 83.179688 69.828125 82.988281 69.707031 C 82.980469 69.703125 82.976562 69.699219 82.96875 69.695312 C 82.769531 69.574219 82.570312 69.453125 82.371094 69.335938 C 82.332031 69.3125 82.289062 69.285156 82.246094 69.265625 C 82.046875 69.148438 81.851562 69.039062 81.652344 68.933594 C 81.621094 68.914062 81.589844 68.898438 81.558594 68.882812 C 81.484375 68.839844 81.410156 68.800781 81.332031 68.765625 C 81.304688 68.75 81.28125 68.738281 81.257812 68.722656 C 81.269531 68.703125 81.28125 68.675781 81.296875 68.648438 C 82.886719 65.789062 83.835938 62.628906 84.070312 59.347656 L 90.179688 59.347656 C 89.804688 63.726562 87.933594 67.867188 84.886719 71.042969 Z M 75.328125 76.472656 C 74.753906 76.605469 74.171875 76.710938 73.585938 76.789062 C 73.589844 76.785156 73.589844 76.785156 73.59375 76.78125 C 73.605469 76.777344 73.613281 76.773438 73.621094 76.765625 C 73.6875 76.726562 73.75 76.6875 73.816406 76.640625 C 73.859375 76.613281 73.902344 76.585938 73.953125 76.558594 C 74.011719 76.515625 74.070312 76.472656 74.132812 76.433594 C 74.15625 76.417969 74.175781 76.40625 74.199219 76.390625 C 74.222656 76.375 74.246094 76.359375 74.269531 76.34375 C 74.324219 76.304688 74.375 76.269531 74.425781 76.234375 C 74.441406 76.222656 74.460938 76.207031 74.484375 76.195312 C 74.566406 76.132812 74.65625 76.074219 74.738281 76.015625 C 74.757812 76 74.777344 75.988281 74.796875 75.972656 C 74.828125 75.945312 74.863281 75.925781 74.890625 75.902344 C 74.941406 75.867188 74.992188 75.828125 75.039062 75.792969 C 75.125 75.726562 75.21875 75.660156 75.304688 75.589844 C 75.335938 75.566406 75.367188 75.546875 75.398438 75.523438 C 75.433594 75.492188 75.472656 75.464844 75.511719 75.429688 C 75.621094 75.34375 75.734375 75.253906 75.84375 75.164062 C 75.871094 75.144531 75.898438 75.121094 75.925781 75.097656 C 75.933594 75.089844 75.945312 75.078125 75.957031 75.070312 C 76.105469 74.953125 76.25 74.828125 76.398438 74.699219 C 76.410156 74.6875 76.425781 74.675781 76.4375 74.660156 C 76.46875 74.636719 76.496094 74.609375 76.527344 74.578125 C 76.628906 74.496094 76.726562 74.402344 76.824219 74.316406 C 76.859375 74.28125 76.902344 74.246094 76.941406 74.207031 C 76.96875 74.179688 77 74.152344 77.027344 74.125 C 77.105469 74.054688 77.179688 73.984375 77.253906 73.910156 C 77.296875 73.867188 77.34375 73.824219 77.386719 73.78125 C 77.421875 73.75 77.453125 73.71875 77.484375 73.683594 C 77.492188 73.675781 77.5 73.667969 77.503906 73.664062 C 77.523438 73.648438 77.535156 73.632812 77.550781 73.617188 C 77.613281 73.558594 77.667969 73.5 77.726562 73.441406 C 77.746094 73.417969 77.773438 73.398438 77.792969 73.375 C 77.839844 73.320312 77.886719 73.273438 77.9375 73.222656 C 77.9375 73.222656 77.9375 73.222656 77.941406 73.222656 C 77.941406 73.222656 77.941406 73.21875 77.941406 73.21875 C 77.976562 73.179688 78.015625 73.140625 78.050781 73.101562 C 78.09375 73.054688 78.140625 73.003906 78.183594 72.957031 C 78.21875 72.917969 78.253906 72.878906 78.292969 72.835938 C 78.355469 72.769531 78.417969 72.699219 78.484375 72.625 C 78.511719 72.59375 78.542969 72.558594 78.570312 72.527344 C 78.613281 72.476562 78.65625 72.425781 78.699219 72.378906 C 78.765625 72.296875 78.832031 72.222656 78.898438 72.140625 C 78.925781 72.105469 78.957031 72.070312 78.988281 72.035156 C 79.019531 72.003906 79.046875 71.964844 79.074219 71.929688 C 79.167969 71.816406 79.261719 71.699219 79.355469 71.578125 C 79.371094 71.558594 79.382812 71.539062 79.398438 71.523438 C 79.402344 71.519531 79.40625 71.515625 79.410156 71.511719 C 79.417969 71.5 79.421875 71.492188 79.429688 71.484375 C 79.660156 71.59375 79.894531 71.714844 80.121094 71.839844 C 80.195312 71.878906 80.261719 71.914062 80.332031 71.953125 C 80.492188 72.042969 80.652344 72.132812 80.8125 72.230469 C 80.886719 72.273438 80.960938 72.316406 81.035156 72.363281 C 81.203125 72.464844 81.367188 72.574219 81.53125 72.683594 C 81.589844 72.71875 81.644531 72.75 81.695312 72.785156 C 81.910156 72.929688 82.125 73.078125 82.335938 73.234375 C 82.34375 73.238281 82.351562 73.246094 82.359375 73.253906 C 80.261719 74.789062 77.859375 75.890625 75.328125 76.472656 Z M 73.039062 73.1875 C 72.902344 73.285156 72.773438 73.382812 72.636719 73.476562 L 72.636719 69.613281 C 73.847656 69.714844 75.039062 69.925781 76.195312 70.253906 C 76.191406 70.257812 76.1875 70.261719 76.183594 70.269531 C 76.019531 70.457031 75.859375 70.640625 75.6875 70.824219 C 75.644531 70.867188 75.605469 70.90625 75.5625 70.953125 C 75.40625 71.121094 75.246094 71.28125 75.082031 71.441406 C 75.0625 71.457031 75.046875 71.480469 75.03125 71.496094 C 74.851562 71.671875 74.671875 71.839844 74.484375 72.007812 C 74.4375 72.046875 74.394531 72.085938 74.347656 72.125 C 74.175781 72.28125 73.996094 72.433594 73.816406 72.582031 C 73.804688 72.59375 73.789062 72.605469 73.769531 72.617188 C 73.578125 72.777344 73.382812 72.929688 73.1875 73.078125 C 73.136719 73.117188 73.089844 73.152344 73.039062 73.1875 Z M 72.636719 59.347656 L 80.777344 59.347656 C 80.53125 62.210938 79.660156 64.964844 78.207031 67.4375 C 76.40625 66.832031 74.542969 66.457031 72.636719 66.316406 Z M 72.636719 49.09375 C 74.542969 48.957031 76.40625 48.582031 78.207031 47.972656 C 79.660156 50.445312 80.53125 53.199219 80.777344 56.066406 L 72.636719 56.066406 Z M 69.355469 56.066406 L 61.210938 56.066406 C 61.453125 53.199219 62.328125 50.445312 63.78125 47.972656 C 65.582031 48.582031 67.445312 48.957031 69.355469 49.09375 Z M 69.355469 66.316406 C 67.445312 66.457031 65.582031 66.832031 63.78125 67.4375 C 62.328125 64.964844 61.453125 62.210938 61.210938 59.347656 L 69.355469 59.347656 Z M 69.355469 73.476562 C 69.21875 73.382812 69.082031 73.289062 68.953125 73.1875 C 68.898438 73.152344 68.851562 73.113281 68.800781 73.078125 C 68.777344 73.058594 68.753906 73.042969 68.726562 73.023438 C 68.554688 72.890625 68.382812 72.753906 68.210938 72.617188 C 68.199219 72.605469 68.1875 72.59375 68.171875 72.582031 C 68.128906 72.546875 68.085938 72.507812 68.042969 72.472656 C 67.910156 72.359375 67.773438 72.242188 67.636719 72.125 C 67.601562 72.09375 67.566406 72.058594 67.523438 72.027344 C 67.515625 72.019531 67.507812 72.011719 67.503906 72.007812 L 67.5 72.007812 C 67.367188 71.878906 67.230469 71.75 67.09375 71.621094 C 67.050781 71.578125 67 71.539062 66.957031 71.496094 C 66.941406 71.480469 66.925781 71.457031 66.90625 71.441406 C 66.742188 71.28125 66.582031 71.121094 66.425781 70.953125 C 66.382812 70.90625 66.34375 70.867188 66.300781 70.820312 C 66.128906 70.640625 65.96875 70.457031 65.804688 70.269531 C 65.800781 70.265625 65.796875 70.257812 65.789062 70.253906 C 66.949219 69.925781 68.140625 69.710938 69.355469 69.613281 Z M 66.664062 76.472656 C 64.128906 75.890625 61.726562 74.789062 59.628906 73.253906 C 59.636719 73.246094 59.644531 73.238281 59.65625 73.234375 C 59.761719 73.152344 59.871094 73.078125 59.980469 73 C 60.085938 72.929688 60.1875 72.859375 60.292969 72.785156 C 60.347656 72.75 60.398438 72.714844 60.457031 72.679688 C 60.550781 72.617188 60.648438 72.558594 60.742188 72.496094 C 60.8125 72.453125 60.882812 72.40625 60.953125 72.363281 C 61.027344 72.316406 61.101562 72.273438 61.175781 72.230469 C 61.226562 72.203125 61.273438 72.171875 61.328125 72.144531 C 61.433594 72.082031 61.542969 72.019531 61.65625 71.953125 C 61.660156 71.953125 61.664062 71.949219 61.667969 71.949219 C 61.730469 71.910156 61.796875 71.875 61.867188 71.839844 C 61.9375 71.796875 62.015625 71.757812 62.085938 71.71875 C 62.242188 71.640625 62.398438 71.558594 62.558594 71.484375 C 62.5625 71.492188 62.570312 71.5 62.578125 71.507812 C 62.597656 71.53125 62.617188 71.558594 62.636719 71.582031 C 62.730469 71.703125 62.820312 71.820312 62.914062 71.929688 C 62.941406 71.964844 62.96875 72 62.996094 72.03125 C 63.03125 72.070312 63.0625 72.105469 63.09375 72.144531 C 63.15625 72.222656 63.222656 72.296875 63.289062 72.378906 C 63.296875 72.386719 63.304688 72.394531 63.308594 72.402344 C 63.34375 72.445312 63.382812 72.484375 63.417969 72.527344 C 63.445312 72.558594 63.46875 72.585938 63.492188 72.613281 C 63.496094 72.617188 63.5 72.625 63.503906 72.628906 C 63.570312 72.699219 63.628906 72.765625 63.691406 72.835938 C 63.691406 72.835938 63.691406 72.835938 63.695312 72.835938 C 63.734375 72.878906 63.765625 72.917969 63.804688 72.957031 C 63.847656 73.003906 63.890625 73.054688 63.933594 73.097656 C 63.972656 73.136719 64.011719 73.179688 64.050781 73.226562 C 64.101562 73.273438 64.144531 73.320312 64.191406 73.375 C 64.21875 73.398438 64.246094 73.425781 64.269531 73.449219 C 64.320312 73.5 64.375 73.558594 64.429688 73.609375 C 64.453125 73.632812 64.480469 73.660156 64.503906 73.683594 C 64.535156 73.71875 64.566406 73.75 64.601562 73.777344 C 64.601562 73.78125 64.601562 73.78125 64.601562 73.78125 C 64.625 73.804688 64.652344 73.828125 64.675781 73.855469 C 64.695312 73.875 64.714844 73.894531 64.734375 73.914062 C 64.734375 73.914062 64.734375 73.914062 64.738281 73.914062 C 64.8125 73.984375 64.882812 74.050781 64.957031 74.125 C 64.988281 74.152344 65.015625 74.179688 65.046875 74.207031 C 65.085938 74.246094 65.128906 74.28125 65.167969 74.320312 C 65.261719 74.402344 65.359375 74.492188 65.457031 74.578125 C 65.488281 74.605469 65.519531 74.636719 65.546875 74.660156 C 65.5625 74.675781 65.578125 74.6875 65.59375 74.703125 C 65.738281 74.828125 65.882812 74.949219 66.027344 75.070312 C 66.039062 75.078125 66.050781 75.089844 66.0625 75.097656 C 66.089844 75.125 66.117188 75.144531 66.148438 75.164062 C 66.253906 75.253906 66.367188 75.34375 66.472656 75.429688 C 66.515625 75.464844 66.554688 75.492188 66.59375 75.523438 C 66.621094 75.546875 66.652344 75.566406 66.683594 75.589844 C 66.769531 75.660156 66.859375 75.726562 66.945312 75.789062 C 66.945312 75.789062 66.949219 75.789062 66.949219 75.789062 C 66.996094 75.828125 67.046875 75.867188 67.097656 75.902344 C 67.128906 75.925781 67.160156 75.945312 67.191406 75.972656 C 67.210938 75.988281 67.230469 76 67.25 76.015625 C 67.332031 76.074219 67.417969 76.128906 67.5 76.191406 C 67.5 76.191406 67.503906 76.191406 67.503906 76.195312 C 67.503906 76.195312 67.507812 76.195312 67.507812 76.199219 C 67.53125 76.210938 67.546875 76.222656 67.566406 76.234375 C 67.617188 76.269531 67.664062 76.304688 67.71875 76.34375 C 67.765625 76.375 67.808594 76.402344 67.855469 76.433594 C 67.917969 76.472656 67.976562 76.515625 68.035156 76.554688 C 68.042969 76.558594 68.050781 76.5625 68.054688 76.566406 C 68.09375 76.589844 68.132812 76.617188 68.171875 76.640625 C 68.175781 76.640625 68.175781 76.644531 68.175781 76.644531 C 68.242188 76.6875 68.304688 76.726562 68.367188 76.769531 C 68.375 76.773438 68.382812 76.777344 68.390625 76.78125 C 68.398438 76.785156 68.402344 76.785156 68.402344 76.789062 C 67.816406 76.710938 67.234375 76.605469 66.664062 76.472656 Z M 59.617188 69.335938 C 59.417969 69.453125 59.21875 69.574219 59.019531 69.695312 C 59.015625 69.695312 59.011719 69.699219 59.007812 69.703125 C 59.007812 69.703125 59.003906 69.707031 59 69.707031 C 58.859375 69.800781 58.714844 69.894531 58.570312 69.988281 C 58.527344 70.019531 58.476562 70.046875 58.433594 70.082031 C 58.402344 70.101562 58.371094 70.121094 58.339844 70.144531 C 58.328125 70.148438 58.324219 70.152344 58.316406 70.15625 C 58.128906 70.285156 57.945312 70.414062 57.761719 70.546875 C 57.75 70.554688 57.738281 70.5625 57.726562 70.570312 C 57.707031 70.585938 57.6875 70.609375 57.664062 70.621094 C 57.496094 70.746094 57.324219 70.875 57.160156 71.003906 C 57.140625 71.015625 57.125 71.03125 57.101562 71.042969 C 54.058594 67.867188 52.183594 63.726562 51.808594 59.347656 L 57.917969 59.347656 C 58.152344 62.628906 59.101562 65.789062 60.695312 68.648438 C 60.707031 68.675781 60.71875 68.703125 60.730469 68.722656 C 60.707031 68.738281 60.683594 68.75 60.65625 68.761719 C 60.578125 68.800781 60.503906 68.839844 60.429688 68.886719 C 60.394531 68.898438 60.367188 68.914062 60.335938 68.933594 C 60.136719 69.039062 59.941406 69.148438 59.742188 69.265625 C 59.710938 69.28125 59.679688 69.296875 59.652344 69.316406 C 59.640625 69.324219 59.628906 69.328125 59.617188 69.335938 Z M 57.101562 44.363281 C 57.125 44.378906 57.144531 44.394531 57.164062 44.410156 C 57.328125 44.535156 57.492188 44.664062 57.660156 44.785156 C 57.695312 44.8125 57.730469 44.839844 57.765625 44.863281 C 57.945312 44.996094 58.128906 45.125 58.3125 45.246094 C 58.359375 45.28125 58.398438 45.308594 58.4375 45.335938 C 58.621094 45.457031 58.804688 45.574219 58.992188 45.695312 C 59 45.703125 59.011719 45.707031 59.023438 45.714844 C 59.21875 45.835938 59.414062 45.953125 59.613281 46.070312 C 59.65625 46.09375 59.699219 46.121094 59.746094 46.148438 C 59.941406 46.261719 60.136719 46.371094 60.335938 46.476562 C 60.367188 46.496094 60.398438 46.511719 60.433594 46.527344 C 60.507812 46.570312 60.582031 46.605469 60.660156 46.644531 L 60.609375 46.722656 L 60.695312 46.757812 C 59.101562 49.621094 58.152344 52.785156 57.917969 56.066406 L 51.808594 56.066406 C 52.183594 51.6875 54.058594 47.546875 57.101562 44.363281 Z M 85.714844 43.097656 C 85.691406 43.105469 85.664062 43.117188 85.636719 43.125 C 84.183594 43.6875 82.671875 44.171875 81.148438 44.558594 C 80.054688 44.84375 78.933594 45.082031 77.816406 45.273438 C 75.570312 45.648438 73.277344 45.84375 70.992188 45.84375 C 68.710938 45.84375 66.414062 45.652344 64.171875 45.273438 C 63.054688 45.082031 61.929688 44.84375 60.835938 44.5625 C 59.3125 44.171875 57.804688 43.6875 56.351562 43.128906 C 56.324219 43.121094 56.296875 43.109375 56.273438 43.101562 L 54.457031 42.394531 C 50.621094 46.542969 48.457031 52.015625 48.457031 57.707031 C 48.457031 63.476562 50.683594 69.035156 54.628906 73.203125 C 55.042969 73.640625 55.476562 74.066406 55.929688 74.472656 C 56.296875 74.804688 56.675781 75.121094 57.0625 75.425781 C 59.667969 77.472656 62.703125 78.933594 65.925781 79.675781 C 67.582031 80.054688 69.289062 80.246094 70.992188 80.246094 C 72.699219 80.246094 74.40625 80.054688 76.066406 79.675781 C 79.285156 78.933594 82.320312 77.472656 84.925781 75.425781 C 85.3125 75.121094 85.6875 74.804688 86.054688 74.476562 L 86.058594 74.472656 C 86.511719 74.066406 86.945312 73.640625 87.363281 73.203125 C 91.304688 69.035156 93.53125 63.476562 93.53125 57.707031 C 93.53125 52.015625 91.367188 46.542969 87.53125 42.390625 L 85.714844 43.097656 " fill-opacity="1" fill-rule="nonzero"/></g><path fill="#eb8c29" d="M 64.820312 41.414062 C 66.828125 41.753906 68.890625 41.933594 70.992188 41.933594 C 73.097656 41.933594 75.15625 41.753906 77.164062 41.414062 C 78.183594 41.242188 79.191406 41.03125 80.175781 40.777344 C 81.566406 40.421875 82.925781 39.984375 84.246094 39.472656 C 84.265625 39.46875 84.285156 39.460938 84.304688 39.453125 L 84.304688 31.710938 L 73.734375 35.332031 L 71.332031 36.15625 L 70.992188 36.273438 L 70.65625 36.15625 L 68.253906 35.332031 L 57.6875 31.710938 L 57.6875 39.457031 C 57.703125 39.464844 57.722656 39.46875 57.738281 39.476562 C 59.0625 39.988281 60.421875 40.421875 61.808594 40.777344 C 62.796875 41.03125 63.800781 41.246094 64.820312 41.414062 " fill-opacity="1" fill-rule="nonzero"/><g clip-path="url(#ca9030f537)"><path fill="#eb8c29" d="M 94.199219 30.898438 L 94.199219 26.175781 L 97.894531 24.910156 L 70.992188 14.773438 L 44.09375 24.910156 L 53.777344 28.226562 L 53.933594 28.285156 L 70.992188 34.128906 L 88.054688 28.285156 L 88.210938 28.226562 L 92.808594 26.652344 L 92.808594 30.898438 C 91.933594 31.121094 91.304688 31.914062 91.304688 34.203125 C 91.304688 37.0625 92.289062 37.304688 93.503906 37.304688 C 94.71875 37.304688 95.707031 37.0625 95.707031 34.203125 C 95.707031 31.914062 95.074219 31.121094 94.199219 30.898438 " fill-opacity="1" fill-rule="nonzero"/></g></g></g><g fill="#000000" fill-opacity="1"><g transform="translate(234.406148, 137.599782)"><g><path d="M 12.28125 -2.453125 C 12.445312 -2.453125 12.660156 -2.550781 12.921875 -2.75 C 13.179688 -2.957031 13.457031 -3.207031 13.75 -3.5 C 14.050781 -3.800781 14.332031 -4.101562 14.59375 -4.40625 C 14.863281 -4.707031 15.082031 -4.957031 15.25 -5.15625 C 15.425781 -5.363281 15.515625 -5.46875 15.515625 -5.46875 L 14.484375 0 L 0.703125 0 C 0.703125 0 0.796875 -0.0703125 0.984375 -0.21875 C 1.171875 -0.375 1.359375 -0.597656 1.546875 -0.890625 C 1.734375 -1.191406 1.828125 -1.578125 1.828125 -2.046875 L 1.828125 -13.71875 C 1.828125 -14.132812 1.734375 -14.492188 1.546875 -14.796875 C 1.359375 -15.097656 1.171875 -15.328125 0.984375 -15.484375 C 0.796875 -15.648438 0.703125 -15.734375 0.703125 -15.734375 L 13.71875 -15.734375 L 14.96875 -10.703125 C 14.96875 -10.703125 14.878906 -10.785156 14.703125 -10.953125 C 14.535156 -11.128906 14.320312 -11.34375 14.0625 -11.59375 C 13.800781 -11.851562 13.519531 -12.109375 13.21875 -12.359375 C 12.914062 -12.617188 12.632812 -12.835938 12.375 -13.015625 C 12.113281 -13.191406 11.898438 -13.28125 11.734375 -13.28125 L 5.953125 -13.28125 C 5.503906 -13.28125 5.125 -13.125 4.8125 -12.8125 C 4.507812 -12.5 4.359375 -12.125 4.359375 -11.6875 L 4.359375 -9.234375 L 9.203125 -9.234375 C 9.460938 -9.234375 9.757812 -9.289062 10.09375 -9.40625 C 10.425781 -9.519531 10.703125 -9.628906 10.921875 -9.734375 C 11.148438 -9.835938 11.265625 -9.890625 11.265625 -9.890625 L 11.265625 -6.046875 C 11.265625 -6.046875 11.15625 -6.109375 10.9375 -6.234375 C 10.71875 -6.367188 10.441406 -6.492188 10.109375 -6.609375 C 9.785156 -6.734375 9.472656 -6.796875 9.171875 -6.796875 L 4.359375 -6.796875 L 4.359375 -4.03125 C 4.359375 -3.59375 4.507812 -3.21875 4.8125 -2.90625 C 5.125 -2.601562 5.5 -2.453125 5.9375 -2.453125 Z M 12.28125 -2.453125 "/></g></g></g><g fill="#000000" fill-opacity="1"><g transform="translate(253.916058, 137.599782)"><g><path d="M 19.0625 -0.015625 C 19.0625 -0.015625 19.148438 -0.0859375 19.328125 -0.234375 C 19.515625 -0.378906 19.703125 -0.597656 19.890625 -0.890625 C 20.078125 -1.191406 20.171875 -1.570312 20.171875 -2.03125 L 20.171875 -6.3125 C 20.171875 -6.84375 20.128906 -7.367188 20.046875 -7.890625 C 19.960938 -8.410156 19.753906 -8.84375 19.421875 -9.1875 C 19.097656 -9.539062 18.550781 -9.71875 17.78125 -9.71875 C 16.882812 -9.71875 16.113281 -9.535156 15.46875 -9.171875 C 14.820312 -8.816406 14.328125 -8.363281 13.984375 -7.8125 C 13.648438 -7.269531 13.484375 -6.695312 13.484375 -6.09375 C 13.484375 -6.09375 13.484375 -6.085938 13.484375 -6.078125 L 13.484375 -2.03125 C 13.484375 -1.570312 13.570312 -1.191406 13.75 -0.890625 C 13.9375 -0.597656 14.125 -0.375 14.3125 -0.21875 C 14.5 -0.0703125 14.59375 0 14.59375 0 L 9.828125 -0.015625 C 9.828125 -0.015625 9.921875 -0.0859375 10.109375 -0.234375 C 10.296875 -0.378906 10.476562 -0.597656 10.65625 -0.890625 C 10.832031 -1.191406 10.921875 -1.570312 10.921875 -2.03125 L 10.921875 -6.3125 C 10.921875 -6.675781 10.898438 -7.054688 10.859375 -7.453125 C 10.828125 -7.847656 10.734375 -8.210938 10.578125 -8.546875 C 10.429688 -8.890625 10.195312 -9.171875 9.875 -9.390625 C 9.5625 -9.609375 9.117188 -9.71875 8.546875 -9.71875 C 7.640625 -9.71875 6.863281 -9.539062 6.21875 -9.1875 C 5.582031 -8.84375 5.09375 -8.394531 4.75 -7.84375 C 4.414062 -7.300781 4.25 -6.734375 4.25 -6.140625 L 4.25 -2.03125 C 4.25 -1.570312 4.34375 -1.191406 4.53125 -0.890625 C 4.71875 -0.597656 4.898438 -0.375 5.078125 -0.21875 C 5.253906 -0.0703125 5.34375 0 5.34375 0 L 0.578125 -0.015625 C 0.578125 -0.015625 0.671875 -0.0859375 0.859375 -0.234375 C 1.046875 -0.378906 1.234375 -0.597656 1.421875 -0.890625 C 1.609375 -1.191406 1.703125 -1.570312 1.703125 -2.03125 L 1.703125 -9.921875 C 1.703125 -10.367188 1.609375 -10.738281 1.421875 -11.03125 C 1.234375 -11.332031 1.046875 -11.554688 0.859375 -11.703125 C 0.671875 -11.859375 0.578125 -11.9375 0.578125 -11.9375 L 4.265625 -11.921875 L 4.25 -8.90625 C 4.726562 -9.875 5.296875 -10.65625 5.953125 -11.25 C 6.617188 -11.851562 7.484375 -12.15625 8.546875 -12.15625 C 9.472656 -12.15625 10.238281 -11.988281 10.84375 -11.65625 C 11.457031 -11.332031 11.9375 -10.882812 12.28125 -10.3125 C 12.625 -9.75 12.878906 -9.09375 13.046875 -8.34375 C 13.460938 -9.46875 14.0625 -10.382812 14.84375 -11.09375 C 15.632812 -11.800781 16.613281 -12.15625 17.78125 -12.15625 C 18.976562 -12.15625 19.9375 -11.878906 20.65625 -11.328125 C 21.382812 -10.785156 21.90625 -10.050781 22.21875 -9.125 C 22.539062 -8.207031 22.710938 -7.191406 22.734375 -6.078125 L 22.703125 -2.03125 C 22.703125 -1.570312 22.796875 -1.191406 22.984375 -0.890625 C 23.171875 -0.597656 23.359375 -0.375 23.546875 -0.21875 C 23.734375 -0.0703125 23.828125 0 23.828125 0 Z M 19.0625 -0.015625 "/></g></g></g><g fill="#000000" fill-opacity="1"><g transform="translate(281.495047, 137.599782)"><g><path d="M 8.546875 -12.140625 C 9.773438 -12.140625 10.859375 -11.863281 11.796875 -11.3125 C 12.734375 -10.757812 13.460938 -10.015625 13.984375 -9.078125 C 14.503906 -8.140625 14.765625 -7.097656 14.765625 -5.953125 C 14.765625 -4.816406 14.488281 -3.78125 13.9375 -2.84375 C 13.394531 -1.90625 12.65625 -1.160156 11.71875 -0.609375 C 10.78125 -0.0546875 9.722656 0.21875 8.546875 0.21875 C 7.460938 0.21875 6.582031 -0.078125 5.90625 -0.671875 C 5.238281 -1.273438 4.664062 -2.070312 4.1875 -3.0625 L 4.1875 3.21875 C 4.1875 3.664062 4.28125 4.039062 4.46875 4.34375 C 4.65625 4.644531 4.84375 4.867188 5.03125 5.015625 C 5.21875 5.160156 5.3125 5.234375 5.3125 5.234375 L 0.546875 5.234375 C 0.546875 5.234375 0.640625 5.160156 0.828125 5.015625 C 1.015625 4.867188 1.195312 4.644531 1.375 4.34375 C 1.5625 4.039062 1.65625 3.664062 1.65625 3.21875 L 1.65625 -9.921875 C 1.65625 -10.367188 1.5625 -10.738281 1.375 -11.03125 C 1.195312 -11.320312 1.015625 -11.539062 0.828125 -11.6875 C 0.640625 -11.84375 0.546875 -11.921875 0.546875 -11.921875 L 5.3125 -11.921875 C 5.3125 -11.921875 5.21875 -11.84375 5.03125 -11.6875 C 4.84375 -11.539062 4.65625 -11.320312 4.46875 -11.03125 C 4.28125 -10.738281 4.1875 -10.367188 4.1875 -9.921875 C 4.1875 -9.921875 4.1875 -9.828125 4.1875 -9.640625 C 4.1875 -9.453125 4.1875 -9.195312 4.1875 -8.875 C 4.664062 -9.851562 5.238281 -10.640625 5.90625 -11.234375 C 6.582031 -11.835938 7.460938 -12.140625 8.546875 -12.140625 Z M 8.546875 -2.21875 C 9.265625 -2.21875 9.898438 -2.375 10.453125 -2.6875 C 11.003906 -3.007812 11.4375 -3.453125 11.75 -4.015625 C 12.070312 -4.578125 12.234375 -5.222656 12.234375 -5.953125 C 12.234375 -6.691406 12.066406 -7.34375 11.734375 -7.90625 C 11.398438 -8.46875 10.957031 -8.90625 10.40625 -9.21875 C 9.851562 -9.53125 9.234375 -9.6875 8.546875 -9.6875 C 7.484375 -9.6875 6.628906 -9.515625 5.984375 -9.171875 C 5.347656 -8.835938 4.890625 -8.390625 4.609375 -7.828125 C 4.328125 -7.273438 4.1875 -6.648438 4.1875 -5.953125 C 4.1875 -4.785156 4.515625 -3.867188 5.171875 -3.203125 C 5.828125 -2.546875 6.953125 -2.21875 8.546875 -2.21875 Z M 8.546875 -2.21875 "/></g></g></g><g fill="#000000" fill-opacity="1"><g transform="translate(300.308183, 137.599782)"><g><path d="M 7.578125 -12.15625 C 8.867188 -12.15625 10.023438 -11.875 11.046875 -11.3125 C 12.078125 -10.757812 12.890625 -10.015625 13.484375 -9.078125 C 14.078125 -8.140625 14.375 -7.097656 14.375 -5.953125 C 14.375 -5.097656 14.195312 -4.296875 13.84375 -3.546875 C 13.5 -2.796875 13.015625 -2.140625 12.390625 -1.578125 C 11.773438 -1.015625 11.054688 -0.570312 10.234375 -0.25 C 9.410156 0.0625 8.523438 0.21875 7.578125 0.21875 C 6.210938 0.21875 5.019531 -0.0546875 4 -0.609375 C 2.976562 -1.160156 2.179688 -1.90625 1.609375 -2.84375 C 1.046875 -3.78125 0.765625 -4.816406 0.765625 -5.953125 C 0.765625 -7.097656 1.050781 -8.140625 1.625 -9.078125 C 2.207031 -10.015625 3.003906 -10.757812 4.015625 -11.3125 C 5.035156 -11.875 6.222656 -12.15625 7.578125 -12.15625 Z M 7.578125 -2.21875 C 8.460938 -2.21875 9.222656 -2.398438 9.859375 -2.765625 C 10.492188 -3.128906 10.976562 -3.597656 11.3125 -4.171875 C 11.65625 -4.742188 11.828125 -5.335938 11.828125 -5.953125 C 11.828125 -6.617188 11.65625 -7.234375 11.3125 -7.796875 C 10.976562 -8.367188 10.492188 -8.832031 9.859375 -9.1875 C 9.222656 -9.539062 8.460938 -9.71875 7.578125 -9.71875 C 6.679688 -9.71875 5.910156 -9.539062 5.265625 -9.1875 C 4.628906 -8.84375 4.144531 -8.390625 3.8125 -7.828125 C 3.476562 -7.273438 3.3125 -6.648438 3.3125 -5.953125 C 3.3125 -5.335938 3.476562 -4.742188 3.8125 -4.171875 C 4.144531 -3.609375 4.628906 -3.140625 5.265625 -2.765625 C 5.910156 -2.398438 6.679688 -2.21875 7.578125 -2.21875 Z M 7.578125 -2.21875 "/></g></g></g><g fill="#000000" fill-opacity="1"><g transform="translate(318.69426, 137.599782)"><g><path d="M 19.15625 -11.921875 L 25.5625 -11.921875 C 24.375 -11.390625 23.582031 -10.503906 23.1875 -9.265625 L 20.265625 0 L 16.015625 0 L 13.015625 -9.46875 L 12.546875 -9.46875 L 9.578125 0 L 5.3125 0 L 2.390625 -9.265625 C 1.992188 -10.503906 1.195312 -11.390625 0 -11.921875 L 6.40625 -11.921875 L 5.671875 -11.625 C 5.328125 -11.476562 5.078125 -11.238281 4.921875 -10.90625 C 4.773438 -10.570312 4.753906 -10.234375 4.859375 -9.890625 L 7.1875 -2.453125 L 7.6875 -2.453125 L 10.65625 -11.921875 L 14.90625 -11.921875 L 17.875 -2.453125 L 18.375 -2.453125 L 20.703125 -9.890625 C 20.804688 -10.234375 20.785156 -10.570312 20.640625 -10.90625 C 20.492188 -11.238281 20.25 -11.476562 19.90625 -11.625 Z M 19.15625 -11.921875 "/></g></g></g><g fill="#000000" fill-opacity="1"><g transform="translate(347.531939, 137.599782)"><g><path d="M 8.109375 -2.21875 C 9.128906 -2.21875 9.96875 -2.332031 10.625 -2.5625 C 11.28125 -2.789062 11.785156 -3.046875 12.140625 -3.328125 C 12.503906 -3.609375 12.753906 -3.859375 12.890625 -4.078125 C 13.035156 -4.296875 13.109375 -4.40625 13.109375 -4.40625 L 14.1875 -3.734375 C 14.1875 -3.734375 14.125 -3.601562 14 -3.34375 C 13.882812 -3.082031 13.691406 -2.75 13.421875 -2.34375 C 13.148438 -1.945312 12.78125 -1.550781 12.3125 -1.15625 C 11.851562 -0.769531 11.28125 -0.441406 10.59375 -0.171875 C 9.914062 0.0859375 9.101562 0.21875 8.15625 0.21875 C 6.957031 0.21875 5.9375 0.0664062 5.09375 -0.234375 C 4.25 -0.546875 3.539062 -0.945312 2.96875 -1.4375 C 2.394531 -1.9375 1.941406 -2.46875 1.609375 -3.03125 C 1.285156 -3.59375 1.054688 -4.128906 0.921875 -4.640625 C 0.785156 -5.160156 0.71875 -5.597656 0.71875 -5.953125 C 0.71875 -6.585938 0.84375 -7.257812 1.09375 -7.96875 C 1.34375 -8.675781 1.738281 -9.347656 2.28125 -9.984375 C 2.832031 -10.628906 3.546875 -11.148438 4.421875 -11.546875 C 5.296875 -11.941406 6.367188 -12.140625 7.640625 -12.140625 C 8.921875 -12.140625 9.988281 -11.984375 10.84375 -11.671875 C 11.707031 -11.359375 12.394531 -10.972656 12.90625 -10.515625 C 13.414062 -10.054688 13.78125 -9.585938 14 -9.109375 C 14.21875 -8.640625 14.328125 -8.25 14.328125 -7.9375 C 14.328125 -7.519531 14.164062 -7.066406 13.84375 -6.578125 C 13.519531 -6.085938 13.023438 -5.664062 12.359375 -5.3125 C 11.703125 -4.96875 10.847656 -4.796875 9.796875 -4.796875 C 8.898438 -4.796875 8.003906 -4.847656 7.109375 -4.953125 C 6.222656 -5.054688 5.429688 -5.171875 4.734375 -5.296875 C 4.046875 -5.421875 3.5625 -5.519531 3.28125 -5.59375 C 3.28125 -4.96875 3.429688 -4.398438 3.734375 -3.890625 C 4.035156 -3.378906 4.535156 -2.972656 5.234375 -2.671875 C 5.941406 -2.367188 6.898438 -2.21875 8.109375 -2.21875 Z M 7.640625 -9.71875 C 6.359375 -9.71875 5.375 -9.445312 4.6875 -8.90625 C 4.007812 -8.375 3.578125 -7.691406 3.390625 -6.859375 C 3.585938 -6.816406 3.929688 -6.753906 4.421875 -6.671875 C 4.910156 -6.585938 5.472656 -6.503906 6.109375 -6.421875 C 6.742188 -6.347656 7.390625 -6.304688 8.046875 -6.296875 C 8.703125 -6.296875 9.3125 -6.351562 9.875 -6.46875 C 10.4375 -6.582031 10.894531 -6.773438 11.25 -7.046875 C 11.601562 -7.328125 11.78125 -7.710938 11.78125 -8.203125 C 11.78125 -8.679688 11.476562 -9.050781 10.875 -9.3125 C 10.28125 -9.582031 9.203125 -9.71875 7.640625 -9.71875 Z M 7.640625 -9.71875 "/></g></g></g><g fill="#000000" fill-opacity="1"><g transform="translate(365.895539, 137.599782)"><g><path d="M 8.59375 -12.15625 C 9.5 -12.15625 10.269531 -11.898438 10.90625 -11.390625 C 11.550781 -10.890625 12.046875 -10.210938 12.390625 -9.359375 C 12.734375 -8.503906 12.921875 -7.554688 12.953125 -6.515625 L 10.40625 -6.703125 C 10.40625 -7.398438 10.367188 -7.96875 10.296875 -8.40625 C 10.222656 -8.851562 10.054688 -9.179688 9.796875 -9.390625 C 9.546875 -9.609375 9.144531 -9.71875 8.59375 -9.71875 C 7.769531 -9.71875 7.03125 -9.539062 6.375 -9.1875 C 5.71875 -8.84375 5.207031 -8.394531 4.84375 -7.84375 C 4.476562 -7.300781 4.296875 -6.734375 4.296875 -6.140625 L 4.265625 -2.03125 C 4.265625 -1.570312 4.359375 -1.191406 4.546875 -0.890625 C 4.734375 -0.597656 4.921875 -0.375 5.109375 -0.21875 C 5.296875 -0.0703125 5.390625 0 5.390625 0 L 0.625 0 C 0.625 0 0.71875 -0.0703125 0.90625 -0.21875 C 1.09375 -0.375 1.28125 -0.597656 1.46875 -0.890625 C 1.65625 -1.191406 1.75 -1.570312 1.75 -2.03125 L 1.75 -9.890625 C 1.75 -10.335938 1.65625 -10.710938 1.46875 -11.015625 C 1.28125 -11.316406 1.09375 -11.539062 0.90625 -11.6875 C 0.71875 -11.84375 0.625 -11.921875 0.625 -11.921875 L 4.296875 -11.921875 L 4.296875 -8.90625 C 4.773438 -9.875 5.34375 -10.65625 6 -11.25 C 6.664062 -11.851562 7.53125 -12.15625 8.59375 -12.15625 Z M 8.59375 -12.15625 "/></g></g></g><g fill="#000000" fill-opacity="1"><g transform="translate(382.595878, 137.599782)"><g><path d="M 0.625 0 C 0.625 0 0.71875 -0.0703125 0.90625 -0.21875 C 1.09375 -0.375 1.28125 -0.597656 1.46875 -0.890625 C 1.65625 -1.191406 1.75 -1.570312 1.75 -2.03125 L 1.75 -9.890625 C 1.75 -10.335938 1.65625 -10.710938 1.46875 -11.015625 C 1.28125 -11.316406 1.09375 -11.539062 0.90625 -11.6875 C 0.71875 -11.84375 0.625 -11.921875 0.625 -11.921875 L 4.3125 -11.921875 L 4.296875 -2.03125 C 4.296875 -1.570312 4.390625 -1.191406 4.578125 -0.890625 C 4.765625 -0.597656 4.945312 -0.375 5.125 -0.21875 C 5.300781 -0.0703125 5.390625 0 5.390625 0 Z M 2.96875 -13.0625 C 2.550781 -13.0625 2.242188 -13.203125 2.046875 -13.484375 C 1.847656 -13.773438 1.75 -14.125 1.75 -14.53125 C 1.75 -14.925781 1.847656 -15.265625 2.046875 -15.546875 C 2.242188 -15.835938 2.550781 -15.984375 2.96875 -15.984375 C 3.414062 -15.984375 3.75 -15.835938 3.96875 -15.546875 C 4.1875 -15.265625 4.296875 -14.925781 4.296875 -14.53125 C 4.296875 -14.125 4.1875 -13.773438 3.96875 -13.484375 C 3.75 -13.203125 3.414062 -13.0625 2.96875 -13.0625 Z M 2.96875 -13.0625 "/></g></g></g><g fill="#000000" fill-opacity="1"><g transform="translate(391.856471, 137.599782)"><g><path d="M 9.84375 0 C 9.84375 0 9.9375 -0.0703125 10.125 -0.21875 C 10.3125 -0.375 10.492188 -0.597656 10.671875 -0.890625 C 10.859375 -1.191406 10.953125 -1.570312 10.953125 -2.03125 L 10.953125 -6.296875 C 10.953125 -6.835938 10.898438 -7.367188 10.796875 -7.890625 C 10.691406 -8.410156 10.460938 -8.835938 10.109375 -9.171875 C 9.765625 -9.515625 9.242188 -9.6875 8.546875 -9.6875 C 7.554688 -9.6875 6.742188 -9.519531 6.109375 -9.1875 C 5.484375 -8.863281 5.015625 -8.425781 4.703125 -7.875 C 4.398438 -7.332031 4.25 -6.753906 4.25 -6.140625 L 4.25 -2.03125 C 4.25 -1.570312 4.335938 -1.191406 4.515625 -0.890625 C 4.703125 -0.597656 4.882812 -0.375 5.0625 -0.21875 C 5.25 -0.0703125 5.34375 0 5.34375 0 L 0.609375 0 C 0.609375 0 0.703125 -0.0703125 0.890625 -0.21875 C 1.078125 -0.375 1.265625 -0.597656 1.453125 -0.890625 C 1.640625 -1.191406 1.734375 -1.570312 1.734375 -2.03125 L 1.734375 -9.921875 C 1.734375 -10.367188 1.640625 -10.738281 1.453125 -11.03125 C 1.265625 -11.332031 1.078125 -11.554688 0.890625 -11.703125 C 0.703125 -11.847656 0.609375 -11.921875 0.609375 -11.921875 L 4.265625 -11.921875 L 4.25 -8.90625 C 4.726562 -9.875 5.296875 -10.65625 5.953125 -11.25 C 6.617188 -11.851562 7.484375 -12.15625 8.546875 -12.15625 C 9.640625 -12.15625 10.546875 -11.878906 11.265625 -11.328125 C 11.992188 -10.785156 12.539062 -10.050781 12.90625 -9.125 C 13.28125 -8.207031 13.472656 -7.191406 13.484375 -6.078125 L 13.46875 -2.03125 C 13.46875 -1.570312 13.5625 -1.191406 13.75 -0.890625 C 13.9375 -0.597656 14.125 -0.375 14.3125 -0.21875 C 14.5 -0.0703125 14.59375 0 14.59375 0 Z M 9.84375 0 "/></g></g></g><g fill="#000000" fill-opacity="1"><g transform="translate(410.175119, 137.599782)"><g><path d="M 10.28125 -11.6875 L 14.03125 -11.921875 L 14.03125 -8.3125 C 14.03125 -8.3125 14.03125 -8.316406 14.03125 -8.328125 C 14.03125 -8.335938 14.019531 -8.347656 14 -8.359375 C 13.976562 -8.421875 13.925781 -8.546875 13.84375 -8.734375 C 13.769531 -8.921875 13.660156 -9.128906 13.515625 -9.359375 C 13.378906 -9.597656 13.203125 -9.804688 12.984375 -9.984375 C 12.765625 -10.160156 12.5 -10.265625 12.1875 -10.296875 C 12.707031 -9.585938 12.96875 -8.753906 12.96875 -7.796875 C 12.96875 -7.003906 12.726562 -6.273438 12.25 -5.609375 C 11.769531 -4.953125 11.078125 -4.429688 10.171875 -4.046875 C 9.265625 -3.660156 8.179688 -3.46875 6.921875 -3.46875 C 6.546875 -3.46875 6.203125 -3.484375 5.890625 -3.515625 C 5.578125 -3.554688 5.273438 -3.613281 4.984375 -3.6875 L 3.84375 -2.515625 C 3.84375 -2.515625 3.859375 -2.476562 3.890625 -2.40625 C 3.929688 -2.332031 4.164062 -2.296875 4.59375 -2.296875 L 12.15625 -2.296875 C 12.476562 -2.296875 12.773438 -2.179688 13.046875 -1.953125 C 13.316406 -1.734375 13.53125 -1.457031 13.6875 -1.125 C 13.851562 -0.789062 13.945312 -0.46875 13.96875 -0.15625 C 13.976562 0.570312 13.8125 1.273438 13.46875 1.953125 C 13.125 2.640625 12.632812 3.242188 12 3.765625 C 11.375 4.296875 10.632812 4.710938 9.78125 5.015625 C 8.9375 5.328125 8.019531 5.484375 7.03125 5.484375 C 6.070312 5.484375 5.179688 5.335938 4.359375 5.046875 C 3.546875 4.753906 2.828125 4.359375 2.203125 3.859375 C 1.585938 3.359375 1.101562 2.785156 0.75 2.140625 C 0.394531 1.492188 0.210938 0.8125 0.203125 0.09375 L 1.4375 0.1875 C 1.425781 0.238281 1.421875 0.296875 1.421875 0.359375 C 1.421875 0.421875 1.421875 0.472656 1.421875 0.515625 C 1.421875 0.878906 1.625 1.253906 2.03125 1.640625 C 2.445312 2.023438 3.070312 2.347656 3.90625 2.609375 C 4.738281 2.878906 5.78125 3.015625 7.03125 3.015625 C 8.101562 3.015625 8.972656 2.878906 9.640625 2.609375 C 10.316406 2.347656 10.816406 2.03125 11.140625 1.65625 C 11.460938 1.289062 11.625 0.941406 11.625 0.609375 C 11.625 0.429688 11.550781 0.304688 11.40625 0.234375 C 11.269531 0.171875 11.003906 0.140625 10.609375 0.140625 L 3.328125 0.140625 C 2.941406 0.140625 2.59375 0.015625 2.28125 -0.234375 C 1.976562 -0.484375 1.742188 -0.800781 1.578125 -1.1875 C 1.410156 -1.582031 1.328125 -1.992188 1.328125 -2.421875 L 1.328125 -3.265625 L 3.421875 -4.265625 C 2.941406 -4.429688 2.507812 -4.703125 2.125 -5.078125 C 1.738281 -5.453125 1.4375 -5.878906 1.21875 -6.359375 C 1.007812 -6.835938 0.90625 -7.316406 0.90625 -7.796875 C 0.90625 -8.609375 1.140625 -9.335938 1.609375 -9.984375 C 2.078125 -10.640625 2.757812 -11.164062 3.65625 -11.5625 C 4.5625 -11.957031 5.648438 -12.15625 6.921875 -12.15625 C 7.460938 -12.15625 8.0625 -12.113281 8.71875 -12.03125 C 9.382812 -11.957031 9.90625 -11.84375 10.28125 -11.6875 Z M 6.921875 -5.90625 C 7.535156 -5.90625 8.113281 -5.957031 8.65625 -6.0625 C 9.195312 -6.175781 9.628906 -6.367188 9.953125 -6.640625 C 10.273438 -6.921875 10.4375 -7.304688 10.4375 -7.796875 C 10.4375 -8.359375 10.273438 -8.769531 9.953125 -9.03125 C 9.628906 -9.300781 9.195312 -9.476562 8.65625 -9.5625 C 8.113281 -9.644531 7.535156 -9.6875 6.921875 -9.6875 C 6.296875 -9.6875 5.71875 -9.644531 5.1875 -9.5625 C 4.65625 -9.476562 4.226562 -9.300781 3.90625 -9.03125 C 3.582031 -8.769531 3.421875 -8.359375 3.421875 -7.796875 C 3.421875 -7.234375 3.582031 -6.816406 3.90625 -6.546875 C 4.226562 -6.273438 4.65625 -6.097656 5.1875 -6.015625 C 5.71875 -5.941406 6.296875 -5.90625 6.921875 -5.90625 Z M 6.921875 -5.90625 "/></g></g></g><g fill="#000000" fill-opacity="1"><g transform="translate(428.291482, 137.599782)"><g/></g></g><g fill="#000000" fill-opacity="1"><g transform="translate(438.2938, 137.599782)"><g><path d="M 19.984375 0 C 19.984375 0 20.078125 -0.0664062 20.265625 -0.203125 C 20.453125 -0.335938 20.640625 -0.550781 20.828125 -0.84375 C 21.015625 -1.144531 21.109375 -1.53125 21.109375 -2 L 21.109375 -13.28125 L 20.453125 -13.28125 L 15.15625 0 L 10.28125 0 L 4.96875 -13.28125 L 4.3125 -13.28125 L 4.3125 -2.03125 C 4.3125 -1.570312 4.40625 -1.191406 4.59375 -0.890625 C 4.78125 -0.597656 4.96875 -0.375 5.15625 -0.21875 C 5.34375 -0.0703125 5.4375 0 5.4375 0 L 0.671875 0 C 0.671875 0 0.765625 -0.0820312 0.953125 -0.25 C 1.140625 -0.414062 1.328125 -0.644531 1.515625 -0.9375 C 1.703125 -1.238281 1.796875 -1.59375 1.796875 -2 L 1.796875 -15.734375 L 6.609375 -15.734375 L 11.921875 -2.453125 L 13.515625 -2.453125 L 18.8125 -15.734375 L 23.625 -15.734375 L 23.625 -2.03125 C 23.625 -1.53125 23.71875 -1.128906 23.90625 -0.828125 C 24.09375 -0.523438 24.28125 -0.3125 24.46875 -0.1875 C 24.65625 -0.0625 24.75 0 24.75 0 Z M 19.984375 0 "/></g></g></g><g fill="#000000" fill-opacity="1"><g transform="translate(466.99661, 137.599782)"><g><path d="M 0.625 0 C 0.625 0 0.71875 -0.0703125 0.90625 -0.21875 C 1.09375 -0.375 1.28125 -0.597656 1.46875 -0.890625 C 1.65625 -1.191406 1.75 -1.570312 1.75 -2.03125 L 1.75 -9.890625 C 1.75 -10.335938 1.65625 -10.710938 1.46875 -11.015625 C 1.28125 -11.316406 1.09375 -11.539062 0.90625 -11.6875 C 0.71875 -11.84375 0.625 -11.921875 0.625 -11.921875 L 4.3125 -11.921875 L 4.296875 -2.03125 C 4.296875 -1.570312 4.390625 -1.191406 4.578125 -0.890625 C 4.765625 -0.597656 4.945312 -0.375 5.125 -0.21875 C 5.300781 -0.0703125 5.390625 0 5.390625 0 Z M 2.96875 -13.0625 C 2.550781 -13.0625 2.242188 -13.203125 2.046875 -13.484375 C 1.847656 -13.773438 1.75 -14.125 1.75 -14.53125 C 1.75 -14.925781 1.847656 -15.265625 2.046875 -15.546875 C 2.242188 -15.835938 2.550781 -15.984375 2.96875 -15.984375 C 3.414062 -15.984375 3.75 -15.835938 3.96875 -15.546875 C 4.1875 -15.265625 4.296875 -14.925781 4.296875 -14.53125 C 4.296875 -14.125 4.1875 -13.773438 3.96875 -13.484375 C 3.75 -13.203125 3.414062 -13.0625 2.96875 -13.0625 Z M 2.96875 -13.0625 "/></g></g></g><g fill="#000000" fill-opacity="1"><g transform="translate(476.257192, 137.599782)"><g><path d="M 9.84375 0 C 9.84375 0 9.9375 -0.0703125 10.125 -0.21875 C 10.3125 -0.375 10.492188 -0.597656 10.671875 -0.890625 C 10.859375 -1.191406 10.953125 -1.570312 10.953125 -2.03125 L 10.953125 -6.296875 C 10.953125 -6.835938 10.898438 -7.367188 10.796875 -7.890625 C 10.691406 -8.410156 10.460938 -8.835938 10.109375 -9.171875 C 9.765625 -9.515625 9.242188 -9.6875 8.546875 -9.6875 C 7.554688 -9.6875 6.742188 -9.519531 6.109375 -9.1875 C 5.484375 -8.863281 5.015625 -8.425781 4.703125 -7.875 C 4.398438 -7.332031 4.25 -6.753906 4.25 -6.140625 L 4.25 -2.03125 C 4.25 -1.570312 4.335938 -1.191406 4.515625 -0.890625 C 4.703125 -0.597656 4.882812 -0.375 5.0625 -0.21875 C 5.25 -0.0703125 5.34375 0 5.34375 0 L 0.609375 0 C 0.609375 0 0.703125 -0.0703125 0.890625 -0.21875 C 1.078125 -0.375 1.265625 -0.597656 1.453125 -0.890625 C 1.640625 -1.191406 1.734375 -1.570312 1.734375 -2.03125 L 1.734375 -9.921875 C 1.734375 -10.367188 1.640625 -10.738281 1.453125 -11.03125 C 1.265625 -11.332031 1.078125 -11.554688 0.890625 -11.703125 C 0.703125 -11.847656 0.609375 -11.921875 0.609375 -11.921875 L 4.265625 -11.921875 L 4.25 -8.90625 C 4.726562 -9.875 5.296875 -10.65625 5.953125 -11.25 C 6.617188 -11.851562 7.484375 -12.15625 8.546875 -12.15625 C 9.640625 -12.15625 10.546875 -11.878906 11.265625 -11.328125 C 11.992188 -10.785156 12.539062 -10.050781 12.90625 -9.125 C 13.28125 -8.207031 13.472656 -7.191406 13.484375 -6.078125 L 13.46875 -2.03125 C 13.46875 -1.570312 13.5625 -1.191406 13.75 -0.890625 C 13.9375 -0.597656 14.125 -0.375 14.3125 -0.21875 C 14.5 -0.0703125 14.59375 0 14.59375 0 Z M 9.84375 0 "/></g></g></g><g fill="#000000" fill-opacity="1"><g transform="translate(494.57584, 137.599782)"><g><path d="M 10.25 0 C 10.25 0 10.34375 -0.0703125 10.53125 -0.21875 C 10.71875 -0.375 10.898438 -0.597656 11.078125 -0.890625 C 11.265625 -1.191406 11.359375 -1.570312 11.359375 -2.03125 C 11.359375 -2.03125 11.359375 -2.117188 11.359375 -2.296875 C 11.359375 -2.472656 11.359375 -2.726562 11.359375 -3.0625 C 10.890625 -2.082031 10.316406 -1.289062 9.640625 -0.6875 C 8.972656 -0.0820312 8.097656 0.21875 7.015625 0.21875 C 5.785156 0.21875 4.703125 -0.0546875 3.765625 -0.609375 C 2.828125 -1.160156 2.09375 -1.90625 1.5625 -2.84375 C 1.039062 -3.78125 0.78125 -4.816406 0.78125 -5.953125 C 0.78125 -7.097656 1.050781 -8.140625 1.59375 -9.078125 C 2.132812 -10.015625 2.875 -10.757812 3.8125 -11.3125 C 4.757812 -11.875 5.828125 -12.15625 7.015625 -12.15625 C 8.097656 -12.15625 8.972656 -11.851562 9.640625 -11.25 C 10.316406 -10.644531 10.890625 -9.851562 11.359375 -8.875 L 11.359375 -15.15625 C 11.359375 -15.601562 11.265625 -15.976562 11.078125 -16.28125 C 10.898438 -16.582031 10.71875 -16.804688 10.53125 -16.953125 C 10.34375 -17.097656 10.25 -17.171875 10.25 -17.171875 L 13.890625 -17.171875 L 13.890625 -2.03125 C 13.890625 -1.570312 13.984375 -1.191406 14.171875 -0.890625 C 14.359375 -0.597656 14.546875 -0.375 14.734375 -0.21875 C 14.921875 -0.0703125 15.015625 0 15.015625 0 Z M 7.015625 -2.21875 C 8.078125 -2.21875 8.925781 -2.382812 9.5625 -2.71875 C 10.195312 -3.0625 10.65625 -3.515625 10.9375 -4.078125 C 11.21875 -4.640625 11.359375 -5.265625 11.359375 -5.953125 C 11.359375 -7.128906 11.03125 -8.050781 10.375 -8.71875 C 9.726562 -9.382812 8.609375 -9.71875 7.015625 -9.71875 C 6.296875 -9.71875 5.65625 -9.554688 5.09375 -9.234375 C 4.539062 -8.910156 4.109375 -8.46875 3.796875 -7.90625 C 3.484375 -7.34375 3.328125 -6.691406 3.328125 -5.953125 C 3.328125 -5.222656 3.488281 -4.578125 3.8125 -4.015625 C 4.132812 -3.453125 4.578125 -3.007812 5.140625 -2.6875 C 5.703125 -2.375 6.328125 -2.21875 7.015625 -2.21875 Z M 7.015625 -2.21875 "/></g></g></g><g fill="#000000" fill-opacity="1"><g transform="translate(513.43394, 137.599782)"><g><path d="M 3.59375 -8.5 C 3.59375 -8.164062 3.765625 -7.898438 4.109375 -7.703125 C 4.453125 -7.515625 4.910156 -7.351562 5.484375 -7.21875 C 6.066406 -7.09375 6.695312 -6.972656 7.375 -6.859375 C 8.0625 -6.753906 8.75 -6.625 9.4375 -6.46875 C 10.132812 -6.3125 10.765625 -6.109375 11.328125 -5.859375 C 11.898438 -5.609375 12.363281 -5.28125 12.71875 -4.875 C 13.070312 -4.46875 13.25 -3.96875 13.25 -3.375 C 13.25 -3.070312 13.15625 -2.71875 12.96875 -2.3125 C 12.789062 -1.90625 12.476562 -1.507812 12.03125 -1.125 C 11.59375 -0.738281 10.972656 -0.414062 10.171875 -0.15625 C 9.367188 0.09375 8.347656 0.21875 7.109375 0.21875 C 5.910156 0.21875 4.828125 -0.015625 3.859375 -0.484375 C 2.898438 -0.953125 2.144531 -1.570312 1.59375 -2.34375 C 1.050781 -3.113281 0.78125 -3.941406 0.78125 -4.828125 L 3.328125 -4.65625 C 3.328125 -4.007812 3.488281 -3.507812 3.8125 -3.15625 C 4.144531 -2.800781 4.597656 -2.554688 5.171875 -2.421875 C 5.742188 -2.285156 6.390625 -2.21875 7.109375 -2.21875 C 8.316406 -2.21875 9.21875 -2.304688 9.8125 -2.484375 C 10.40625 -2.671875 10.703125 -2.96875 10.703125 -3.375 C 10.703125 -3.625 10.53125 -3.828125 10.1875 -3.984375 C 9.84375 -4.148438 9.378906 -4.289062 8.796875 -4.40625 C 8.222656 -4.53125 7.59375 -4.648438 6.90625 -4.765625 C 6.226562 -4.890625 5.546875 -5.035156 4.859375 -5.203125 C 4.171875 -5.378906 3.539062 -5.601562 2.96875 -5.875 C 2.394531 -6.15625 1.929688 -6.503906 1.578125 -6.921875 C 1.234375 -7.347656 1.0625 -7.875 1.0625 -8.5 C 1.0625 -8.8125 1.179688 -9.175781 1.421875 -9.59375 C 1.660156 -10.019531 2.019531 -10.425781 2.5 -10.8125 C 2.988281 -11.207031 3.609375 -11.535156 4.359375 -11.796875 C 5.109375 -12.054688 6 -12.1875 7.03125 -12.1875 C 8.394531 -12.1875 9.523438 -11.953125 10.421875 -11.484375 C 11.328125 -11.023438 12 -10.445312 12.4375 -9.75 C 12.882812 -9.0625 13.109375 -8.375 13.109375 -7.6875 L 10.5625 -7.890625 C 10.5625 -8.328125 10.457031 -8.679688 10.25 -8.953125 C 10.050781 -9.222656 9.691406 -9.414062 9.171875 -9.53125 C 8.660156 -9.65625 7.945312 -9.71875 7.03125 -9.71875 C 6.125 -9.71875 5.421875 -9.671875 4.921875 -9.578125 C 4.429688 -9.484375 4.085938 -9.347656 3.890625 -9.171875 C 3.691406 -9.003906 3.59375 -8.78125 3.59375 -8.5 Z M 3.59375 -8.5 "/></g></g></g><g fill="#000000" fill-opacity="1"><g transform="translate(530.786089, 137.599782)"><g><path d="M 2.515625 -3.53125 C 3.046875 -3.53125 3.492188 -3.34375 3.859375 -2.96875 C 4.222656 -2.601562 4.40625 -2.160156 4.40625 -1.640625 C 4.40625 -1.285156 4.40625 -1.078125 4.40625 -1.015625 C 4.40625 -0.953125 4.40625 -0.921875 4.40625 -0.921875 C 4.40625 -0.347656 4.21875 0.117188 3.84375 0.484375 C 3.46875 0.847656 3.019531 1.113281 2.5 1.28125 C 1.988281 1.457031 1.523438 1.546875 1.109375 1.546875 L 1.109375 1.265625 C 1.390625 1.265625 1.671875 1.195312 1.953125 1.0625 C 2.242188 0.9375 2.476562 0.796875 2.65625 0.640625 C 2.832031 0.484375 2.921875 0.351562 2.921875 0.25 C 2.910156 0.25 2.898438 0.242188 2.890625 0.234375 C 2.878906 0.222656 2.867188 0.21875 2.859375 0.21875 C 2.835938 0.21875 2.816406 0.222656 2.796875 0.234375 C 2.773438 0.242188 2.75 0.25 2.71875 0.25 C 2.707031 0.25 2.6875 0.242188 2.65625 0.234375 C 2.632812 0.222656 2.617188 0.21875 2.609375 0.21875 C 2.585938 0.21875 2.570312 0.222656 2.5625 0.234375 C 2.550781 0.242188 2.535156 0.25 2.515625 0.25 C 1.992188 0.25 1.546875 0.0625 1.171875 -0.3125 C 0.804688 -0.6875 0.625 -1.128906 0.625 -1.640625 C 0.625 -2.160156 0.804688 -2.601562 1.171875 -2.96875 C 1.546875 -3.34375 1.992188 -3.53125 2.515625 -3.53125 Z M 2.515625 -3.53125 "/></g></g></g><g fill="#000000" fill-opacity="1"><g transform="translate(245.515523, 168.34978)"><g><path d="M 12.28125 -2.453125 C 12.445312 -2.453125 12.660156 -2.550781 12.921875 -2.75 C 13.179688 -2.957031 13.457031 -3.207031 13.75 -3.5 C 14.050781 -3.800781 14.332031 -4.101562 14.59375 -4.40625 C 14.863281 -4.707031 15.082031 -4.957031 15.25 -5.15625 C 15.425781 -5.363281 15.515625 -5.46875 15.515625 -5.46875 L 14.484375 0 L 0.703125 0 C 0.703125 0 0.796875 -0.0703125 0.984375 -0.21875 C 1.171875 -0.375 1.359375 -0.597656 1.546875 -0.890625 C 1.734375 -1.191406 1.828125 -1.578125 1.828125 -2.046875 L 1.828125 -13.71875 C 1.828125 -14.132812 1.734375 -14.492188 1.546875 -14.796875 C 1.359375 -15.097656 1.171875 -15.328125 0.984375 -15.484375 C 0.796875 -15.648438 0.703125 -15.734375 0.703125 -15.734375 L 13.71875 -15.734375 L 14.96875 -10.703125 C 14.96875 -10.703125 14.878906 -10.785156 14.703125 -10.953125 C 14.535156 -11.128906 14.320312 -11.34375 14.0625 -11.59375 C 13.800781 -11.851562 13.519531 -12.109375 13.21875 -12.359375 C 12.914062 -12.617188 12.632812 -12.835938 12.375 -13.015625 C 12.113281 -13.191406 11.898438 -13.28125 11.734375 -13.28125 L 5.953125 -13.28125 C 5.503906 -13.28125 5.125 -13.125 4.8125 -12.8125 C 4.507812 -12.5 4.359375 -12.125 4.359375 -11.6875 L 4.359375 -9.234375 L 9.203125 -9.234375 C 9.460938 -9.234375 9.757812 -9.289062 10.09375 -9.40625 C 10.425781 -9.519531 10.703125 -9.628906 10.921875 -9.734375 C 11.148438 -9.835938 11.265625 -9.890625 11.265625 -9.890625 L 11.265625 -6.046875 C 11.265625 -6.046875 11.15625 -6.109375 10.9375 -6.234375 C 10.71875 -6.367188 10.441406 -6.492188 10.109375 -6.609375 C 9.785156 -6.734375 9.472656 -6.796875 9.171875 -6.796875 L 4.359375 -6.796875 L 4.359375 -4.03125 C 4.359375 -3.59375 4.507812 -3.21875 4.8125 -2.90625 C 5.125 -2.601562 5.5 -2.453125 5.9375 -2.453125 Z M 12.28125 -2.453125 "/></g></g></g><g fill="#000000" fill-opacity="1"><g transform="translate(265.025432, 168.34978)"><g><path d="M 0.578125 0 C 0.578125 0 0.671875 -0.0703125 0.859375 -0.21875 C 1.046875 -0.375 1.234375 -0.597656 1.421875 -0.890625 C 1.609375 -1.191406 1.703125 -1.570312 1.703125 -2.03125 L 1.703125 -15.15625 C 1.703125 -15.601562 1.609375 -15.976562 1.421875 -16.28125 C 1.234375 -16.582031 1.046875 -16.800781 0.859375 -16.9375 C 0.671875 -17.082031 0.578125 -17.15625 0.578125 -17.15625 L 4.25 -17.15625 L 4.234375 -2.03125 C 4.234375 -1.570312 4.328125 -1.191406 4.515625 -0.890625 C 4.703125 -0.597656 4.882812 -0.375 5.0625 -0.21875 C 5.25 -0.0703125 5.34375 0 5.34375 0 Z M 0.578125 0 "/></g></g></g><g fill="#000000" fill-opacity="1"><g transform="translate(274.218596, 168.34978)"><g><path d="M 8.109375 -2.21875 C 9.128906 -2.21875 9.96875 -2.332031 10.625 -2.5625 C 11.28125 -2.789062 11.785156 -3.046875 12.140625 -3.328125 C 12.503906 -3.609375 12.753906 -3.859375 12.890625 -4.078125 C 13.035156 -4.296875 13.109375 -4.40625 13.109375 -4.40625 L 14.1875 -3.734375 C 14.1875 -3.734375 14.125 -3.601562 14 -3.34375 C 13.882812 -3.082031 13.691406 -2.75 13.421875 -2.34375 C 13.148438 -1.945312 12.78125 -1.550781 12.3125 -1.15625 C 11.851562 -0.769531 11.28125 -0.441406 10.59375 -0.171875 C 9.914062 0.0859375 9.101562 0.21875 8.15625 0.21875 C 6.957031 0.21875 5.9375 0.0664062 5.09375 -0.234375 C 4.25 -0.546875 3.539062 -0.945312 2.96875 -1.4375 C 2.394531 -1.9375 1.941406 -2.46875 1.609375 -3.03125 C 1.285156 -3.59375 1.054688 -4.128906 0.921875 -4.640625 C 0.785156 -5.160156 0.71875 -5.597656 0.71875 -5.953125 C 0.71875 -6.585938 0.84375 -7.257812 1.09375 -7.96875 C 1.34375 -8.675781 1.738281 -9.347656 2.28125 -9.984375 C 2.832031 -10.628906 3.546875 -11.148438 4.421875 -11.546875 C 5.296875 -11.941406 6.367188 -12.140625 7.640625 -12.140625 C 8.921875 -12.140625 9.988281 -11.984375 10.84375 -11.671875 C 11.707031 -11.359375 12.394531 -10.972656 12.90625 -10.515625 C 13.414062 -10.054688 13.78125 -9.585938 14 -9.109375 C 14.21875 -8.640625 14.328125 -8.25 14.328125 -7.9375 C 14.328125 -7.519531 14.164062 -7.066406 13.84375 -6.578125 C 13.519531 -6.085938 13.023438 -5.664062 12.359375 -5.3125 C 11.703125 -4.96875 10.847656 -4.796875 9.796875 -4.796875 C 8.898438 -4.796875 8.003906 -4.847656 7.109375 -4.953125 C 6.222656 -5.054688 5.429688 -5.171875 4.734375 -5.296875 C 4.046875 -5.421875 3.5625 -5.519531 3.28125 -5.59375 C 3.28125 -4.96875 3.429688 -4.398438 3.734375 -3.890625 C 4.035156 -3.378906 4.535156 -2.972656 5.234375 -2.671875 C 5.941406 -2.367188 6.898438 -2.21875 8.109375 -2.21875 Z M 7.640625 -9.71875 C 6.359375 -9.71875 5.375 -9.445312 4.6875 -8.90625 C 4.007812 -8.375 3.578125 -7.691406 3.390625 -6.859375 C 3.585938 -6.816406 3.929688 -6.753906 4.421875 -6.671875 C 4.910156 -6.585938 5.472656 -6.503906 6.109375 -6.421875 C 6.742188 -6.347656 7.390625 -6.304688 8.046875 -6.296875 C 8.703125 -6.296875 9.3125 -6.351562 9.875 -6.46875 C 10.4375 -6.582031 10.894531 -6.773438 11.25 -7.046875 C 11.601562 -7.328125 11.78125 -7.710938 11.78125 -8.203125 C 11.78125 -8.679688 11.476562 -9.050781 10.875 -9.3125 C 10.28125 -9.582031 9.203125 -9.71875 7.640625 -9.71875 Z M 7.640625 -9.71875 "/></g></g></g><g fill="#000000" fill-opacity="1"><g transform="translate(292.582197, 168.34978)"><g><path d="M 10.40625 -11.921875 L 16.890625 -11.921875 C 15.691406 -11.378906 14.851562 -10.492188 14.375 -9.265625 L 10.6875 0 L 6.203125 0 L 2.515625 -9.265625 C 2.035156 -10.492188 1.195312 -11.378906 0 -11.921875 L 6.46875 -11.921875 L 5.515625 -11.515625 C 5.242188 -11.410156 5.046875 -11.21875 4.921875 -10.9375 C 4.804688 -10.65625 4.804688 -10.375 4.921875 -10.09375 L 7.953125 -2.453125 L 8.921875 -2.453125 L 11.984375 -10.09375 C 12.085938 -10.375 12.082031 -10.65625 11.96875 -10.9375 C 11.851562 -11.21875 11.65625 -11.410156 11.375 -11.515625 Z M 10.40625 -11.921875 "/></g></g></g><g fill="#000000" fill-opacity="1"><g transform="translate(312.743927, 168.34978)"><g><path d="M 14.046875 -2.03125 C 14.046875 -1.675781 14.117188 -1.375 14.265625 -1.125 C 14.421875 -0.882812 14.597656 -0.675781 14.796875 -0.5 C 15.003906 -0.332031 15.179688 -0.207031 15.328125 -0.125 C 15.484375 -0.0390625 15.5625 0 15.5625 0 L 11.6875 0 L 11.515625 -2.1875 C 10.941406 -1.445312 10.320312 -0.859375 9.65625 -0.421875 C 8.988281 0.00390625 8.144531 0.21875 7.125 0.21875 C 6.4375 0.21875 5.71875 0.144531 4.96875 0 C 4.21875 -0.144531 3.515625 -0.382812 2.859375 -0.71875 C 2.210938 -1.050781 1.6875 -1.476562 1.28125 -2 C 0.875 -2.519531 0.671875 -3.15625 0.671875 -3.90625 C 0.671875 -4.582031 0.875 -5.164062 1.28125 -5.65625 C 1.6875 -6.15625 2.21875 -6.539062 2.875 -6.8125 C 3.539062 -7.09375 4.238281 -7.234375 4.96875 -7.234375 C 5.882812 -7.234375 6.78125 -7.164062 7.65625 -7.03125 C 8.53125 -6.894531 9.3125 -6.742188 10 -6.578125 C 10.695312 -6.421875 11.203125 -6.296875 11.515625 -6.203125 L 11.515625 -6.390625 C 11.515625 -7.242188 11.34375 -7.910156 11 -8.390625 C 10.65625 -8.878906 10.15625 -9.21875 9.5 -9.40625 C 8.84375 -9.59375 8.050781 -9.6875 7.125 -9.6875 C 6.257812 -9.6875 5.546875 -9.585938 4.984375 -9.390625 C 4.421875 -9.203125 3.976562 -8.976562 3.65625 -8.71875 C 3.34375 -8.46875 3.125 -8.242188 3 -8.046875 C 2.875 -7.847656 2.8125 -7.75 2.8125 -7.75 L 1.734375 -8.4375 C 1.734375 -8.4375 1.773438 -8.5625 1.859375 -8.8125 C 1.941406 -9.070312 2.085938 -9.382812 2.296875 -9.75 C 2.515625 -10.113281 2.828125 -10.476562 3.234375 -10.84375 C 3.640625 -11.21875 4.160156 -11.53125 4.796875 -11.78125 C 5.429688 -12.03125 6.207031 -12.15625 7.125 -12.15625 C 8.101562 -12.15625 8.953125 -12.03125 9.671875 -11.78125 C 10.390625 -11.539062 11.035156 -11.164062 11.609375 -10.65625 C 11.972656 -10.3125 12.347656 -9.910156 12.734375 -9.453125 C 13.117188 -8.992188 13.429688 -8.472656 13.671875 -7.890625 C 13.921875 -7.316406 14.046875 -6.679688 14.046875 -5.984375 Z M 7.125 -2.21875 C 8.320312 -2.21875 9.289062 -2.460938 10.03125 -2.953125 C 10.78125 -3.453125 11.238281 -4.117188 11.40625 -4.953125 C 11.101562 -5.003906 10.691406 -5.078125 10.171875 -5.171875 C 9.660156 -5.265625 9.082031 -5.347656 8.4375 -5.421875 C 7.800781 -5.503906 7.164062 -5.550781 6.53125 -5.5625 C 5.894531 -5.570312 5.3125 -5.523438 4.78125 -5.421875 C 4.25 -5.316406 3.816406 -5.128906 3.484375 -4.859375 C 3.148438 -4.585938 2.984375 -4.203125 2.984375 -3.703125 C 2.984375 -3.316406 3.109375 -3.019531 3.359375 -2.8125 C 3.617188 -2.601562 3.953125 -2.457031 4.359375 -2.375 C 4.765625 -2.289062 5.210938 -2.242188 5.703125 -2.234375 C 6.191406 -2.222656 6.664062 -2.21875 7.125 -2.21875 Z M 7.125 -2.21875 "/></g></g></g><g fill="#000000" fill-opacity="1"><g transform="translate(331.871729, 168.34978)"><g><path d="M 7.28125 -9.46875 L 4.40625 -9.46875 L 4.390625 -2.03125 C 4.390625 -1.570312 4.484375 -1.191406 4.671875 -0.890625 C 4.859375 -0.597656 5.046875 -0.375 5.234375 -0.21875 C 5.421875 -0.0703125 5.515625 0 5.515625 0 L 1.84375 0 L 1.859375 -9.46875 L 0.734375 -9.46875 L 0.734375 -11.921875 L 1.859375 -11.921875 L 1.859375 -15.671875 L 4.40625 -15.671875 L 4.40625 -11.921875 L 8.40625 -11.921875 Z M 7.28125 -9.46875 "/></g></g></g><g fill="#000000" fill-opacity="1"><g transform="translate(343.739607, 168.34978)"><g><path d="M 0.625 0 C 0.625 0 0.71875 -0.0703125 0.90625 -0.21875 C 1.09375 -0.375 1.28125 -0.597656 1.46875 -0.890625 C 1.65625 -1.191406 1.75 -1.570312 1.75 -2.03125 L 1.75 -9.890625 C 1.75 -10.335938 1.65625 -10.710938 1.46875 -11.015625 C 1.28125 -11.316406 1.09375 -11.539062 0.90625 -11.6875 C 0.71875 -11.84375 0.625 -11.921875 0.625 -11.921875 L 4.3125 -11.921875 L 4.296875 -2.03125 C 4.296875 -1.570312 4.390625 -1.191406 4.578125 -0.890625 C 4.765625 -0.597656 4.945312 -0.375 5.125 -0.21875 C 5.300781 -0.0703125 5.390625 0 5.390625 0 Z M 2.96875 -13.0625 C 2.550781 -13.0625 2.242188 -13.203125 2.046875 -13.484375 C 1.847656 -13.773438 1.75 -14.125 1.75 -14.53125 C 1.75 -14.925781 1.847656 -15.265625 2.046875 -15.546875 C 2.242188 -15.835938 2.550781 -15.984375 2.96875 -15.984375 C 3.414062 -15.984375 3.75 -15.835938 3.96875 -15.546875 C 4.1875 -15.265625 4.296875 -14.925781 4.296875 -14.53125 C 4.296875 -14.125 4.1875 -13.773438 3.96875 -13.484375 C 3.75 -13.203125 3.414062 -13.0625 2.96875 -13.0625 Z M 2.96875 -13.0625 "/></g></g></g><g fill="#000000" fill-opacity="1"><g transform="translate(353.000199, 168.34978)"><g><path d="M 9.84375 0 C 9.84375 0 9.9375 -0.0703125 10.125 -0.21875 C 10.3125 -0.375 10.492188 -0.597656 10.671875 -0.890625 C 10.859375 -1.191406 10.953125 -1.570312 10.953125 -2.03125 L 10.953125 -6.296875 C 10.953125 -6.835938 10.898438 -7.367188 10.796875 -7.890625 C 10.691406 -8.410156 10.460938 -8.835938 10.109375 -9.171875 C 9.765625 -9.515625 9.242188 -9.6875 8.546875 -9.6875 C 7.554688 -9.6875 6.742188 -9.519531 6.109375 -9.1875 C 5.484375 -8.863281 5.015625 -8.425781 4.703125 -7.875 C 4.398438 -7.332031 4.25 -6.753906 4.25 -6.140625 L 4.25 -2.03125 C 4.25 -1.570312 4.335938 -1.191406 4.515625 -0.890625 C 4.703125 -0.597656 4.882812 -0.375 5.0625 -0.21875 C 5.25 -0.0703125 5.34375 0 5.34375 0 L 0.609375 0 C 0.609375 0 0.703125 -0.0703125 0.890625 -0.21875 C 1.078125 -0.375 1.265625 -0.597656 1.453125 -0.890625 C 1.640625 -1.191406 1.734375 -1.570312 1.734375 -2.03125 L 1.734375 -9.921875 C 1.734375 -10.367188 1.640625 -10.738281 1.453125 -11.03125 C 1.265625 -11.332031 1.078125 -11.554688 0.890625 -11.703125 C 0.703125 -11.847656 0.609375 -11.921875 0.609375 -11.921875 L 4.265625 -11.921875 L 4.25 -8.90625 C 4.726562 -9.875 5.296875 -10.65625 5.953125 -11.25 C 6.617188 -11.851562 7.484375 -12.15625 8.546875 -12.15625 C 9.640625 -12.15625 10.546875 -11.878906 11.265625 -11.328125 C 11.992188 -10.785156 12.539062 -10.050781 12.90625 -9.125 C 13.28125 -8.207031 13.472656 -7.191406 13.484375 -6.078125 L 13.46875 -2.03125 C 13.46875 -1.570312 13.5625 -1.191406 13.75 -0.890625 C 13.9375 -0.597656 14.125 -0.375 14.3125 -0.21875 C 14.5 -0.0703125 14.59375 0 14.59375 0 Z M 9.84375 0 "/></g></g></g><g fill="#000000" fill-opacity="1"><g transform="translate(371.318848, 168.34978)"><g><path d="M 10.28125 -11.6875 L 14.03125 -11.921875 L 14.03125 -8.3125 C 14.03125 -8.3125 14.03125 -8.316406 14.03125 -8.328125 C 14.03125 -8.335938 14.019531 -8.347656 14 -8.359375 C 13.976562 -8.421875 13.925781 -8.546875 13.84375 -8.734375 C 13.769531 -8.921875 13.660156 -9.128906 13.515625 -9.359375 C 13.378906 -9.597656 13.203125 -9.804688 12.984375 -9.984375 C 12.765625 -10.160156 12.5 -10.265625 12.1875 -10.296875 C 12.707031 -9.585938 12.96875 -8.753906 12.96875 -7.796875 C 12.96875 -7.003906 12.726562 -6.273438 12.25 -5.609375 C 11.769531 -4.953125 11.078125 -4.429688 10.171875 -4.046875 C 9.265625 -3.660156 8.179688 -3.46875 6.921875 -3.46875 C 6.546875 -3.46875 6.203125 -3.484375 5.890625 -3.515625 C 5.578125 -3.554688 5.273438 -3.613281 4.984375 -3.6875 L 3.84375 -2.515625 C 3.84375 -2.515625 3.859375 -2.476562 3.890625 -2.40625 C 3.929688 -2.332031 4.164062 -2.296875 4.59375 -2.296875 L 12.15625 -2.296875 C 12.476562 -2.296875 12.773438 -2.179688 13.046875 -1.953125 C 13.316406 -1.734375 13.53125 -1.457031 13.6875 -1.125 C 13.851562 -0.789062 13.945312 -0.46875 13.96875 -0.15625 C 13.976562 0.570312 13.8125 1.273438 13.46875 1.953125 C 13.125 2.640625 12.632812 3.242188 12 3.765625 C 11.375 4.296875 10.632812 4.710938 9.78125 5.015625 C 8.9375 5.328125 8.019531 5.484375 7.03125 5.484375 C 6.070312 5.484375 5.179688 5.335938 4.359375 5.046875 C 3.546875 4.753906 2.828125 4.359375 2.203125 3.859375 C 1.585938 3.359375 1.101562 2.785156 0.75 2.140625 C 0.394531 1.492188 0.210938 0.8125 0.203125 0.09375 L 1.4375 0.1875 C 1.425781 0.238281 1.421875 0.296875 1.421875 0.359375 C 1.421875 0.421875 1.421875 0.472656 1.421875 0.515625 C 1.421875 0.878906 1.625 1.253906 2.03125 1.640625 C 2.445312 2.023438 3.070312 2.347656 3.90625 2.609375 C 4.738281 2.878906 5.78125 3.015625 7.03125 3.015625 C 8.101562 3.015625 8.972656 2.878906 9.640625 2.609375 C 10.316406 2.347656 10.816406 2.03125 11.140625 1.65625 C 11.460938 1.289062 11.625 0.941406 11.625 0.609375 C 11.625 0.429688 11.550781 0.304688 11.40625 0.234375 C 11.269531 0.171875 11.003906 0.140625 10.609375 0.140625 L 3.328125 0.140625 C 2.941406 0.140625 2.59375 0.015625 2.28125 -0.234375 C 1.976562 -0.484375 1.742188 -0.800781 1.578125 -1.1875 C 1.410156 -1.582031 1.328125 -1.992188 1.328125 -2.421875 L 1.328125 -3.265625 L 3.421875 -4.265625 C 2.941406 -4.429688 2.507812 -4.703125 2.125 -5.078125 C 1.738281 -5.453125 1.4375 -5.878906 1.21875 -6.359375 C 1.007812 -6.835938 0.90625 -7.316406 0.90625 -7.796875 C 0.90625 -8.609375 1.140625 -9.335938 1.609375 -9.984375 C 2.078125 -10.640625 2.757812 -11.164062 3.65625 -11.5625 C 4.5625 -11.957031 5.648438 -12.15625 6.921875 -12.15625 C 7.460938 -12.15625 8.0625 -12.113281 8.71875 -12.03125 C 9.382812 -11.957031 9.90625 -11.84375 10.28125 -11.6875 Z M 6.921875 -5.90625 C 7.535156 -5.90625 8.113281 -5.957031 8.65625 -6.0625 C 9.195312 -6.175781 9.628906 -6.367188 9.953125 -6.640625 C 10.273438 -6.921875 10.4375 -7.304688 10.4375 -7.796875 C 10.4375 -8.359375 10.273438 -8.769531 9.953125 -9.03125 C 9.628906 -9.300781 9.195312 -9.476562 8.65625 -9.5625 C 8.113281 -9.644531 7.535156 -9.6875 6.921875 -9.6875 C 6.296875 -9.6875 5.71875 -9.644531 5.1875 -9.5625 C 4.65625 -9.476562 4.226562 -9.300781 3.90625 -9.03125 C 3.582031 -8.769531 3.421875 -8.359375 3.421875 -7.796875 C 3.421875 -7.234375 3.582031 -6.816406 3.90625 -6.546875 C 4.226562 -6.273438 4.65625 -6.097656 5.1875 -6.015625 C 5.71875 -5.941406 6.296875 -5.90625 6.921875 -5.90625 Z M 6.921875 -5.90625 "/></g></g></g><g fill="#000000" fill-opacity="1"><g transform="translate(389.43521, 168.34978)"><g/></g></g><g fill="#000000" fill-opacity="1"><g transform="translate(399.437529, 168.34978)"><g><path d="M 13.875 -15.734375 L 14.90625 -10.703125 C 14.90625 -10.703125 14.820312 -10.785156 14.65625 -10.953125 C 14.488281 -11.128906 14.273438 -11.34375 14.015625 -11.59375 C 13.753906 -11.851562 13.472656 -12.109375 13.171875 -12.359375 C 12.867188 -12.617188 12.582031 -12.835938 12.3125 -13.015625 C 12.050781 -13.191406 11.835938 -13.28125 11.671875 -13.28125 L 5.890625 -13.28125 C 5.453125 -13.28125 5.078125 -13.125 4.765625 -12.8125 C 4.453125 -12.5 4.296875 -12.125 4.296875 -11.6875 L 4.296875 -9.234375 L 9.15625 -9.234375 C 9.476562 -9.234375 9.796875 -9.289062 10.109375 -9.40625 C 10.429688 -9.519531 10.695312 -9.628906 10.90625 -9.734375 C 11.113281 -9.835938 11.21875 -9.890625 11.21875 -9.890625 L 11.21875 -6.078125 C 11.21875 -6.078125 11.117188 -6.132812 10.921875 -6.25 C 10.734375 -6.375 10.476562 -6.492188 10.15625 -6.609375 C 9.84375 -6.734375 9.507812 -6.796875 9.15625 -6.796875 L 4.296875 -6.796875 L 4.296875 -2.03125 C 4.296875 -1.570312 4.390625 -1.191406 4.578125 -0.890625 C 4.765625 -0.597656 4.953125 -0.375 5.140625 -0.21875 C 5.328125 -0.0703125 5.421875 0 5.421875 0 L 0.65625 0 C 0.65625 0 0.75 -0.078125 0.9375 -0.234375 C 1.125 -0.390625 1.3125 -0.617188 1.5 -0.921875 C 1.6875 -1.222656 1.78125 -1.59375 1.78125 -2.03125 L 1.78125 -13.71875 C 1.78125 -14.101562 1.6875 -14.445312 1.5 -14.75 C 1.3125 -15.0625 1.125 -15.300781 0.9375 -15.46875 C 0.75 -15.644531 0.65625 -15.734375 0.65625 -15.734375 Z M 13.875 -15.734375 "/></g></g></g><g fill="#000000" fill-opacity="1"><g transform="translate(417.935986, 168.34978)"><g><path d="M 13.265625 -2.03125 C 13.265625 -1.570312 13.359375 -1.191406 13.546875 -0.890625 C 13.734375 -0.597656 13.921875 -0.375 14.109375 -0.21875 C 14.296875 -0.0703125 14.390625 0 14.390625 0 L 10.71875 0 L 10.75 -3.015625 C 10.269531 -2.054688 9.695312 -1.273438 9.03125 -0.671875 C 8.375 -0.078125 7.515625 0.21875 6.453125 0.21875 C 5.359375 0.21875 4.445312 -0.0507812 3.71875 -0.59375 C 2.988281 -1.144531 2.441406 -1.875 2.078125 -2.78125 C 1.710938 -3.695312 1.519531 -4.71875 1.5 -5.84375 L 1.53125 -9.921875 C 1.53125 -10.367188 1.4375 -10.738281 1.25 -11.03125 C 1.0625 -11.332031 0.875 -11.554688 0.6875 -11.703125 C 0.5 -11.847656 0.40625 -11.921875 0.40625 -11.921875 L 5.15625 -11.921875 C 5.15625 -11.921875 5.0625 -11.84375 4.875 -11.6875 C 4.6875 -11.539062 4.5 -11.320312 4.3125 -11.03125 C 4.132812 -10.738281 4.046875 -10.367188 4.046875 -9.921875 L 4.046875 -5.625 C 4.046875 -5.082031 4.097656 -4.550781 4.203125 -4.03125 C 4.304688 -3.519531 4.53125 -3.085938 4.875 -2.734375 C 5.21875 -2.390625 5.742188 -2.21875 6.453125 -2.21875 C 7.441406 -2.21875 8.25 -2.382812 8.875 -2.71875 C 9.507812 -3.0625 9.976562 -3.503906 10.28125 -4.046875 C 10.59375 -4.585938 10.75 -5.171875 10.75 -5.796875 L 10.75 -9.921875 C 10.75 -10.367188 10.65625 -10.738281 10.46875 -11.03125 C 10.289062 -11.332031 10.109375 -11.554688 9.921875 -11.703125 C 9.734375 -11.847656 9.640625 -11.921875 9.640625 -11.921875 L 14.390625 -11.921875 C 14.390625 -11.921875 14.296875 -11.84375 14.109375 -11.6875 C 13.921875 -11.539062 13.734375 -11.320312 13.546875 -11.03125 C 13.359375 -10.738281 13.265625 -10.367188 13.265625 -9.921875 Z M 13.265625 -2.03125 "/></g></g></g><g fill="#000000" fill-opacity="1"><g transform="translate(436.209682, 168.34978)"><g><path d="M 7.28125 -9.46875 L 4.40625 -9.46875 L 4.390625 -2.03125 C 4.390625 -1.570312 4.484375 -1.191406 4.671875 -0.890625 C 4.859375 -0.597656 5.046875 -0.375 5.234375 -0.21875 C 5.421875 -0.0703125 5.515625 0 5.515625 0 L 1.84375 0 L 1.859375 -9.46875 L 0.734375 -9.46875 L 0.734375 -11.921875 L 1.859375 -11.921875 L 1.859375 -15.671875 L 4.40625 -15.671875 L 4.40625 -11.921875 L 8.40625 -11.921875 Z M 7.28125 -9.46875 "/></g></g></g><g fill="#000000" fill-opacity="1"><g transform="translate(448.077559, 168.34978)"><g><path d="M 13.265625 -2.03125 C 13.265625 -1.570312 13.359375 -1.191406 13.546875 -0.890625 C 13.734375 -0.597656 13.921875 -0.375 14.109375 -0.21875 C 14.296875 -0.0703125 14.390625 0 14.390625 0 L 10.71875 0 L 10.75 -3.015625 C 10.269531 -2.054688 9.695312 -1.273438 9.03125 -0.671875 C 8.375 -0.078125 7.515625 0.21875 6.453125 0.21875 C 5.359375 0.21875 4.445312 -0.0507812 3.71875 -0.59375 C 2.988281 -1.144531 2.441406 -1.875 2.078125 -2.78125 C 1.710938 -3.695312 1.519531 -4.71875 1.5 -5.84375 L 1.53125 -9.921875 C 1.53125 -10.367188 1.4375 -10.738281 1.25 -11.03125 C 1.0625 -11.332031 0.875 -11.554688 0.6875 -11.703125 C 0.5 -11.847656 0.40625 -11.921875 0.40625 -11.921875 L 5.15625 -11.921875 C 5.15625 -11.921875 5.0625 -11.84375 4.875 -11.6875 C 4.6875 -11.539062 4.5 -11.320312 4.3125 -11.03125 C 4.132812 -10.738281 4.046875 -10.367188 4.046875 -9.921875 L 4.046875 -5.625 C 4.046875 -5.082031 4.097656 -4.550781 4.203125 -4.03125 C 4.304688 -3.519531 4.53125 -3.085938 4.875 -2.734375 C 5.21875 -2.390625 5.742188 -2.21875 6.453125 -2.21875 C 7.441406 -2.21875 8.25 -2.382812 8.875 -2.71875 C 9.507812 -3.0625 9.976562 -3.503906 10.28125 -4.046875 C 10.59375 -4.585938 10.75 -5.171875 10.75 -5.796875 L 10.75 -9.921875 C 10.75 -10.367188 10.65625 -10.738281 10.46875 -11.03125 C 10.289062 -11.332031 10.109375 -11.554688 9.921875 -11.703125 C 9.734375 -11.847656 9.640625 -11.921875 9.640625 -11.921875 L 14.390625 -11.921875 C 14.390625 -11.921875 14.296875 -11.84375 14.109375 -11.6875 C 13.921875 -11.539062 13.734375 -11.320312 13.546875 -11.03125 C 13.359375 -10.738281 13.265625 -10.367188 13.265625 -9.921875 Z M 13.265625 -2.03125 "/></g></g></g><g fill="#000000" fill-opacity="1"><g transform="translate(466.351255, 168.34978)"><g><path d="M 8.59375 -12.15625 C 9.5 -12.15625 10.269531 -11.898438 10.90625 -11.390625 C 11.550781 -10.890625 12.046875 -10.210938 12.390625 -9.359375 C 12.734375 -8.503906 12.921875 -7.554688 12.953125 -6.515625 L 10.40625 -6.703125 C 10.40625 -7.398438 10.367188 -7.96875 10.296875 -8.40625 C 10.222656 -8.851562 10.054688 -9.179688 9.796875 -9.390625 C 9.546875 -9.609375 9.144531 -9.71875 8.59375 -9.71875 C 7.769531 -9.71875 7.03125 -9.539062 6.375 -9.1875 C 5.71875 -8.84375 5.207031 -8.394531 4.84375 -7.84375 C 4.476562 -7.300781 4.296875 -6.734375 4.296875 -6.140625 L 4.265625 -2.03125 C 4.265625 -1.570312 4.359375 -1.191406 4.546875 -0.890625 C 4.734375 -0.597656 4.921875 -0.375 5.109375 -0.21875 C 5.296875 -0.0703125 5.390625 0 5.390625 0 L 0.625 0 C 0.625 0 0.71875 -0.0703125 0.90625 -0.21875 C 1.09375 -0.375 1.28125 -0.597656 1.46875 -0.890625 C 1.65625 -1.191406 1.75 -1.570312 1.75 -2.03125 L 1.75 -9.890625 C 1.75 -10.335938 1.65625 -10.710938 1.46875 -11.015625 C 1.28125 -11.316406 1.09375 -11.539062 0.90625 -11.6875 C 0.71875 -11.84375 0.625 -11.921875 0.625 -11.921875 L 4.296875 -11.921875 L 4.296875 -8.90625 C 4.773438 -9.875 5.34375 -10.65625 6 -11.25 C 6.664062 -11.851562 7.53125 -12.15625 8.59375 -12.15625 Z M 8.59375 -12.15625 "/></g></g></g><g fill="#000000" fill-opacity="1"><g transform="translate(483.051594, 168.34978)"><g><path d="M 8.109375 -2.21875 C 9.128906 -2.21875 9.96875 -2.332031 10.625 -2.5625 C 11.28125 -2.789062 11.785156 -3.046875 12.140625 -3.328125 C 12.503906 -3.609375 12.753906 -3.859375 12.890625 -4.078125 C 13.035156 -4.296875 13.109375 -4.40625 13.109375 -4.40625 L 14.1875 -3.734375 C 14.1875 -3.734375 14.125 -3.601562 14 -3.34375 C 13.882812 -3.082031 13.691406 -2.75 13.421875 -2.34375 C 13.148438 -1.945312 12.78125 -1.550781 12.3125 -1.15625 C 11.851562 -0.769531 11.28125 -0.441406 10.59375 -0.171875 C 9.914062 0.0859375 9.101562 0.21875 8.15625 0.21875 C 6.957031 0.21875 5.9375 0.0664062 5.09375 -0.234375 C 4.25 -0.546875 3.539062 -0.945312 2.96875 -1.4375 C 2.394531 -1.9375 1.941406 -2.46875 1.609375 -3.03125 C 1.285156 -3.59375 1.054688 -4.128906 0.921875 -4.640625 C 0.785156 -5.160156 0.71875 -5.597656 0.71875 -5.953125 C 0.71875 -6.585938 0.84375 -7.257812 1.09375 -7.96875 C 1.34375 -8.675781 1.738281 -9.347656 2.28125 -9.984375 C 2.832031 -10.628906 3.546875 -11.148438 4.421875 -11.546875 C 5.296875 -11.941406 6.367188 -12.140625 7.640625 -12.140625 C 8.921875 -12.140625 9.988281 -11.984375 10.84375 -11.671875 C 11.707031 -11.359375 12.394531 -10.972656 12.90625 -10.515625 C 13.414062 -10.054688 13.78125 -9.585938 14 -9.109375 C 14.21875 -8.640625 14.328125 -8.25 14.328125 -7.9375 C 14.328125 -7.519531 14.164062 -7.066406 13.84375 -6.578125 C 13.519531 -6.085938 13.023438 -5.664062 12.359375 -5.3125 C 11.703125 -4.96875 10.847656 -4.796875 9.796875 -4.796875 C 8.898438 -4.796875 8.003906 -4.847656 7.109375 -4.953125 C 6.222656 -5.054688 5.429688 -5.171875 4.734375 -5.296875 C 4.046875 -5.421875 3.5625 -5.519531 3.28125 -5.59375 C 3.28125 -4.96875 3.429688 -4.398438 3.734375 -3.890625 C 4.035156 -3.378906 4.535156 -2.972656 5.234375 -2.671875 C 5.941406 -2.367188 6.898438 -2.21875 8.109375 -2.21875 Z M 7.640625 -9.71875 C 6.359375 -9.71875 5.375 -9.445312 4.6875 -8.90625 C 4.007812 -8.375 3.578125 -7.691406 3.390625 -6.859375 C 3.585938 -6.816406 3.929688 -6.753906 4.421875 -6.671875 C 4.910156 -6.585938 5.472656 -6.503906 6.109375 -6.421875 C 6.742188 -6.347656 7.390625 -6.304688 8.046875 -6.296875 C 8.703125 -6.296875 9.3125 -6.351562 9.875 -6.46875 C 10.4375 -6.582031 10.894531 -6.773438 11.25 -7.046875 C 11.601562 -7.328125 11.78125 -7.710938 11.78125 -8.203125 C 11.78125 -8.679688 11.476562 -9.050781 10.875 -9.3125 C 10.28125 -9.582031 9.203125 -9.71875 7.640625 -9.71875 Z M 7.640625 -9.71875 "/></g></g></g><g fill="#000000" fill-opacity="1"><g transform="translate(501.415194, 168.34978)"><g><path d="M 3.59375 -8.5 C 3.59375 -8.164062 3.765625 -7.898438 4.109375 -7.703125 C 4.453125 -7.515625 4.910156 -7.351562 5.484375 -7.21875 C 6.066406 -7.09375 6.695312 -6.972656 7.375 -6.859375 C 8.0625 -6.753906 8.75 -6.625 9.4375 -6.46875 C 10.132812 -6.3125 10.765625 -6.109375 11.328125 -5.859375 C 11.898438 -5.609375 12.363281 -5.28125 12.71875 -4.875 C 13.070312 -4.46875 13.25 -3.96875 13.25 -3.375 C 13.25 -3.070312 13.15625 -2.71875 12.96875 -2.3125 C 12.789062 -1.90625 12.476562 -1.507812 12.03125 -1.125 C 11.59375 -0.738281 10.972656 -0.414062 10.171875 -0.15625 C 9.367188 0.09375 8.347656 0.21875 7.109375 0.21875 C 5.910156 0.21875 4.828125 -0.015625 3.859375 -0.484375 C 2.898438 -0.953125 2.144531 -1.570312 1.59375 -2.34375 C 1.050781 -3.113281 0.78125 -3.941406 0.78125 -4.828125 L 3.328125 -4.65625 C 3.328125 -4.007812 3.488281 -3.507812 3.8125 -3.15625 C 4.144531 -2.800781 4.597656 -2.554688 5.171875 -2.421875 C 5.742188 -2.285156 6.390625 -2.21875 7.109375 -2.21875 C 8.316406 -2.21875 9.21875 -2.304688 9.8125 -2.484375 C 10.40625 -2.671875 10.703125 -2.96875 10.703125 -3.375 C 10.703125 -3.625 10.53125 -3.828125 10.1875 -3.984375 C 9.84375 -4.148438 9.378906 -4.289062 8.796875 -4.40625 C 8.222656 -4.53125 7.59375 -4.648438 6.90625 -4.765625 C 6.226562 -4.890625 5.546875 -5.035156 4.859375 -5.203125 C 4.171875 -5.378906 3.539062 -5.601562 2.96875 -5.875 C 2.394531 -6.15625 1.929688 -6.503906 1.578125 -6.921875 C 1.234375 -7.347656 1.0625 -7.875 1.0625 -8.5 C 1.0625 -8.8125 1.179688 -9.175781 1.421875 -9.59375 C 1.660156 -10.019531 2.019531 -10.425781 2.5 -10.8125 C 2.988281 -11.207031 3.609375 -11.535156 4.359375 -11.796875 C 5.109375 -12.054688 6 -12.1875 7.03125 -12.1875 C 8.394531 -12.1875 9.523438 -11.953125 10.421875 -11.484375 C 11.328125 -11.023438 12 -10.445312 12.4375 -9.75 C 12.882812 -9.0625 13.109375 -8.375 13.109375 -7.6875 L 10.5625 -7.890625 C 10.5625 -8.328125 10.457031 -8.679688 10.25 -8.953125 C 10.050781 -9.222656 9.691406 -9.414062 9.171875 -9.53125 C 8.660156 -9.65625 7.945312 -9.71875 7.03125 -9.71875 C 6.125 -9.71875 5.421875 -9.671875 4.921875 -9.578125 C 4.429688 -9.484375 4.085938 -9.347656 3.890625 -9.171875 C 3.691406 -9.003906 3.59375 -8.78125 3.59375 -8.5 Z M 3.59375 -8.5 "/></g></g></g><g fill="#000000" fill-opacity="1"><g transform="translate(518.767365, 168.34978)"><g><path d="M 3.9375 -5.53125 L 2.03125 -5.53125 L 1.703125 -15.984375 L 4.265625 -15.984375 Z M 2.984375 0.25 C 2.460938 0.25 2.019531 0.0625 1.65625 -0.3125 C 1.289062 -0.6875 1.109375 -1.128906 1.109375 -1.640625 C 1.109375 -2.160156 1.289062 -2.601562 1.65625 -2.96875 C 2.019531 -3.34375 2.460938 -3.53125 2.984375 -3.53125 C 3.515625 -3.53125 3.960938 -3.34375 4.328125 -2.96875 C 4.691406 -2.601562 4.875 -2.160156 4.875 -1.640625 C 4.875 -1.128906 4.691406 -0.6875 4.328125 -0.3125 C 3.960938 0.0625 3.515625 0.25 2.984375 0.25 Z M 2.984375 0.25 "/></g></g></g><g transform="matrix(1, 0, 0, 1, 206, 66)"><g clip-path="url(#f42a4c8e46)"><g fill="#eb8c29" fill-opacity="1"><g transform="translate(0.618475, 39.858823)"><g><path d="M 2.15625 -30.15625 L 9.515625 -30.15625 L 9.515625 -7.109375 L 22.1875 -7.109375 L 22.1875 0 L 2.15625 0 Z M 2.15625 -30.15625 "/></g></g></g><g fill="#eb8c29" fill-opacity="1"><g transform="translate(25.434383, 39.858823)"><g><path d="M 2.15625 -30.40625 L 22.015625 -30.40625 L 22.015625 -23.3125 L 9.5625 -23.3125 L 9.5625 -19.078125 L 21.75 -19.078125 L 21.75 -11.9375 L 9.5625 -11.9375 L 9.5625 -7.109375 L 22.0625 -7.109375 L 22.0625 0 L 2.15625 0 Z M 2.15625 -30.40625 "/></g></g></g><g fill="#eb8c29" fill-opacity="1"><g transform="translate(50.551871, 39.858823)"><g><path d="M 12.40625 -30.5 L 17.65625 -30.5 L 30.203125 0 L 21.890625 0 L 20.203125 -4.4375 L 9.90625 -4.4375 L 8.234375 0 L 0.34375 0 Z M 15.078125 -18.34375 L 12.84375 -11.96875 L 12.578125 -11.28125 L 17.578125 -11.28125 L 17.40625 -11.796875 Z M 15.078125 -18.34375 "/></g></g></g><g fill="#eb8c29" fill-opacity="1"><g transform="translate(81.787176, 39.858823)"><g><path d="M 13.875 -30.40625 C 16.164062 -30.40625 18.078125 -29.914062 19.609375 -28.9375 C 21.148438 -27.96875 22.304688 -26.710938 23.078125 -25.171875 C 23.859375 -23.640625 24.25 -22.039062 24.25 -20.375 C 24.25 -18.539062 23.757812 -16.742188 22.78125 -14.984375 C 21.8125 -13.234375 20.332031 -11.882812 18.34375 -10.9375 L 24.8125 -1.375 L 24.8125 0 L 16.96875 0 L 10.6875 -10.203125 L 9.484375 -10.203125 L 9.484375 0 L 2.15625 0 L 2.15625 -30.40625 Z M 13.703125 -16.890625 C 14.785156 -16.890625 15.613281 -17.222656 16.1875 -17.890625 C 16.769531 -18.566406 17.0625 -19.296875 17.0625 -20.078125 C 17.0625 -20.878906 16.78125 -21.625 16.21875 -22.3125 C 15.65625 -23 14.816406 -23.34375 13.703125 -23.34375 L 9.484375 -23.34375 L 9.484375 -16.890625 Z M 13.703125 -16.890625 "/></g></g></g><g fill="#eb8c29" fill-opacity="1"><g transform="translate(109.058834, 39.858823)"><g><path d="M 18.265625 -30.15625 L 25.546875 -30.15625 L 25.546875 0 L 19.765625 0 L 9.484375 -14.6875 L 9.484375 0 L 2.15625 0 L 2.15625 -30.15625 L 7.84375 -30.15625 L 18.265625 -15.078125 Z M 18.265625 -30.15625 "/></g></g></g><g fill="#eb8c29" fill-opacity="1"><g transform="translate(137.967677, 39.858823)"><g><path d="M 19.21875 0 L 1.859375 0 L 1.859375 -6.59375 L 6.84375 -6.59375 L 6.84375 -23.609375 L 1.859375 -23.609375 L 1.859375 -30.328125 L 19.21875 -30.328125 L 19.21875 -23.609375 L 14.21875 -23.609375 L 14.21875 -6.59375 L 19.21875 -6.59375 Z M 19.21875 0 "/></g></g></g><g fill="#eb8c29" fill-opacity="1"><g transform="translate(159.897024, 39.858823)"><g><path d="M 18.265625 -30.15625 L 25.546875 -30.15625 L 25.546875 0 L 19.765625 0 L 9.484375 -14.6875 L 9.484375 0 L 2.15625 0 L 2.15625 -30.15625 L 7.84375 -30.15625 L 18.265625 -15.078125 Z M 18.265625 -30.15625 "/></g></g></g><g fill="#eb8c29" fill-opacity="1"><g transform="translate(188.805867, 39.858823)"><g><path d="M 16.796875 -23.390625 C 15.335938 -23.390625 14.019531 -23.03125 12.84375 -22.3125 C 11.664062 -21.59375 10.726562 -20.609375 10.03125 -19.359375 C 9.34375 -18.109375 9 -16.664062 9 -15.03125 C 9 -13.34375 9.34375 -11.859375 10.03125 -10.578125 C 10.726562 -9.296875 11.664062 -8.300781 12.84375 -7.59375 C 14.019531 -6.894531 15.335938 -6.546875 16.796875 -6.546875 C 17.804688 -6.546875 18.847656 -6.742188 19.921875 -7.140625 C 21.003906 -7.546875 21.945312 -8.28125 22.75 -9.34375 L 13.53125 -9.34375 L 13.53125 -15.9375 L 31.96875 -15.9375 C 31.96875 -14.1875 31.84375 -12.757812 31.59375 -11.65625 C 31.351562 -10.550781 31.117188 -9.707031 30.890625 -9.125 C 30.203125 -7.207031 29.101562 -5.53125 27.59375 -4.09375 C 26.082031 -2.65625 24.378906 -1.535156 22.484375 -0.734375 C 20.585938 0.0664062 18.691406 0.46875 16.796875 0.46875 C 14.617188 0.46875 12.601562 0.0859375 10.75 -0.671875 C 8.894531 -1.429688 7.273438 -2.503906 5.890625 -3.890625 C 4.515625 -5.285156 3.445312 -6.929688 2.6875 -8.828125 C 1.925781 -10.722656 1.546875 -12.789062 1.546875 -15.03125 C 1.546875 -17.300781 1.929688 -19.382812 2.703125 -21.28125 C 3.484375 -23.175781 4.570312 -24.816406 5.96875 -26.203125 C 7.363281 -27.597656 8.984375 -28.675781 10.828125 -29.4375 C 12.679688 -30.195312 14.671875 -30.578125 16.796875 -30.578125 C 18.265625 -30.578125 19.804688 -30.351562 21.421875 -29.90625 C 23.046875 -29.46875 24.59375 -28.757812 26.0625 -27.78125 C 27.53125 -26.8125 28.785156 -25.515625 29.828125 -23.890625 C 30.878906 -22.265625 31.5625 -20.257812 31.875 -17.875 L 24.125 -17.875 C 23.78125 -19.3125 23.195312 -20.429688 22.375 -21.234375 C 21.5625 -22.035156 20.65625 -22.59375 19.65625 -22.90625 C 18.664062 -23.226562 17.710938 -23.390625 16.796875 -23.390625 Z M 16.796875 -23.390625 "/></g></g></g><g fill="#002f6c" fill-opacity="1"><g transform="translate(223.606494, 39.858823)"><g><path d="M 0.21875 -18.484375 L 13.484375 -18.484375 L 13.484375 -11.84375 L 0.21875 -11.84375 Z M 0.21875 -18.484375 "/></g></g></g><g fill="#002f6c" fill-opacity="1"><g transform="translate(241.356732, 39.858823)"><g><path d="M 8.828125 -15.03125 C 8.828125 -13.132812 9.226562 -11.554688 10.03125 -10.296875 C 10.84375 -9.035156 11.878906 -8.085938 13.140625 -7.453125 C 14.398438 -6.816406 15.722656 -6.5 17.109375 -6.5 C 18.285156 -6.5 19.414062 -6.726562 20.5 -7.1875 C 21.59375 -7.65625 22.546875 -8.335938 23.359375 -9.234375 C 24.179688 -10.140625 24.753906 -11.285156 25.078125 -12.671875 L 32.53125 -12.671875 C 32.15625 -10.054688 31.238281 -7.765625 29.78125 -5.796875 C 28.332031 -3.828125 26.507812 -2.296875 24.3125 -1.203125 C 22.113281 -0.109375 19.710938 0.4375 17.109375 0.4375 C 14.953125 0.4375 12.929688 0.0507812 11.046875 -0.71875 C 9.171875 -1.5 7.515625 -2.585938 6.078125 -3.984375 C 4.640625 -5.378906 3.515625 -7.015625 2.703125 -8.890625 C 1.898438 -10.773438 1.5 -12.820312 1.5 -15.03125 C 1.5 -17.238281 1.898438 -19.289062 2.703125 -21.1875 C 3.515625 -23.082031 4.640625 -24.734375 6.078125 -26.140625 C 7.515625 -27.554688 9.171875 -28.65625 11.046875 -29.4375 C 12.929688 -30.226562 14.953125 -30.625 17.109375 -30.625 C 19.691406 -30.625 22.085938 -30.078125 24.296875 -28.984375 C 26.503906 -27.898438 28.335938 -26.378906 29.796875 -24.421875 C 31.265625 -22.472656 32.160156 -20.207031 32.484375 -17.625 L 25.03125 -17.625 C 24.707031 -18.96875 24.132812 -20.078125 23.3125 -20.953125 C 22.5 -21.828125 21.546875 -22.488281 20.453125 -22.9375 C 19.367188 -23.382812 18.253906 -23.609375 17.109375 -23.609375 C 15.722656 -23.609375 14.398438 -23.289062 13.140625 -22.65625 C 11.878906 -22.03125 10.84375 -21.082031 10.03125 -19.8125 C 9.226562 -18.550781 8.828125 -16.957031 8.828125 -15.03125 Z M 8.828125 -15.03125 "/></g></g></g><g fill="#002f6c" fill-opacity="1"><g transform="translate(276.340279, 39.858823)"><g><path d="M 13.875 0.4375 C 12.40625 0.4375 10.972656 0.226562 9.578125 -0.1875 C 8.191406 -0.601562 6.9375 -1.226562 5.8125 -2.0625 C 4.695312 -2.894531 3.804688 -3.941406 3.140625 -5.203125 C 2.484375 -6.472656 2.15625 -7.96875 2.15625 -9.6875 L 2.15625 -30.15625 L 9.515625 -30.15625 L 9.515625 -9.734375 C 9.515625 -8.617188 9.953125 -7.78125 10.828125 -7.21875 C 11.703125 -6.65625 12.671875 -6.375 13.734375 -6.375 C 14.828125 -6.375 15.816406 -6.65625 16.703125 -7.21875 C 17.597656 -7.78125 18.046875 -8.617188 18.046875 -9.734375 L 18.046875 -30.15625 L 25.421875 -30.15625 L 25.421875 -9.6875 C 25.421875 -8 25.097656 -6.519531 24.453125 -5.25 C 23.804688 -3.988281 22.925781 -2.929688 21.8125 -2.078125 C 20.707031 -1.234375 19.46875 -0.601562 18.09375 -0.1875 C 16.71875 0.226562 15.3125 0.4375 13.875 0.4375 Z M 13.875 0.4375 "/></g></g></g><g fill="#002f6c" fill-opacity="1"><g transform="translate(304.990601, 39.858823)"><g><path d="M 16.15625 -30.15625 C 17.757812 -30.15625 19.15625 -29.757812 20.34375 -28.96875 C 21.539062 -28.175781 22.46875 -27.160156 23.125 -25.921875 C 23.789062 -24.691406 24.125 -23.414062 24.125 -22.09375 C 24.125 -21.0625 23.894531 -20.050781 23.4375 -19.0625 C 22.976562 -18.070312 22.242188 -17.234375 21.234375 -16.546875 C 22.847656 -15.734375 24 -14.707031 24.6875 -13.46875 C 25.375 -12.238281 25.71875 -10.992188 25.71875 -9.734375 C 25.71875 -8.128906 25.347656 -6.578125 24.609375 -5.078125 C 23.878906 -3.585938 22.800781 -2.367188 21.375 -1.421875 C 19.957031 -0.472656 18.1875 0 16.0625 0 L 2.203125 0 L 2.203125 -30.15625 Z M 15.03125 -19.25 C 15.695312 -19.25 16.179688 -19.472656 16.484375 -19.921875 C 16.785156 -20.367188 16.9375 -20.863281 16.9375 -21.40625 C 16.9375 -21.925781 16.773438 -22.398438 16.453125 -22.828125 C 16.140625 -23.265625 15.695312 -23.484375 15.125 -23.484375 L 9.484375 -23.484375 L 9.484375 -19.25 Z M 16.0625 -6.984375 C 16.84375 -6.984375 17.425781 -7.257812 17.8125 -7.8125 C 18.195312 -8.375 18.390625 -9 18.390625 -9.6875 C 18.390625 -10.375 18.195312 -11.003906 17.8125 -11.578125 C 17.425781 -12.160156 16.84375 -12.453125 16.0625 -12.453125 L 9.484375 -12.453125 L 9.484375 -6.984375 Z M 16.0625 -6.984375 "/></g></g></g><g fill="#002f6c" fill-opacity="1"><g transform="translate(333.468578, 39.858823)"><g><path d="M 2.15625 -30.40625 L 22.015625 -30.40625 L 22.015625 -23.3125 L 9.5625 -23.3125 L 9.5625 -19.078125 L 21.75 -19.078125 L 21.75 -11.9375 L 9.5625 -11.9375 L 9.5625 -7.109375 L 22.0625 -7.109375 L 22.0625 0 L 2.15625 0 Z M 2.15625 -30.40625 "/></g></g></g></g></g></svg>
